%TF.GenerationSoftware,KiCad,Pcbnew,5.1.8*%
%TF.CreationDate,2020-12-26T20:56:00+01:00*%
%TF.ProjectId,charger2,63686172-6765-4723-922e-6b696361645f,rev?*%
%TF.SameCoordinates,Original*%
%TF.FileFunction,Paste,Bot*%
%TF.FilePolarity,Positive*%
%FSLAX46Y46*%
G04 Gerber Fmt 4.6, Leading zero omitted, Abs format (unit mm)*
G04 Created by KiCad (PCBNEW 5.1.8) date 2020-12-26 20:56:00*
%MOMM*%
%LPD*%
G01*
G04 APERTURE LIST*
%ADD10R,1.900000X0.800000*%
G04 APERTURE END LIST*
G36*
G01*
X24650000Y-101395000D02*
X24650000Y-101095000D01*
G75*
G02*
X24800000Y-100945000I150000J0D01*
G01*
X26100000Y-100945000D01*
G75*
G02*
X26250000Y-101095000I0J-150000D01*
G01*
X26250000Y-101395000D01*
G75*
G02*
X26100000Y-101545000I-150000J0D01*
G01*
X24800000Y-101545000D01*
G75*
G02*
X24650000Y-101395000I0J150000D01*
G01*
G37*
G36*
G01*
X24650000Y-100125000D02*
X24650000Y-99825000D01*
G75*
G02*
X24800000Y-99675000I150000J0D01*
G01*
X26100000Y-99675000D01*
G75*
G02*
X26250000Y-99825000I0J-150000D01*
G01*
X26250000Y-100125000D01*
G75*
G02*
X26100000Y-100275000I-150000J0D01*
G01*
X24800000Y-100275000D01*
G75*
G02*
X24650000Y-100125000I0J150000D01*
G01*
G37*
G36*
G01*
X24650000Y-98855000D02*
X24650000Y-98555000D01*
G75*
G02*
X24800000Y-98405000I150000J0D01*
G01*
X26100000Y-98405000D01*
G75*
G02*
X26250000Y-98555000I0J-150000D01*
G01*
X26250000Y-98855000D01*
G75*
G02*
X26100000Y-99005000I-150000J0D01*
G01*
X24800000Y-99005000D01*
G75*
G02*
X24650000Y-98855000I0J150000D01*
G01*
G37*
G36*
G01*
X24650000Y-97585000D02*
X24650000Y-97285000D01*
G75*
G02*
X24800000Y-97135000I150000J0D01*
G01*
X26100000Y-97135000D01*
G75*
G02*
X26250000Y-97285000I0J-150000D01*
G01*
X26250000Y-97585000D01*
G75*
G02*
X26100000Y-97735000I-150000J0D01*
G01*
X24800000Y-97735000D01*
G75*
G02*
X24650000Y-97585000I0J150000D01*
G01*
G37*
G36*
G01*
X24650000Y-96315000D02*
X24650000Y-96015000D01*
G75*
G02*
X24800000Y-95865000I150000J0D01*
G01*
X26100000Y-95865000D01*
G75*
G02*
X26250000Y-96015000I0J-150000D01*
G01*
X26250000Y-96315000D01*
G75*
G02*
X26100000Y-96465000I-150000J0D01*
G01*
X24800000Y-96465000D01*
G75*
G02*
X24650000Y-96315000I0J150000D01*
G01*
G37*
G36*
G01*
X24650000Y-95045000D02*
X24650000Y-94745000D01*
G75*
G02*
X24800000Y-94595000I150000J0D01*
G01*
X26100000Y-94595000D01*
G75*
G02*
X26250000Y-94745000I0J-150000D01*
G01*
X26250000Y-95045000D01*
G75*
G02*
X26100000Y-95195000I-150000J0D01*
G01*
X24800000Y-95195000D01*
G75*
G02*
X24650000Y-95045000I0J150000D01*
G01*
G37*
G36*
G01*
X24650000Y-93775000D02*
X24650000Y-93475000D01*
G75*
G02*
X24800000Y-93325000I150000J0D01*
G01*
X26100000Y-93325000D01*
G75*
G02*
X26250000Y-93475000I0J-150000D01*
G01*
X26250000Y-93775000D01*
G75*
G02*
X26100000Y-93925000I-150000J0D01*
G01*
X24800000Y-93925000D01*
G75*
G02*
X24650000Y-93775000I0J150000D01*
G01*
G37*
G36*
G01*
X24650000Y-92505000D02*
X24650000Y-92205000D01*
G75*
G02*
X24800000Y-92055000I150000J0D01*
G01*
X26100000Y-92055000D01*
G75*
G02*
X26250000Y-92205000I0J-150000D01*
G01*
X26250000Y-92505000D01*
G75*
G02*
X26100000Y-92655000I-150000J0D01*
G01*
X24800000Y-92655000D01*
G75*
G02*
X24650000Y-92505000I0J150000D01*
G01*
G37*
G36*
G01*
X18150000Y-92505000D02*
X18150000Y-92205000D01*
G75*
G02*
X18300000Y-92055000I150000J0D01*
G01*
X19600000Y-92055000D01*
G75*
G02*
X19750000Y-92205000I0J-150000D01*
G01*
X19750000Y-92505000D01*
G75*
G02*
X19600000Y-92655000I-150000J0D01*
G01*
X18300000Y-92655000D01*
G75*
G02*
X18150000Y-92505000I0J150000D01*
G01*
G37*
G36*
G01*
X18150000Y-93775000D02*
X18150000Y-93475000D01*
G75*
G02*
X18300000Y-93325000I150000J0D01*
G01*
X19600000Y-93325000D01*
G75*
G02*
X19750000Y-93475000I0J-150000D01*
G01*
X19750000Y-93775000D01*
G75*
G02*
X19600000Y-93925000I-150000J0D01*
G01*
X18300000Y-93925000D01*
G75*
G02*
X18150000Y-93775000I0J150000D01*
G01*
G37*
G36*
G01*
X18150000Y-95045000D02*
X18150000Y-94745000D01*
G75*
G02*
X18300000Y-94595000I150000J0D01*
G01*
X19600000Y-94595000D01*
G75*
G02*
X19750000Y-94745000I0J-150000D01*
G01*
X19750000Y-95045000D01*
G75*
G02*
X19600000Y-95195000I-150000J0D01*
G01*
X18300000Y-95195000D01*
G75*
G02*
X18150000Y-95045000I0J150000D01*
G01*
G37*
G36*
G01*
X18150000Y-96315000D02*
X18150000Y-96015000D01*
G75*
G02*
X18300000Y-95865000I150000J0D01*
G01*
X19600000Y-95865000D01*
G75*
G02*
X19750000Y-96015000I0J-150000D01*
G01*
X19750000Y-96315000D01*
G75*
G02*
X19600000Y-96465000I-150000J0D01*
G01*
X18300000Y-96465000D01*
G75*
G02*
X18150000Y-96315000I0J150000D01*
G01*
G37*
G36*
G01*
X18150000Y-97585000D02*
X18150000Y-97285000D01*
G75*
G02*
X18300000Y-97135000I150000J0D01*
G01*
X19600000Y-97135000D01*
G75*
G02*
X19750000Y-97285000I0J-150000D01*
G01*
X19750000Y-97585000D01*
G75*
G02*
X19600000Y-97735000I-150000J0D01*
G01*
X18300000Y-97735000D01*
G75*
G02*
X18150000Y-97585000I0J150000D01*
G01*
G37*
G36*
G01*
X18150000Y-98855000D02*
X18150000Y-98555000D01*
G75*
G02*
X18300000Y-98405000I150000J0D01*
G01*
X19600000Y-98405000D01*
G75*
G02*
X19750000Y-98555000I0J-150000D01*
G01*
X19750000Y-98855000D01*
G75*
G02*
X19600000Y-99005000I-150000J0D01*
G01*
X18300000Y-99005000D01*
G75*
G02*
X18150000Y-98855000I0J150000D01*
G01*
G37*
G36*
G01*
X18150000Y-100125000D02*
X18150000Y-99825000D01*
G75*
G02*
X18300000Y-99675000I150000J0D01*
G01*
X19600000Y-99675000D01*
G75*
G02*
X19750000Y-99825000I0J-150000D01*
G01*
X19750000Y-100125000D01*
G75*
G02*
X19600000Y-100275000I-150000J0D01*
G01*
X18300000Y-100275000D01*
G75*
G02*
X18150000Y-100125000I0J150000D01*
G01*
G37*
G36*
G01*
X18150000Y-101395000D02*
X18150000Y-101095000D01*
G75*
G02*
X18300000Y-100945000I150000J0D01*
G01*
X19600000Y-100945000D01*
G75*
G02*
X19750000Y-101095000I0J-150000D01*
G01*
X19750000Y-101395000D01*
G75*
G02*
X19600000Y-101545000I-150000J0D01*
G01*
X18300000Y-101545000D01*
G75*
G02*
X18150000Y-101395000I0J150000D01*
G01*
G37*
G36*
G01*
X18190001Y-103720000D02*
X17289999Y-103720000D01*
G75*
G02*
X17040000Y-103470001I0J249999D01*
G01*
X17040000Y-102819999D01*
G75*
G02*
X17289999Y-102570000I249999J0D01*
G01*
X18190001Y-102570000D01*
G75*
G02*
X18440000Y-102819999I0J-249999D01*
G01*
X18440000Y-103470001D01*
G75*
G02*
X18190001Y-103720000I-249999J0D01*
G01*
G37*
G36*
G01*
X18190001Y-105770000D02*
X17289999Y-105770000D01*
G75*
G02*
X17040000Y-105520001I0J249999D01*
G01*
X17040000Y-104869999D01*
G75*
G02*
X17289999Y-104620000I249999J0D01*
G01*
X18190001Y-104620000D01*
G75*
G02*
X18440000Y-104869999I0J-249999D01*
G01*
X18440000Y-105520001D01*
G75*
G02*
X18190001Y-105770000I-249999J0D01*
G01*
G37*
D10*
X-2600000Y-98950000D03*
X-2600000Y-100850000D03*
X-5600000Y-99900000D03*
X-2600000Y-109050000D03*
X-2600000Y-110950000D03*
X-5600000Y-110000000D03*
X46400000Y-98750000D03*
X46400000Y-100650000D03*
X43400000Y-99916666D03*
X46400000Y-109150000D03*
X46400000Y-111050000D03*
X43400000Y-110100000D03*
X-5600000Y-89800000D03*
X-2600000Y-90750000D03*
X-2600000Y-88850000D03*
X-5600000Y-79600000D03*
X-2600000Y-80550000D03*
X-2600000Y-78650000D03*
X43400000Y-89733333D03*
X46400000Y-90350000D03*
X46400000Y-88450000D03*
X43400000Y-79550000D03*
X46400000Y-80500000D03*
X46400000Y-78600000D03*
M02*
