%TF.GenerationSoftware,KiCad,Pcbnew,5.1.8*%
%TF.CreationDate,2020-12-26T20:56:00+01:00*%
%TF.ProjectId,charger2,63686172-6765-4723-922e-6b696361645f,rev?*%
%TF.SameCoordinates,Original*%
%TF.FileFunction,Legend,Bot*%
%TF.FilePolarity,Positive*%
%FSLAX46Y46*%
G04 Gerber Fmt 4.6, Leading zero omitted, Abs format (unit mm)*
G04 Created by KiCad (PCBNEW 5.1.8) date 2020-12-26 20:56:00*
%MOMM*%
%LPD*%
G01*
G04 APERTURE LIST*
%ADD10C,0.150000*%
%ADD11C,0.100000*%
%ADD12C,0.120000*%
%ADD13C,0.075000*%
%ADD14O,1.400000X1.400000*%
%ADD15C,1.400000*%
%ADD16C,3.500000*%
%ADD17R,3.500000X3.500000*%
%ADD18C,3.200000*%
%ADD19O,2.400000X2.400000*%
%ADD20C,2.400000*%
%ADD21R,1.700000X1.700000*%
%ADD22O,1.700000X1.700000*%
%ADD23C,1.727200*%
%ADD24R,1.727200X1.727200*%
%ADD25C,1.850000*%
%ADD26O,3.800000X8.000000*%
%ADD27R,1.000000X1.000000*%
%ADD28C,5.500000*%
%ADD29R,2.000000X2.000000*%
%ADD30C,2.000000*%
%ADD31R,2.000000X3.200000*%
%ADD32R,1.900000X0.800000*%
%ADD33R,2.100000X2.100000*%
%ADD34C,2.100000*%
G04 APERTURE END LIST*
D10*
X-4780095Y-5816000D02*
X-4684857Y-5863619D01*
X-4541999Y-5863619D01*
X-4399142Y-5816000D01*
X-4303904Y-5720761D01*
X-4256285Y-5625523D01*
X-4208666Y-5435047D01*
X-4208666Y-5292190D01*
X-4256285Y-5101714D01*
X-4303904Y-5006476D01*
X-4399142Y-4911238D01*
X-4541999Y-4863619D01*
X-4637238Y-4863619D01*
X-4780095Y-4911238D01*
X-4827714Y-4958857D01*
X-4827714Y-5292190D01*
X-4637238Y-5292190D01*
X-5256285Y-4863619D02*
X-5256285Y-5863619D01*
X-5827714Y-4863619D01*
X-5827714Y-5863619D01*
X-6303904Y-4863619D02*
X-6303904Y-5863619D01*
X-6542000Y-5863619D01*
X-6684857Y-5816000D01*
X-6780095Y-5720761D01*
X-6827714Y-5625523D01*
X-6875333Y-5435047D01*
X-6875333Y-5292190D01*
X-6827714Y-5101714D01*
X-6780095Y-5006476D01*
X-6684857Y-4911238D01*
X-6542000Y-4863619D01*
X-6303904Y-4863619D01*
X1284000Y-5244571D02*
X522095Y-5244571D01*
X903047Y-4863619D02*
X903047Y-5625523D01*
X-382666Y-5530285D02*
X-382666Y-4863619D01*
X-144571Y-5911238D02*
X93523Y-5196952D01*
X-525523Y-5196952D01*
X-906476Y-4958857D02*
X-954095Y-4911238D01*
X-906476Y-4863619D01*
X-858857Y-4911238D01*
X-906476Y-4958857D01*
X-906476Y-4863619D01*
X-1858857Y-5863619D02*
X-1382666Y-5863619D01*
X-1335047Y-5387428D01*
X-1382666Y-5435047D01*
X-1477904Y-5482666D01*
X-1715999Y-5482666D01*
X-1811238Y-5435047D01*
X-1858857Y-5387428D01*
X-1906476Y-5292190D01*
X-1906476Y-5054095D01*
X-1858857Y-4958857D01*
X-1811238Y-4911238D01*
X-1715999Y-4863619D01*
X-1477904Y-4863619D01*
X-1382666Y-4911238D01*
X-1335047Y-4958857D01*
X-2192190Y-5863619D02*
X-2525523Y-4863619D01*
X-2858857Y-5863619D01*
D11*
X-4334666Y-139511333D02*
X-3868000Y-139511333D01*
X-3934666Y-139511333D02*
X-3901333Y-139478000D01*
X-3868000Y-139411333D01*
X-3868000Y-139311333D01*
X-3901333Y-139244666D01*
X-3968000Y-139211333D01*
X-4334666Y-139211333D01*
X-3968000Y-139211333D02*
X-3901333Y-139178000D01*
X-3868000Y-139111333D01*
X-3868000Y-139011333D01*
X-3901333Y-138944666D01*
X-3968000Y-138911333D01*
X-4334666Y-138911333D01*
X-4334666Y-138278000D02*
X-3968000Y-138278000D01*
X-3901333Y-138311333D01*
X-3868000Y-138378000D01*
X-3868000Y-138511333D01*
X-3901333Y-138578000D01*
X-4301333Y-138278000D02*
X-4334666Y-138344666D01*
X-4334666Y-138511333D01*
X-4301333Y-138578000D01*
X-4234666Y-138611333D01*
X-4168000Y-138611333D01*
X-4101333Y-138578000D01*
X-4068000Y-138511333D01*
X-4068000Y-138344666D01*
X-4034666Y-138278000D01*
X-4334666Y-137644666D02*
X-3634666Y-137644666D01*
X-4301333Y-137644666D02*
X-4334666Y-137711333D01*
X-4334666Y-137844666D01*
X-4301333Y-137911333D01*
X-4268000Y-137944666D01*
X-4201333Y-137978000D01*
X-4001333Y-137978000D01*
X-3934666Y-137944666D01*
X-3901333Y-137911333D01*
X-3868000Y-137844666D01*
X-3868000Y-137711333D01*
X-3901333Y-137644666D01*
X-4301333Y-137044666D02*
X-4334666Y-137111333D01*
X-4334666Y-137244666D01*
X-4301333Y-137311333D01*
X-4234666Y-137344666D01*
X-3968000Y-137344666D01*
X-3901333Y-137311333D01*
X-3868000Y-137244666D01*
X-3868000Y-137111333D01*
X-3901333Y-137044666D01*
X-3968000Y-137011333D01*
X-4034666Y-137011333D01*
X-4101333Y-137344666D01*
X-3868000Y-136244666D02*
X-4334666Y-136111333D01*
X-4001333Y-135978000D01*
X-4334666Y-135844666D01*
X-3868000Y-135711333D01*
X-4334666Y-135444666D02*
X-3868000Y-135444666D01*
X-3634666Y-135444666D02*
X-3668000Y-135478000D01*
X-3701333Y-135444666D01*
X-3668000Y-135411333D01*
X-3634666Y-135444666D01*
X-3701333Y-135444666D01*
X-3868000Y-135211333D02*
X-3868000Y-134944666D01*
X-3634666Y-135111333D02*
X-4234666Y-135111333D01*
X-4301333Y-135078000D01*
X-4334666Y-135011333D01*
X-4334666Y-134944666D01*
X-4334666Y-134711333D02*
X-3634666Y-134711333D01*
X-4334666Y-134411333D02*
X-3968000Y-134411333D01*
X-3901333Y-134444666D01*
X-3868000Y-134511333D01*
X-3868000Y-134611333D01*
X-3901333Y-134678000D01*
X-3934666Y-134711333D01*
X-3868000Y-133011333D02*
X-4068000Y-133544666D01*
X-4268000Y-133011333D01*
X-3634666Y-132744666D02*
X-3634666Y-132311333D01*
X-3901333Y-132544666D01*
X-3901333Y-132444666D01*
X-3934666Y-132378000D01*
X-3968000Y-132344666D01*
X-4034666Y-132311333D01*
X-4201333Y-132311333D01*
X-4268000Y-132344666D01*
X-4301333Y-132378000D01*
X-4334666Y-132444666D01*
X-4334666Y-132644666D01*
X-4301333Y-132711333D01*
X-4268000Y-132744666D01*
X-4334666Y-131478000D02*
X-3634666Y-131478000D01*
X-3901333Y-131478000D02*
X-3867999Y-131411333D01*
X-3867999Y-131278000D01*
X-3901333Y-131211333D01*
X-3934666Y-131178000D01*
X-4001333Y-131144666D01*
X-4201333Y-131144666D01*
X-4268000Y-131178000D01*
X-4301333Y-131211333D01*
X-4334666Y-131278000D01*
X-4334666Y-131411333D01*
X-4301333Y-131478000D01*
X-3867999Y-130911333D02*
X-4334666Y-130744666D01*
X-3867999Y-130578000D02*
X-4334666Y-130744666D01*
X-4501333Y-130811333D01*
X-4534666Y-130844666D01*
X-4568000Y-130911333D01*
X-4301333Y-129478000D02*
X-4334666Y-129544666D01*
X-4334666Y-129678000D01*
X-4301333Y-129744666D01*
X-4267999Y-129778000D01*
X-4201333Y-129811333D01*
X-4001333Y-129811333D01*
X-3934666Y-129778000D01*
X-3901333Y-129744666D01*
X-3867999Y-129678000D01*
X-3867999Y-129544666D01*
X-3901333Y-129478000D01*
X-4334666Y-129178000D02*
X-3634666Y-129178000D01*
X-4334666Y-128878000D02*
X-3967999Y-128878000D01*
X-3901333Y-128911333D01*
X-3867999Y-128978000D01*
X-3867999Y-129078000D01*
X-3901333Y-129144666D01*
X-3934666Y-129178000D01*
X-4334666Y-128244666D02*
X-3967999Y-128244666D01*
X-3901333Y-128278000D01*
X-3867999Y-128344666D01*
X-3867999Y-128478000D01*
X-3901333Y-128544666D01*
X-4301333Y-128244666D02*
X-4334666Y-128311333D01*
X-4334666Y-128478000D01*
X-4301333Y-128544666D01*
X-4234666Y-128578000D01*
X-4167999Y-128578000D01*
X-4101333Y-128544666D01*
X-4067999Y-128478000D01*
X-4067999Y-128311333D01*
X-4034666Y-128244666D01*
X-3867999Y-127911333D02*
X-4334666Y-127911333D01*
X-3934666Y-127911333D02*
X-3901333Y-127878000D01*
X-3867999Y-127811333D01*
X-3867999Y-127711333D01*
X-3901333Y-127644666D01*
X-3967999Y-127611333D01*
X-4334666Y-127611333D01*
X-4334666Y-126978000D02*
X-3634666Y-126978000D01*
X-4301333Y-126978000D02*
X-4334666Y-127044666D01*
X-4334666Y-127178000D01*
X-4301333Y-127244666D01*
X-4267999Y-127278000D01*
X-4201333Y-127311333D01*
X-4001333Y-127311333D01*
X-3934666Y-127278000D01*
X-3901333Y-127244666D01*
X-3867999Y-127178000D01*
X-3867999Y-127044666D01*
X-3901333Y-126978000D01*
X-4334666Y-126644666D02*
X-3867999Y-126644666D01*
X-3634666Y-126644666D02*
X-3667999Y-126678000D01*
X-3701333Y-126644666D01*
X-3667999Y-126611333D01*
X-3634666Y-126644666D01*
X-3701333Y-126644666D01*
X-2309904Y-139680952D02*
X-3109904Y-139414285D01*
X-2309904Y-139147619D01*
X-3071809Y-138576190D02*
X-3109904Y-138652380D01*
X-3109904Y-138804761D01*
X-3071809Y-138880952D01*
X-2995619Y-138919047D01*
X-2690857Y-138919047D01*
X-2614666Y-138880952D01*
X-2576571Y-138804761D01*
X-2576571Y-138652380D01*
X-2614666Y-138576190D01*
X-2690857Y-138538095D01*
X-2767047Y-138538095D01*
X-2843238Y-138919047D01*
X-3109904Y-138195238D02*
X-2576571Y-138195238D01*
X-2728952Y-138195238D02*
X-2652761Y-138157142D01*
X-2614666Y-138119047D01*
X-2576571Y-138042857D01*
X-2576571Y-137966666D01*
X-3071809Y-137738095D02*
X-3109904Y-137661904D01*
X-3109904Y-137509523D01*
X-3071809Y-137433333D01*
X-2995619Y-137395238D01*
X-2957523Y-137395238D01*
X-2881333Y-137433333D01*
X-2843238Y-137509523D01*
X-2843238Y-137623809D01*
X-2805142Y-137700000D01*
X-2728952Y-137738095D01*
X-2690857Y-137738095D01*
X-2614666Y-137700000D01*
X-2576571Y-137623809D01*
X-2576571Y-137509523D01*
X-2614666Y-137433333D01*
X-3109904Y-137052380D02*
X-2576571Y-137052380D01*
X-2309904Y-137052380D02*
X-2348000Y-137090476D01*
X-2386095Y-137052380D01*
X-2348000Y-137014285D01*
X-2309904Y-137052380D01*
X-2386095Y-137052380D01*
X-3109904Y-136557142D02*
X-3071809Y-136633333D01*
X-3033714Y-136671428D01*
X-2957523Y-136709523D01*
X-2728952Y-136709523D01*
X-2652761Y-136671428D01*
X-2614666Y-136633333D01*
X-2576571Y-136557142D01*
X-2576571Y-136442857D01*
X-2614666Y-136366666D01*
X-2652761Y-136328571D01*
X-2728952Y-136290476D01*
X-2957523Y-136290476D01*
X-3033714Y-136328571D01*
X-3071809Y-136366666D01*
X-3109904Y-136442857D01*
X-3109904Y-136557142D01*
X-2576571Y-135947619D02*
X-3109904Y-135947619D01*
X-2652761Y-135947619D02*
X-2614666Y-135909523D01*
X-2576571Y-135833333D01*
X-2576571Y-135719047D01*
X-2614666Y-135642857D01*
X-2690857Y-135604761D01*
X-3109904Y-135604761D01*
X-2309904Y-134461904D02*
X-2309904Y-134385714D01*
X-2348000Y-134309523D01*
X-2386095Y-134271428D01*
X-2462285Y-134233333D01*
X-2614666Y-134195238D01*
X-2805142Y-134195238D01*
X-2957523Y-134233333D01*
X-3033714Y-134271428D01*
X-3071809Y-134309523D01*
X-3109904Y-134385714D01*
X-3109904Y-134461904D01*
X-3071809Y-134538095D01*
X-3033714Y-134576190D01*
X-2957523Y-134614285D01*
X-2805142Y-134652380D01*
X-2614666Y-134652380D01*
X-2462285Y-134614285D01*
X-2386095Y-134576190D01*
X-2348000Y-134538095D01*
X-2309904Y-134461904D01*
X-3033714Y-133852380D02*
X-3071809Y-133814285D01*
X-3109904Y-133852380D01*
X-3071809Y-133890476D01*
X-3033714Y-133852380D01*
X-3109904Y-133852380D01*
X-2386095Y-133509523D02*
X-2348000Y-133471428D01*
X-2309904Y-133395238D01*
X-2309904Y-133204761D01*
X-2348000Y-133128571D01*
X-2386095Y-133090476D01*
X-2462285Y-133052380D01*
X-2538476Y-133052380D01*
X-2652761Y-133090476D01*
X-3109904Y-133547619D01*
X-3109904Y-133052380D01*
X-3376571Y-131909523D02*
X-2233714Y-131909523D01*
X-2386095Y-130766666D02*
X-2348000Y-130728571D01*
X-2309904Y-130652380D01*
X-2309904Y-130461904D01*
X-2348000Y-130385714D01*
X-2386095Y-130347619D01*
X-2462285Y-130309523D01*
X-2538476Y-130309523D01*
X-2652761Y-130347619D01*
X-3109904Y-130804761D01*
X-3109904Y-130309523D01*
X-2309904Y-129814285D02*
X-2309904Y-129738095D01*
X-2347999Y-129661904D01*
X-2386095Y-129623809D01*
X-2462285Y-129585714D01*
X-2614666Y-129547619D01*
X-2805142Y-129547619D01*
X-2957523Y-129585714D01*
X-3033714Y-129623809D01*
X-3071809Y-129661904D01*
X-3109904Y-129738095D01*
X-3109904Y-129814285D01*
X-3071809Y-129890476D01*
X-3033714Y-129928571D01*
X-2957523Y-129966666D01*
X-2805142Y-130004761D01*
X-2614666Y-130004761D01*
X-2462285Y-129966666D01*
X-2386095Y-129928571D01*
X-2348000Y-129890476D01*
X-2309904Y-129814285D01*
X-2386095Y-129242857D02*
X-2347999Y-129204761D01*
X-2309904Y-129128571D01*
X-2309904Y-128938095D01*
X-2347999Y-128861904D01*
X-2386095Y-128823809D01*
X-2462285Y-128785714D01*
X-2538476Y-128785714D01*
X-2652761Y-128823809D01*
X-3109904Y-129280952D01*
X-3109904Y-128785714D01*
X-2309904Y-128290476D02*
X-2309904Y-128214285D01*
X-2347999Y-128138095D01*
X-2386095Y-128100000D01*
X-2462285Y-128061904D01*
X-2614666Y-128023809D01*
X-2805142Y-128023809D01*
X-2957523Y-128061904D01*
X-3033714Y-128100000D01*
X-3071809Y-128138095D01*
X-3109904Y-128214285D01*
X-3109904Y-128290476D01*
X-3071809Y-128366666D01*
X-3033714Y-128404761D01*
X-2957523Y-128442857D01*
X-2805142Y-128480952D01*
X-2614666Y-128480952D01*
X-2462285Y-128442857D01*
X-2386095Y-128404761D01*
X-2347999Y-128366666D01*
X-2309904Y-128290476D01*
X-2805142Y-127680952D02*
X-2805142Y-127071428D01*
X-3109904Y-126271428D02*
X-3109904Y-126728571D01*
X-3109904Y-126500000D02*
X-2309904Y-126500000D01*
X-2424190Y-126576190D01*
X-2500380Y-126652380D01*
X-2538476Y-126728571D01*
X-3109904Y-125509523D02*
X-3109904Y-125966666D01*
X-3109904Y-125738095D02*
X-2309904Y-125738095D01*
X-2424190Y-125814285D01*
X-2500380Y-125890476D01*
X-2538476Y-125966666D01*
X-2805142Y-125166666D02*
X-2805142Y-124557142D01*
X-2386095Y-124214285D02*
X-2347999Y-124176190D01*
X-2309904Y-124100000D01*
X-2309904Y-123909523D01*
X-2347999Y-123833333D01*
X-2386095Y-123795238D01*
X-2462285Y-123757142D01*
X-2538476Y-123757142D01*
X-2652761Y-123795238D01*
X-3109904Y-124252380D01*
X-3109904Y-123757142D01*
X-2652761Y-123300000D02*
X-2614666Y-123376190D01*
X-2576571Y-123414285D01*
X-2500380Y-123452380D01*
X-2462285Y-123452380D01*
X-2386095Y-123414285D01*
X-2347999Y-123376190D01*
X-2309904Y-123300000D01*
X-2309904Y-123147619D01*
X-2347999Y-123071428D01*
X-2386095Y-123033333D01*
X-2462285Y-122995238D01*
X-2500380Y-122995238D01*
X-2576571Y-123033333D01*
X-2614666Y-123071428D01*
X-2652761Y-123147619D01*
X-2652761Y-123300000D01*
X-2690857Y-123376190D01*
X-2728952Y-123414285D01*
X-2805142Y-123452380D01*
X-2957523Y-123452380D01*
X-3033714Y-123414285D01*
X-3071809Y-123376190D01*
X-3109904Y-123300000D01*
X-3109904Y-123147619D01*
X-3071809Y-123071428D01*
X-3033714Y-123033333D01*
X-2957523Y-122995238D01*
X-2805142Y-122995238D01*
X-2728952Y-123033333D01*
X-2690857Y-123071428D01*
X-2652761Y-123147619D01*
D10*
X-755714Y-139220095D02*
X-1565238Y-139220095D01*
X-1660476Y-139267714D01*
X-1708095Y-139315333D01*
X-1755714Y-139410571D01*
X-1755714Y-139553428D01*
X-1708095Y-139648666D01*
X-1374761Y-139220095D02*
X-1422380Y-139315333D01*
X-1422380Y-139505809D01*
X-1374761Y-139601047D01*
X-1327142Y-139648666D01*
X-1231904Y-139696285D01*
X-946190Y-139696285D01*
X-850952Y-139648666D01*
X-803333Y-139601047D01*
X-755714Y-139505809D01*
X-755714Y-139315333D01*
X-803333Y-139220095D01*
X-1422380Y-138743904D02*
X-755714Y-138743904D01*
X-422380Y-138743904D02*
X-470000Y-138791523D01*
X-517619Y-138743904D01*
X-470000Y-138696285D01*
X-422380Y-138743904D01*
X-517619Y-138743904D01*
X-755714Y-138410571D02*
X-755714Y-138029619D01*
X-422380Y-138267714D02*
X-1279523Y-138267714D01*
X-1374761Y-138220095D01*
X-1422380Y-138124857D01*
X-1422380Y-138029619D01*
X-1422380Y-137696285D02*
X-422380Y-137696285D01*
X-1422380Y-137267714D02*
X-898571Y-137267714D01*
X-803333Y-137315333D01*
X-755714Y-137410571D01*
X-755714Y-137553428D01*
X-803333Y-137648666D01*
X-850952Y-137696285D01*
X-755714Y-136362952D02*
X-1422380Y-136362952D01*
X-755714Y-136791523D02*
X-1279523Y-136791523D01*
X-1374761Y-136743904D01*
X-1422380Y-136648666D01*
X-1422380Y-136505809D01*
X-1374761Y-136410571D01*
X-1327142Y-136362952D01*
X-1422380Y-135886761D02*
X-422380Y-135886761D01*
X-803333Y-135886761D02*
X-755714Y-135791523D01*
X-755714Y-135601047D01*
X-803333Y-135505809D01*
X-850952Y-135458190D01*
X-946190Y-135410571D01*
X-1231904Y-135410571D01*
X-1327142Y-135458190D01*
X-1374761Y-135505809D01*
X-1422380Y-135601047D01*
X-1422380Y-135791523D01*
X-1374761Y-135886761D01*
X-1327142Y-134982000D02*
X-1374761Y-134934380D01*
X-1422380Y-134982000D01*
X-1374761Y-135029619D01*
X-1327142Y-134982000D01*
X-1422380Y-134982000D01*
X-1374761Y-134077238D02*
X-1422380Y-134172476D01*
X-1422380Y-134362952D01*
X-1374761Y-134458190D01*
X-1327142Y-134505809D01*
X-1231904Y-134553428D01*
X-946190Y-134553428D01*
X-850952Y-134505809D01*
X-803333Y-134458190D01*
X-755714Y-134362952D01*
X-755714Y-134172476D01*
X-803333Y-134077238D01*
X-1422380Y-133505809D02*
X-1374761Y-133601047D01*
X-1327142Y-133648666D01*
X-1231904Y-133696285D01*
X-946190Y-133696285D01*
X-850952Y-133648666D01*
X-803333Y-133601047D01*
X-755714Y-133505809D01*
X-755714Y-133362952D01*
X-803333Y-133267714D01*
X-850952Y-133220095D01*
X-946190Y-133172476D01*
X-1231904Y-133172476D01*
X-1327142Y-133220095D01*
X-1374761Y-133267714D01*
X-1422380Y-133362952D01*
X-1422380Y-133505809D01*
X-1422380Y-132743904D02*
X-755714Y-132743904D01*
X-850952Y-132743904D02*
X-803333Y-132696285D01*
X-755714Y-132601047D01*
X-755714Y-132458190D01*
X-803333Y-132362952D01*
X-898571Y-132315333D01*
X-1422380Y-132315333D01*
X-898571Y-132315333D02*
X-803333Y-132267714D01*
X-755714Y-132172476D01*
X-755714Y-132029619D01*
X-803333Y-131934380D01*
X-898571Y-131886761D01*
X-1422380Y-131886761D01*
X-374761Y-130696285D02*
X-1660476Y-131553428D01*
X-1422380Y-129934380D02*
X-898571Y-129934380D01*
X-803333Y-129982000D01*
X-755714Y-130077238D01*
X-755714Y-130267714D01*
X-803333Y-130362952D01*
X-1374761Y-129934380D02*
X-1422380Y-130029619D01*
X-1422380Y-130267714D01*
X-1374761Y-130362952D01*
X-1279523Y-130410571D01*
X-1184285Y-130410571D01*
X-1089047Y-130362952D01*
X-1041428Y-130267714D01*
X-1041428Y-130029619D01*
X-993809Y-129934380D01*
X-1422380Y-129315333D02*
X-1374761Y-129410571D01*
X-1279523Y-129458190D01*
X-422380Y-129458190D01*
X-1422380Y-128505809D02*
X-898571Y-128505809D01*
X-803333Y-128553428D01*
X-755714Y-128648666D01*
X-755714Y-128839142D01*
X-803333Y-128934380D01*
X-1374761Y-128505809D02*
X-1422380Y-128601047D01*
X-1422380Y-128839142D01*
X-1374761Y-128934380D01*
X-1279523Y-128982000D01*
X-1184285Y-128982000D01*
X-1089047Y-128934380D01*
X-1041428Y-128839142D01*
X-1041428Y-128601047D01*
X-993809Y-128505809D01*
X-755714Y-128029619D02*
X-1422380Y-128029619D01*
X-850952Y-128029619D02*
X-803333Y-127982000D01*
X-755714Y-127886761D01*
X-755714Y-127743904D01*
X-803333Y-127648666D01*
X-898571Y-127601047D01*
X-1422380Y-127601047D01*
X-755714Y-126696285D02*
X-1565238Y-126696285D01*
X-1660476Y-126743904D01*
X-1708095Y-126791523D01*
X-1755714Y-126886761D01*
X-1755714Y-127029619D01*
X-1708095Y-127124857D01*
X-1374761Y-126696285D02*
X-1422380Y-126791523D01*
X-1422380Y-126982000D01*
X-1374761Y-127077238D01*
X-1327142Y-127124857D01*
X-1231904Y-127172476D01*
X-946190Y-127172476D01*
X-850952Y-127124857D01*
X-803333Y-127077238D01*
X-755714Y-126982000D01*
X-755714Y-126791523D01*
X-803333Y-126696285D01*
X-1374761Y-125839142D02*
X-1422380Y-125934380D01*
X-1422380Y-126124857D01*
X-1374761Y-126220095D01*
X-1279523Y-126267714D01*
X-898571Y-126267714D01*
X-803333Y-126220095D01*
X-755714Y-126124857D01*
X-755714Y-125934380D01*
X-803333Y-125839142D01*
X-898571Y-125791523D01*
X-993809Y-125791523D01*
X-1089047Y-126267714D01*
X-1374761Y-124934380D02*
X-1422380Y-125029619D01*
X-1422380Y-125220095D01*
X-1374761Y-125315333D01*
X-1327142Y-125362952D01*
X-1231904Y-125410571D01*
X-946190Y-125410571D01*
X-850952Y-125362952D01*
X-803333Y-125315333D01*
X-755714Y-125220095D01*
X-755714Y-125029619D01*
X-803333Y-124934380D01*
X-1422380Y-124505809D02*
X-422380Y-124505809D01*
X-1041428Y-124410571D02*
X-1422380Y-124124857D01*
X-755714Y-124124857D02*
X-1136666Y-124505809D01*
X-1374761Y-123315333D02*
X-1422380Y-123410571D01*
X-1422380Y-123601047D01*
X-1374761Y-123696285D01*
X-1279523Y-123743904D01*
X-898571Y-123743904D01*
X-803333Y-123696285D01*
X-755714Y-123601047D01*
X-755714Y-123410571D01*
X-803333Y-123315333D01*
X-898571Y-123267714D01*
X-993809Y-123267714D01*
X-1089047Y-123743904D01*
X-1422380Y-122839142D02*
X-755714Y-122839142D01*
X-946190Y-122839142D02*
X-850952Y-122791523D01*
X-803333Y-122743904D01*
X-755714Y-122648666D01*
X-755714Y-122553428D01*
X-374761Y-121505809D02*
X-1660476Y-122362952D01*
X-755714Y-121267714D02*
X-1422380Y-121029619D01*
X-755714Y-120791523D02*
X-1422380Y-121029619D01*
X-1660476Y-121124857D01*
X-1708095Y-121172476D01*
X-1755714Y-121267714D01*
X-1422380Y-119982000D02*
X-898571Y-119982000D01*
X-803333Y-120029619D01*
X-755714Y-120124857D01*
X-755714Y-120315333D01*
X-803333Y-120410571D01*
X-1374761Y-119982000D02*
X-1422380Y-120077238D01*
X-1422380Y-120315333D01*
X-1374761Y-120410571D01*
X-1279523Y-120458190D01*
X-1184285Y-120458190D01*
X-1089047Y-120410571D01*
X-1041428Y-120315333D01*
X-1041428Y-120077238D01*
X-993809Y-119982000D01*
X-1374761Y-119077238D02*
X-1422380Y-119172476D01*
X-1422380Y-119362952D01*
X-1374761Y-119458190D01*
X-1327142Y-119505809D01*
X-1231904Y-119553428D01*
X-946190Y-119553428D01*
X-850952Y-119505809D01*
X-803333Y-119458190D01*
X-755714Y-119362952D01*
X-755714Y-119172476D01*
X-803333Y-119077238D01*
X-1422380Y-118648666D02*
X-422380Y-118648666D01*
X-1422380Y-118220095D02*
X-898571Y-118220095D01*
X-803333Y-118267714D01*
X-755714Y-118362952D01*
X-755714Y-118505809D01*
X-803333Y-118601047D01*
X-850952Y-118648666D01*
X-1422380Y-117315333D02*
X-898571Y-117315333D01*
X-803333Y-117362952D01*
X-755714Y-117458190D01*
X-755714Y-117648666D01*
X-803333Y-117743904D01*
X-1374761Y-117315333D02*
X-1422380Y-117410571D01*
X-1422380Y-117648666D01*
X-1374761Y-117743904D01*
X-1279523Y-117791523D01*
X-1184285Y-117791523D01*
X-1089047Y-117743904D01*
X-1041428Y-117648666D01*
X-1041428Y-117410571D01*
X-993809Y-117315333D01*
X-1422380Y-116839142D02*
X-755714Y-116839142D01*
X-946190Y-116839142D02*
X-850952Y-116791523D01*
X-803333Y-116743904D01*
X-755714Y-116648666D01*
X-755714Y-116553428D01*
X-755714Y-115791523D02*
X-1565238Y-115791523D01*
X-1660476Y-115839142D01*
X-1708095Y-115886761D01*
X-1755714Y-115982000D01*
X-1755714Y-116124857D01*
X-1708095Y-116220095D01*
X-1374761Y-115791523D02*
X-1422380Y-115886761D01*
X-1422380Y-116077238D01*
X-1374761Y-116172476D01*
X-1327142Y-116220095D01*
X-1231904Y-116267714D01*
X-946190Y-116267714D01*
X-850952Y-116220095D01*
X-803333Y-116172476D01*
X-755714Y-116077238D01*
X-755714Y-115886761D01*
X-803333Y-115791523D01*
X-1374761Y-114934380D02*
X-1422380Y-115029619D01*
X-1422380Y-115220095D01*
X-1374761Y-115315333D01*
X-1279523Y-115362952D01*
X-898571Y-115362952D01*
X-803333Y-115315333D01*
X-755714Y-115220095D01*
X-755714Y-115029619D01*
X-803333Y-114934380D01*
X-898571Y-114886761D01*
X-993809Y-114886761D01*
X-1089047Y-115362952D01*
X-1422380Y-114458190D02*
X-755714Y-114458190D01*
X-946190Y-114458190D02*
X-850952Y-114410571D01*
X-803333Y-114362952D01*
X-755714Y-114267714D01*
X-755714Y-114172476D01*
D12*
X69250000Y3800000D02*
X69250000Y-74200000D01*
X69250000Y-74200000D02*
X89350000Y-74200000D01*
X89350000Y-74200000D02*
X89350000Y3800000D01*
X89350000Y3800000D02*
X69250000Y3800000D01*
X48150000Y-115400000D02*
X48150000Y-193400000D01*
X48150000Y-193400000D02*
X68250000Y-193400000D01*
X68250000Y-193400000D02*
X68250000Y-115400000D01*
X68250000Y-115400000D02*
X48150000Y-115400000D01*
X47150000Y3800000D02*
X27050000Y3800000D01*
X47150000Y-74200000D02*
X47150000Y3800000D01*
X27050000Y-74200000D02*
X47150000Y-74200000D01*
X27050000Y3800000D02*
X27050000Y-74200000D01*
X26050000Y3800000D02*
X5950000Y3800000D01*
X26050000Y-74200000D02*
X26050000Y3800000D01*
X5950000Y-74200000D02*
X26050000Y-74200000D01*
X5950000Y3800000D02*
X5950000Y-74200000D01*
X-11190000Y-34272000D02*
X-8530000Y-34272000D01*
X-11190000Y-34272000D02*
X-11190000Y-31672000D01*
X-11190000Y-31672000D02*
X-8530000Y-31672000D01*
X-8530000Y-34272000D02*
X-8530000Y-31672000D01*
X-8530000Y-36872000D02*
X-8530000Y-35542000D01*
X-9860000Y-36872000D02*
X-8530000Y-36872000D01*
X5950000Y-115400000D02*
X5950000Y-193400000D01*
X5950000Y-193400000D02*
X26050000Y-193400000D01*
X26050000Y-193400000D02*
X26050000Y-115400000D01*
X26050000Y-115400000D02*
X5950000Y-115400000D01*
X27050000Y-115400000D02*
X27050000Y-193400000D01*
X27050000Y-193400000D02*
X47150000Y-193400000D01*
X47150000Y-193400000D02*
X47150000Y-115400000D01*
X47150000Y-115400000D02*
X27050000Y-115400000D01*
X69250000Y-115400000D02*
X69250000Y-193400000D01*
X69250000Y-193400000D02*
X89350000Y-193400000D01*
X89350000Y-193400000D02*
X89350000Y-115400000D01*
X89350000Y-115400000D02*
X69250000Y-115400000D01*
X68250000Y3800000D02*
X48150000Y3800000D01*
X68250000Y-74200000D02*
X68250000Y3800000D01*
X48150000Y-74200000D02*
X68250000Y-74200000D01*
X48150000Y3800000D02*
X48150000Y-74200000D01*
X22200000Y-91540000D02*
X24585000Y-91540000D01*
X24585000Y-91540000D02*
X24585000Y-91795000D01*
X22200000Y-91540000D02*
X19815000Y-91540000D01*
X19815000Y-91540000D02*
X19815000Y-91795000D01*
X22200000Y-102060000D02*
X24585000Y-102060000D01*
X24585000Y-102060000D02*
X24585000Y-101805000D01*
X22200000Y-102060000D02*
X19815000Y-102060000D01*
X19815000Y-102060000D02*
X19815000Y-101805000D01*
X19815000Y-101805000D02*
X18150000Y-101805000D01*
D10*
X5690000Y-151620000D02*
X5690000Y-194800000D01*
X-12090000Y-151620000D02*
X-12090000Y-194800000D01*
X5690000Y-194800000D02*
X-12090000Y-194800000D01*
X5690000Y-151620000D02*
X-12090000Y-151620000D01*
X-7264000Y-196250000D02*
X-7264000Y-194800000D01*
X864000Y-196250000D02*
X-7264000Y-196250000D01*
X864000Y-194800000D02*
X864000Y-196250000D01*
D12*
X77090000Y-99780000D02*
X77090000Y-101110000D01*
X77090000Y-101110000D02*
X78420000Y-101110000D01*
X77090000Y-98510000D02*
X77090000Y-88290000D01*
X79750000Y-98510000D02*
X79750000Y-88290000D01*
X77090000Y-88290000D02*
X79750000Y-88290000D01*
X77090000Y-98510000D02*
X79750000Y-98510000D01*
X80600000Y-114800000D02*
X80600000Y-74700000D01*
X13400000Y-74700000D02*
X80600000Y-74700000D01*
X13400000Y-114800000D02*
X13400000Y-74700000D01*
X13400000Y-114800000D02*
X80600000Y-114800000D01*
X13572000Y-103626000D02*
X13572000Y-83246000D01*
X13572000Y-104896000D02*
X13572000Y-106226000D01*
X16232000Y-103626000D02*
X16232000Y-83246000D01*
X13572000Y-106226000D02*
X14902000Y-106226000D01*
X13572000Y-103626000D02*
X16232000Y-103626000D01*
X13572000Y-83246000D02*
X16232000Y-83246000D01*
X5130000Y-46670000D02*
X2470000Y-46670000D01*
X5130000Y-46670000D02*
X5130000Y-69590000D01*
X5130000Y-69590000D02*
X2470000Y-69590000D01*
X2470000Y-46670000D02*
X2470000Y-69590000D01*
X2470000Y-44070000D02*
X2470000Y-45400000D01*
X3800000Y-44070000D02*
X2470000Y-44070000D01*
X18450000Y-104431252D02*
X18450000Y-103908748D01*
X17030000Y-104431252D02*
X17030000Y-103908748D01*
X-920000Y-5430000D02*
X-920000Y-25670000D01*
X-920000Y-5430000D02*
X5320000Y-5430000D01*
X5320000Y-25670000D02*
X-920000Y-25670000D01*
X5320000Y-25670000D02*
X5320000Y-5430000D01*
X-300000Y-25150000D02*
X4700000Y-25150000D01*
X-300000Y-5950000D02*
X-300000Y-25150000D01*
X4700000Y-5950000D02*
X-300000Y-5950000D01*
X4700000Y-25150000D02*
X4700000Y-5950000D01*
X5100000Y-95600000D02*
X5100000Y-96600000D01*
X4600000Y-96100000D02*
X5600000Y-96100000D01*
X8600000Y-102200000D02*
X11000000Y-102200000D01*
X3800000Y-102200000D02*
X6400000Y-102200000D01*
X-800000Y-102200000D02*
X1600000Y-102200000D01*
X1000000Y-88900000D02*
X1300000Y-88600000D01*
X1000000Y-88300000D02*
X1000000Y-88900000D01*
X1300000Y-88600000D02*
X1000000Y-88300000D01*
X-800000Y-90000000D02*
X11000000Y-90000000D01*
X-800000Y-94100000D02*
X-800000Y-90000000D01*
X11000000Y-94100000D02*
X11000000Y-90000000D01*
X11000000Y-102200000D02*
X11000000Y-98100000D01*
X-800000Y-98100000D02*
X-800000Y-102200000D01*
X8100000Y-96100000D02*
G75*
G03*
X8100000Y-96100000I-3000000J0D01*
G01*
X-4860000Y-101480000D02*
X-3400000Y-101480000D01*
X-4860000Y-98320000D02*
X-1700000Y-98320000D01*
X-4860000Y-98320000D02*
X-4860000Y-99250000D01*
X-4860000Y-101480000D02*
X-4860000Y-100550000D01*
X-4860000Y-111580000D02*
X-3400000Y-111580000D01*
X-4860000Y-108420000D02*
X-1700000Y-108420000D01*
X-4860000Y-108420000D02*
X-4860000Y-109350000D01*
X-4860000Y-111580000D02*
X-4860000Y-110650000D01*
X44140000Y-101280000D02*
X45600000Y-101280000D01*
X44140000Y-98120000D02*
X47300000Y-98120000D01*
X44140000Y-98120000D02*
X44140000Y-99050000D01*
X44140000Y-101280000D02*
X44140000Y-100350000D01*
X44140000Y-111680000D02*
X45600000Y-111680000D01*
X44140000Y-108520000D02*
X47300000Y-108520000D01*
X44140000Y-108520000D02*
X44140000Y-109450000D01*
X44140000Y-111680000D02*
X44140000Y-110750000D01*
X-4860000Y-91380000D02*
X-4860000Y-90450000D01*
X-4860000Y-88220000D02*
X-4860000Y-89150000D01*
X-4860000Y-88220000D02*
X-1700000Y-88220000D01*
X-4860000Y-91380000D02*
X-3400000Y-91380000D01*
X-4860000Y-81180000D02*
X-4860000Y-80250000D01*
X-4860000Y-78020000D02*
X-4860000Y-78950000D01*
X-4860000Y-78020000D02*
X-1700000Y-78020000D01*
X-4860000Y-81180000D02*
X-3400000Y-81180000D01*
X44140000Y-90980000D02*
X44140000Y-90050000D01*
X44140000Y-87820000D02*
X44140000Y-88750000D01*
X44140000Y-87820000D02*
X47300000Y-87820000D01*
X44140000Y-90980000D02*
X45600000Y-90980000D01*
X44140000Y-81130000D02*
X44140000Y-80200000D01*
X44140000Y-77970000D02*
X44140000Y-78900000D01*
X44140000Y-77970000D02*
X47300000Y-77970000D01*
X44140000Y-81130000D02*
X45600000Y-81130000D01*
X2840000Y-4750000D02*
X2340000Y-4750000D01*
X2840000Y-4010000D02*
X2840000Y-4750000D01*
X-6330000Y4000000D02*
X-6330000Y3000000D01*
X-3830000Y4000000D02*
X-3830000Y3000000D01*
X-3830000Y3000000D02*
X-6330000Y3000000D01*
X-3830000Y4000000D02*
X-6330000Y4000000D01*
X-4056000Y-1250000D02*
X-3996000Y-1310000D01*
X-5991000Y685000D02*
X-5951000Y645000D01*
X-4210000Y-1445000D02*
X-4170000Y-1485000D01*
X-6165000Y510000D02*
X-6105000Y451000D01*
X-1250000Y4000000D02*
X-1250000Y3000000D01*
X1250000Y4000000D02*
X1250000Y3000000D01*
X1250000Y3000000D02*
X-1250000Y3000000D01*
X1250000Y4000000D02*
X-1250000Y4000000D01*
X-7680000Y4060000D02*
X-7680000Y-4510000D01*
X2600000Y4060000D02*
X2600000Y-4510000D01*
X2600000Y-4510000D02*
X-7680000Y-4510000D01*
X2600000Y4060000D02*
X-7680000Y4060000D01*
X2600000Y2150000D02*
X-7680000Y2150000D01*
X2600000Y-2850000D02*
X-7680000Y-2850000D01*
X2600000Y-3950000D02*
X-7680000Y-3950000D01*
X-3650000Y-400000D02*
G75*
G03*
X-3650000Y-400000I-1430000J0D01*
G01*
X-626871Y-1685275D02*
G75*
G03*
X0Y-1830000I626871J1285275D01*
G01*
X-1285824Y227362D02*
G75*
G03*
X-1286000Y-1027000I1285824J-627362D01*
G01*
X627362Y885824D02*
G75*
G03*
X-627000Y886000I-627362J-1285824D01*
G01*
X1286611Y-1026746D02*
G75*
G03*
X1286000Y228000I-1286611J626746D01*
G01*
X-24280Y-1830940D02*
G75*
G03*
X628000Y-1686000I24280J1430940D01*
G01*
D10*
X-10370000Y-142120000D02*
X-10370000Y-145720000D01*
X-10370000Y-145720000D02*
X-9870000Y-146220000D01*
X-9870000Y-146220000D02*
X-9070000Y-146220000D01*
X-9070000Y-146220000D02*
X-8570000Y-145720000D01*
X-8570000Y-145720000D02*
X-8570000Y-142120000D01*
X-8570000Y-142120000D02*
X-9070000Y-141620000D01*
X-9070000Y-141620000D02*
X-9870000Y-141620000D01*
X-9870000Y-141620000D02*
X-10370000Y-142120000D01*
X-9526666Y-37764380D02*
X-9526666Y-38478666D01*
X-9479047Y-38621523D01*
X-9383809Y-38716761D01*
X-9240952Y-38764380D01*
X-9145714Y-38764380D01*
X-10526666Y-38764380D02*
X-9955238Y-38764380D01*
X-10240952Y-38764380D02*
X-10240952Y-37764380D01*
X-10145714Y-37907238D01*
X-10050476Y-38002476D01*
X-9955238Y-38050095D01*
X-9326666Y-30666000D02*
X-9093333Y-30666000D01*
X-9093333Y-31032666D02*
X-9093333Y-30332666D01*
X-9426666Y-30332666D01*
X-9993333Y-31032666D02*
X-9993333Y-30666000D01*
X-9960000Y-30599333D01*
X-9893333Y-30566000D01*
X-9760000Y-30566000D01*
X-9693333Y-30599333D01*
X-9993333Y-30999333D02*
X-9926666Y-31032666D01*
X-9760000Y-31032666D01*
X-9693333Y-30999333D01*
X-9660000Y-30932666D01*
X-9660000Y-30866000D01*
X-9693333Y-30799333D01*
X-9760000Y-30766000D01*
X-9926666Y-30766000D01*
X-9993333Y-30732666D01*
X-10326666Y-30566000D02*
X-10326666Y-31032666D01*
X-10326666Y-30632666D02*
X-10360000Y-30599333D01*
X-10426666Y-30566000D01*
X-10526666Y-30566000D01*
X-10593333Y-30599333D01*
X-10626666Y-30666000D01*
X-10626666Y-31032666D01*
X25261904Y-90202380D02*
X25261904Y-91011904D01*
X25214285Y-91107142D01*
X25166666Y-91154761D01*
X25071428Y-91202380D01*
X24880952Y-91202380D01*
X24785714Y-91154761D01*
X24738095Y-91107142D01*
X24690476Y-91011904D01*
X24690476Y-90202380D01*
X23690476Y-91202380D02*
X24261904Y-91202380D01*
X23976190Y-91202380D02*
X23976190Y-90202380D01*
X24071428Y-90345238D01*
X24166666Y-90440476D01*
X24261904Y-90488095D01*
X23016666Y-90416666D02*
X22550000Y-90416666D01*
X22850000Y-91116666D01*
X21983333Y-90650000D02*
X21983333Y-91116666D01*
X22150000Y-90383333D02*
X22316666Y-90883333D01*
X21883333Y-90883333D01*
X21616666Y-91116666D02*
X21616666Y-90416666D01*
X21616666Y-90750000D02*
X21216666Y-90750000D01*
X21216666Y-91116666D02*
X21216666Y-90416666D01*
X20483333Y-91050000D02*
X20516666Y-91083333D01*
X20616666Y-91116666D01*
X20683333Y-91116666D01*
X20783333Y-91083333D01*
X20850000Y-91016666D01*
X20883333Y-90950000D01*
X20916666Y-90816666D01*
X20916666Y-90716666D01*
X20883333Y-90583333D01*
X20850000Y-90516666D01*
X20783333Y-90450000D01*
X20683333Y-90416666D01*
X20616666Y-90416666D01*
X20516666Y-90450000D01*
X20483333Y-90483333D01*
X19883333Y-90650000D02*
X19883333Y-91116666D01*
X20050000Y-90383333D02*
X20216666Y-90883333D01*
X19783333Y-90883333D01*
X19383333Y-90416666D02*
X19316666Y-90416666D01*
X19250000Y-90450000D01*
X19216666Y-90483333D01*
X19183333Y-90550000D01*
X19150000Y-90683333D01*
X19150000Y-90850000D01*
X19183333Y-90983333D01*
X19216666Y-91050000D01*
X19250000Y-91083333D01*
X19316666Y-91116666D01*
X19383333Y-91116666D01*
X19450000Y-91083333D01*
X19483333Y-91050000D01*
X19516666Y-90983333D01*
X19550000Y-90850000D01*
X19550000Y-90683333D01*
X19516666Y-90550000D01*
X19483333Y-90483333D01*
X19450000Y-90450000D01*
X19383333Y-90416666D01*
X18516666Y-90416666D02*
X18850000Y-90416666D01*
X18883333Y-90750000D01*
X18850000Y-90716666D01*
X18783333Y-90683333D01*
X18616666Y-90683333D01*
X18550000Y-90716666D01*
X18516666Y-90750000D01*
X18483333Y-90816666D01*
X18483333Y-90983333D01*
X18516666Y-91050000D01*
X18550000Y-91083333D01*
X18616666Y-91116666D01*
X18783333Y-91116666D01*
X18850000Y-91083333D01*
X18883333Y-91050000D01*
X18050000Y-90416666D02*
X17983333Y-90416666D01*
X17916666Y-90450000D01*
X17883333Y-90483333D01*
X17850000Y-90550000D01*
X17816666Y-90683333D01*
X17816666Y-90850000D01*
X17850000Y-90983333D01*
X17883333Y-91050000D01*
X17916666Y-91083333D01*
X17983333Y-91116666D01*
X18050000Y-91116666D01*
X18116666Y-91083333D01*
X18150000Y-91050000D01*
X18183333Y-90983333D01*
X18216666Y-90850000D01*
X18216666Y-90683333D01*
X18183333Y-90550000D01*
X18150000Y-90483333D01*
X18116666Y-90450000D01*
X18050000Y-90416666D01*
X-2377333Y-170572000D02*
X-2377333Y-170905333D01*
X-2177333Y-170505333D02*
X-2877333Y-170738666D01*
X-2177333Y-170972000D01*
X-2177333Y-171205333D02*
X-2644000Y-171205333D01*
X-2510666Y-171205333D02*
X-2577333Y-171238666D01*
X-2610666Y-171272000D01*
X-2644000Y-171338666D01*
X-2644000Y-171405333D01*
X-2177333Y-171938666D02*
X-2877333Y-171938666D01*
X-2210666Y-171938666D02*
X-2177333Y-171872000D01*
X-2177333Y-171738666D01*
X-2210666Y-171672000D01*
X-2244000Y-171638666D01*
X-2310666Y-171605333D01*
X-2510666Y-171605333D01*
X-2577333Y-171638666D01*
X-2610666Y-171672000D01*
X-2644000Y-171738666D01*
X-2644000Y-171872000D01*
X-2610666Y-171938666D01*
X-2644000Y-172572000D02*
X-2177333Y-172572000D01*
X-2644000Y-172272000D02*
X-2277333Y-172272000D01*
X-2210666Y-172305333D01*
X-2177333Y-172372000D01*
X-2177333Y-172472000D01*
X-2210666Y-172538666D01*
X-2244000Y-172572000D01*
X-2177333Y-172905333D02*
X-2644000Y-172905333D01*
X-2877333Y-172905333D02*
X-2844000Y-172872000D01*
X-2810666Y-172905333D01*
X-2844000Y-172938666D01*
X-2877333Y-172905333D01*
X-2810666Y-172905333D01*
X-2644000Y-173238666D02*
X-2177333Y-173238666D01*
X-2577333Y-173238666D02*
X-2610666Y-173272000D01*
X-2644000Y-173338666D01*
X-2644000Y-173438666D01*
X-2610666Y-173505333D01*
X-2544000Y-173538666D01*
X-2177333Y-173538666D01*
X-2177333Y-173972000D02*
X-2210666Y-173905333D01*
X-2244000Y-173872000D01*
X-2310666Y-173838666D01*
X-2510666Y-173838666D01*
X-2577333Y-173872000D01*
X-2610666Y-173905333D01*
X-2644000Y-173972000D01*
X-2644000Y-174072000D01*
X-2610666Y-174138666D01*
X-2577333Y-174172000D01*
X-2510666Y-174205333D01*
X-2310666Y-174205333D01*
X-2244000Y-174172000D01*
X-2210666Y-174138666D01*
X-2177333Y-174072000D01*
X-2177333Y-173972000D01*
X-2177333Y-175038666D02*
X-2877333Y-175038666D01*
X-2177333Y-175438666D01*
X-2877333Y-175438666D01*
X-2177333Y-176072000D02*
X-2544000Y-176072000D01*
X-2610666Y-176038666D01*
X-2644000Y-175972000D01*
X-2644000Y-175838666D01*
X-2610666Y-175772000D01*
X-2210666Y-176072000D02*
X-2177333Y-176005333D01*
X-2177333Y-175838666D01*
X-2210666Y-175772000D01*
X-2277333Y-175738666D01*
X-2344000Y-175738666D01*
X-2410666Y-175772000D01*
X-2444000Y-175838666D01*
X-2444000Y-176005333D01*
X-2477333Y-176072000D01*
X-2644000Y-176405333D02*
X-2177333Y-176405333D01*
X-2577333Y-176405333D02*
X-2610666Y-176438666D01*
X-2644000Y-176505333D01*
X-2644000Y-176605333D01*
X-2610666Y-176672000D01*
X-2544000Y-176705333D01*
X-2177333Y-176705333D01*
X-2177333Y-177138666D02*
X-2210666Y-177072000D01*
X-2244000Y-177038666D01*
X-2310666Y-177005333D01*
X-2510666Y-177005333D01*
X-2577333Y-177038666D01*
X-2610666Y-177072000D01*
X-2644000Y-177138666D01*
X-2644000Y-177238666D01*
X-2610666Y-177305333D01*
X-2577333Y-177338666D01*
X-2510666Y-177372000D01*
X-2310666Y-177372000D01*
X-2244000Y-177338666D01*
X-2210666Y-177305333D01*
X-2177333Y-177238666D01*
X-2177333Y-177138666D01*
D13*
X-2518247Y-193789590D02*
X-2518247Y-194194352D01*
X-2542057Y-194241971D01*
X-2565866Y-194265780D01*
X-2613485Y-194289590D01*
X-2708723Y-194289590D01*
X-2756342Y-194265780D01*
X-2780152Y-194241971D01*
X-2803961Y-194194352D01*
X-2803961Y-193789590D01*
X-3018247Y-194265780D02*
X-3089676Y-194289590D01*
X-3208723Y-194289590D01*
X-3256342Y-194265780D01*
X-3280152Y-194241971D01*
X-3303961Y-194194352D01*
X-3303961Y-194146733D01*
X-3280152Y-194099114D01*
X-3256342Y-194075304D01*
X-3208723Y-194051495D01*
X-3113485Y-194027685D01*
X-3065866Y-194003876D01*
X-3042057Y-193980066D01*
X-3018247Y-193932447D01*
X-3018247Y-193884828D01*
X-3042057Y-193837209D01*
X-3065866Y-193813400D01*
X-3113485Y-193789590D01*
X-3232533Y-193789590D01*
X-3303961Y-193813400D01*
X-3684914Y-194027685D02*
X-3756342Y-194051495D01*
X-3780152Y-194075304D01*
X-3803961Y-194122923D01*
X-3803961Y-194194352D01*
X-3780152Y-194241971D01*
X-3756342Y-194265780D01*
X-3708723Y-194289590D01*
X-3518247Y-194289590D01*
X-3518247Y-193789590D01*
X-3684914Y-193789590D01*
X-3732533Y-193813400D01*
X-3756342Y-193837209D01*
X-3780152Y-193884828D01*
X-3780152Y-193932447D01*
X-3756342Y-193980066D01*
X-3732533Y-194003876D01*
X-3684914Y-194027685D01*
X-3518247Y-194027685D01*
X-9823809Y-187711904D02*
X-9823809Y-188021428D01*
X-9633333Y-187854761D01*
X-9633333Y-187926190D01*
X-9609523Y-187973809D01*
X-9585714Y-187997619D01*
X-9538095Y-188021428D01*
X-9419047Y-188021428D01*
X-9371428Y-187997619D01*
X-9347619Y-187973809D01*
X-9323809Y-187926190D01*
X-9323809Y-187783333D01*
X-9347619Y-187735714D01*
X-9371428Y-187711904D01*
X-9371428Y-188235714D02*
X-9347619Y-188259523D01*
X-9323809Y-188235714D01*
X-9347619Y-188211904D01*
X-9371428Y-188235714D01*
X-9323809Y-188235714D01*
X-9823809Y-188426190D02*
X-9823809Y-188735714D01*
X-9633333Y-188569047D01*
X-9633333Y-188640476D01*
X-9609523Y-188688095D01*
X-9585714Y-188711904D01*
X-9538095Y-188735714D01*
X-9419047Y-188735714D01*
X-9371428Y-188711904D01*
X-9347619Y-188688095D01*
X-9323809Y-188640476D01*
X-9323809Y-188497619D01*
X-9347619Y-188450000D01*
X-9371428Y-188426190D01*
X-9823809Y-188878571D02*
X-9323809Y-189045238D01*
X-9823809Y-189211904D01*
D10*
X51516666Y-94383333D02*
X51483333Y-94350000D01*
X51416666Y-94316666D01*
X51250000Y-94316666D01*
X51183333Y-94350000D01*
X51150000Y-94383333D01*
X51116666Y-94450000D01*
X51116666Y-94516666D01*
X51150000Y-94616666D01*
X51550000Y-95016666D01*
X51116666Y-95016666D01*
X50816666Y-94950000D02*
X50783333Y-94983333D01*
X50816666Y-95016666D01*
X50850000Y-94983333D01*
X50816666Y-94950000D01*
X50816666Y-95016666D01*
X50516666Y-94383333D02*
X50483333Y-94350000D01*
X50416666Y-94316666D01*
X50250000Y-94316666D01*
X50183333Y-94350000D01*
X50150000Y-94383333D01*
X50116666Y-94450000D01*
X50116666Y-94516666D01*
X50150000Y-94616666D01*
X50550000Y-95016666D01*
X50116666Y-95016666D01*
X49850000Y-94316666D02*
X49850000Y-94450000D01*
X49583333Y-94316666D02*
X49583333Y-94450000D01*
X48783333Y-94983333D02*
X48683333Y-95016666D01*
X48516666Y-95016666D01*
X48450000Y-94983333D01*
X48416666Y-94950000D01*
X48383333Y-94883333D01*
X48383333Y-94816666D01*
X48416666Y-94750000D01*
X48450000Y-94716666D01*
X48516666Y-94683333D01*
X48650000Y-94650000D01*
X48716666Y-94616666D01*
X48750000Y-94583333D01*
X48783333Y-94516666D01*
X48783333Y-94450000D01*
X48750000Y-94383333D01*
X48716666Y-94350000D01*
X48650000Y-94316666D01*
X48483333Y-94316666D01*
X48383333Y-94350000D01*
X48083333Y-95016666D02*
X48083333Y-94316666D01*
X47816666Y-94316666D01*
X47750000Y-94350000D01*
X47716666Y-94383333D01*
X47683333Y-94450000D01*
X47683333Y-94550000D01*
X47716666Y-94616666D01*
X47750000Y-94650000D01*
X47816666Y-94683333D01*
X48083333Y-94683333D01*
X47383333Y-95016666D02*
X47383333Y-94316666D01*
X46216666Y-95016666D02*
X46216666Y-94316666D01*
X46216666Y-94983333D02*
X46283333Y-95016666D01*
X46416666Y-95016666D01*
X46483333Y-94983333D01*
X46516666Y-94950000D01*
X46550000Y-94883333D01*
X46550000Y-94683333D01*
X46516666Y-94616666D01*
X46483333Y-94583333D01*
X46416666Y-94550000D01*
X46283333Y-94550000D01*
X46216666Y-94583333D01*
X45883333Y-95016666D02*
X45883333Y-94550000D01*
X45883333Y-94316666D02*
X45916666Y-94350000D01*
X45883333Y-94383333D01*
X45850000Y-94350000D01*
X45883333Y-94316666D01*
X45883333Y-94383333D01*
X45583333Y-94983333D02*
X45516666Y-95016666D01*
X45383333Y-95016666D01*
X45316666Y-94983333D01*
X45283333Y-94916666D01*
X45283333Y-94883333D01*
X45316666Y-94816666D01*
X45383333Y-94783333D01*
X45483333Y-94783333D01*
X45550000Y-94750000D01*
X45583333Y-94683333D01*
X45583333Y-94650000D01*
X45550000Y-94583333D01*
X45483333Y-94550000D01*
X45383333Y-94550000D01*
X45316666Y-94583333D01*
X44983333Y-94550000D02*
X44983333Y-95250000D01*
X44983333Y-94583333D02*
X44916666Y-94550000D01*
X44783333Y-94550000D01*
X44716666Y-94583333D01*
X44683333Y-94616666D01*
X44650000Y-94683333D01*
X44650000Y-94883333D01*
X44683333Y-94950000D01*
X44716666Y-94983333D01*
X44783333Y-95016666D01*
X44916666Y-95016666D01*
X44983333Y-94983333D01*
X44250000Y-95016666D02*
X44316666Y-94983333D01*
X44350000Y-94916666D01*
X44350000Y-94316666D01*
X43683333Y-95016666D02*
X43683333Y-94650000D01*
X43716666Y-94583333D01*
X43783333Y-94550000D01*
X43916666Y-94550000D01*
X43983333Y-94583333D01*
X43683333Y-94983333D02*
X43750000Y-95016666D01*
X43916666Y-95016666D01*
X43983333Y-94983333D01*
X44016666Y-94916666D01*
X44016666Y-94850000D01*
X43983333Y-94783333D01*
X43916666Y-94750000D01*
X43750000Y-94750000D01*
X43683333Y-94716666D01*
X43416666Y-94550000D02*
X43250000Y-95016666D01*
X43083333Y-94550000D02*
X43250000Y-95016666D01*
X43316666Y-95183333D01*
X43350000Y-95216666D01*
X43416666Y-95250000D01*
X2665333Y-42868380D02*
X2665333Y-43582666D01*
X2712952Y-43725523D01*
X2808190Y-43820761D01*
X2951047Y-43868380D01*
X3046285Y-43868380D01*
X1712952Y-42868380D02*
X2189142Y-42868380D01*
X2236761Y-43344571D01*
X2189142Y-43296952D01*
X2093904Y-43249333D01*
X1855809Y-43249333D01*
X1760571Y-43296952D01*
X1712952Y-43344571D01*
X1665333Y-43439809D01*
X1665333Y-43677904D01*
X1712952Y-43773142D01*
X1760571Y-43820761D01*
X1855809Y-43868380D01*
X2093904Y-43868380D01*
X2189142Y-43820761D01*
X2236761Y-43773142D01*
X95999Y-61428000D02*
X95999Y-61194666D01*
X-270666Y-61094666D02*
X-270666Y-61428000D01*
X429333Y-61428000D01*
X429333Y-61094666D01*
X-270666Y-60861333D02*
X195999Y-60494666D01*
X195999Y-60861333D02*
X-270666Y-60494666D01*
X195999Y-60328000D02*
X195999Y-60061333D01*
X429333Y-60228000D02*
X-170666Y-60228000D01*
X-237333Y-60194666D01*
X-270666Y-60128000D01*
X-270666Y-60061333D01*
X-237333Y-59561333D02*
X-270666Y-59628000D01*
X-270666Y-59761333D01*
X-237333Y-59828000D01*
X-170666Y-59861333D01*
X95999Y-59861333D01*
X162666Y-59828000D01*
X195999Y-59761333D01*
X195999Y-59628000D01*
X162666Y-59561333D01*
X95999Y-59528000D01*
X29333Y-59528000D01*
X-37333Y-59861333D01*
X-270666Y-59228000D02*
X195999Y-59228000D01*
X62666Y-59228000D02*
X129333Y-59194666D01*
X162666Y-59161333D01*
X195999Y-59094666D01*
X195999Y-59028000D01*
X195999Y-58794666D02*
X-270666Y-58794666D01*
X129333Y-58794666D02*
X162666Y-58761333D01*
X195999Y-58694666D01*
X195999Y-58594666D01*
X162666Y-58528000D01*
X95999Y-58494666D01*
X-270666Y-58494666D01*
X-270666Y-57861333D02*
X95999Y-57861333D01*
X162666Y-57894666D01*
X195999Y-57961333D01*
X195999Y-58094666D01*
X162666Y-58161333D01*
X-237333Y-57861333D02*
X-270666Y-57928000D01*
X-270666Y-58094666D01*
X-237333Y-58161333D01*
X-170666Y-58194666D01*
X-104000Y-58194666D01*
X-37333Y-58161333D01*
X-4000Y-58094666D01*
X-4000Y-57928000D01*
X29333Y-57861333D01*
X-270666Y-57428000D02*
X-237333Y-57494666D01*
X-170666Y-57528000D01*
X429333Y-57528000D01*
X-70666Y-56661333D02*
X-70666Y-56328000D01*
X-270666Y-56728000D02*
X429333Y-56494666D01*
X-270666Y-56261333D01*
X-270666Y-56028000D02*
X429333Y-56028000D01*
X429333Y-55861333D01*
X396000Y-55761333D01*
X329333Y-55694666D01*
X262666Y-55661333D01*
X129333Y-55628000D01*
X29333Y-55628000D01*
X-103999Y-55661333D01*
X-170666Y-55694666D01*
X-237333Y-55761333D01*
X-270666Y-55861333D01*
X-270666Y-56028000D01*
X-237333Y-55361333D02*
X-270666Y-55261333D01*
X-270666Y-55094666D01*
X-237333Y-55028000D01*
X-203999Y-54994666D01*
X-137333Y-54961333D01*
X-70666Y-54961333D01*
X-3999Y-54994666D01*
X29333Y-55028000D01*
X62666Y-55094666D01*
X96000Y-55228000D01*
X129333Y-55294666D01*
X162666Y-55328000D01*
X229333Y-55361333D01*
X296000Y-55361333D01*
X362666Y-55328000D01*
X396000Y-55294666D01*
X429333Y-55228000D01*
X429333Y-55061333D01*
X396000Y-54961333D01*
X-270666Y-54294666D02*
X-270666Y-54694666D01*
X-270666Y-54494666D02*
X429333Y-54494666D01*
X329333Y-54561333D01*
X262666Y-54628000D01*
X229333Y-54694666D01*
X-270666Y-53628000D02*
X-270666Y-54028000D01*
X-270666Y-53828000D02*
X429333Y-53828000D01*
X329333Y-53894666D01*
X262666Y-53961333D01*
X229333Y-54028000D01*
X-270666Y-52961333D02*
X-270666Y-53361333D01*
X-270666Y-53161333D02*
X429333Y-53161333D01*
X329333Y-53228000D01*
X262666Y-53294666D01*
X229333Y-53361333D01*
X429333Y-52328000D02*
X429333Y-52661333D01*
X96000Y-52694666D01*
X129333Y-52661333D01*
X162666Y-52594666D01*
X162666Y-52428000D01*
X129333Y-52361333D01*
X96000Y-52328000D01*
X29333Y-52294666D01*
X-137333Y-52294666D01*
X-203999Y-52328000D01*
X-237333Y-52361333D01*
X-270666Y-52428000D01*
X-270666Y-52594666D01*
X-237333Y-52661333D01*
X-203999Y-52694666D01*
X19847142Y-103402142D02*
X19894761Y-103354523D01*
X19942380Y-103211666D01*
X19942380Y-103116428D01*
X19894761Y-102973571D01*
X19799523Y-102878333D01*
X19704285Y-102830714D01*
X19513809Y-102783095D01*
X19370952Y-102783095D01*
X19180476Y-102830714D01*
X19085238Y-102878333D01*
X18990000Y-102973571D01*
X18942380Y-103116428D01*
X18942380Y-103211666D01*
X18990000Y-103354523D01*
X19037619Y-103402142D01*
X19037619Y-103783095D02*
X18990000Y-103830714D01*
X18942380Y-103925952D01*
X18942380Y-104164047D01*
X18990000Y-104259285D01*
X19037619Y-104306904D01*
X19132857Y-104354523D01*
X19228095Y-104354523D01*
X19370952Y-104306904D01*
X19942380Y-103735476D01*
X19942380Y-104354523D01*
X19275714Y-105211666D02*
X19942380Y-105211666D01*
X18894761Y-104973571D02*
X19609047Y-104735476D01*
X19609047Y-105354523D01*
X18056666Y-106661666D02*
X18056666Y-106261666D01*
X18056666Y-106461666D02*
X17356666Y-106461666D01*
X17456666Y-106395000D01*
X17523333Y-106328333D01*
X17556666Y-106261666D01*
X17356666Y-107095000D02*
X17356666Y-107161666D01*
X17390000Y-107228333D01*
X17423333Y-107261666D01*
X17490000Y-107295000D01*
X17623333Y-107328333D01*
X17790000Y-107328333D01*
X17923333Y-107295000D01*
X17990000Y-107261666D01*
X18023333Y-107228333D01*
X18056666Y-107161666D01*
X18056666Y-107095000D01*
X18023333Y-107028333D01*
X17990000Y-106995000D01*
X17923333Y-106961666D01*
X17790000Y-106928333D01*
X17623333Y-106928333D01*
X17490000Y-106961666D01*
X17423333Y-106995000D01*
X17390000Y-107028333D01*
X17356666Y-107095000D01*
X17356666Y-107761666D02*
X17356666Y-107828333D01*
X17390000Y-107895000D01*
X17423333Y-107928333D01*
X17490000Y-107961666D01*
X17623333Y-107995000D01*
X17790000Y-107995000D01*
X17923333Y-107961666D01*
X17990000Y-107928333D01*
X18023333Y-107895000D01*
X18056666Y-107828333D01*
X18056666Y-107761666D01*
X18023333Y-107695000D01*
X17990000Y-107661666D01*
X17923333Y-107628333D01*
X17790000Y-107595000D01*
X17623333Y-107595000D01*
X17490000Y-107628333D01*
X17423333Y-107661666D01*
X17390000Y-107695000D01*
X17356666Y-107761666D01*
X17590000Y-108295000D02*
X18056666Y-108295000D01*
X17656666Y-108295000D02*
X17623333Y-108328333D01*
X17590000Y-108395000D01*
X17590000Y-108495000D01*
X17623333Y-108561666D01*
X17690000Y-108595000D01*
X18056666Y-108595000D01*
X-2057428Y-15396666D02*
X-2057428Y-15063333D01*
X-1533619Y-15063333D02*
X-2533619Y-15063333D01*
X-2533619Y-15539523D01*
X-1533619Y-16444285D02*
X-1533619Y-15872857D01*
X-1533619Y-16158571D02*
X-2533619Y-16158571D01*
X-2390761Y-16063333D01*
X-2295523Y-15968095D01*
X-2247904Y-15872857D01*
X-1483333Y-17836666D02*
X-1483333Y-17436666D01*
X-1483333Y-17636666D02*
X-2183333Y-17636666D01*
X-2083333Y-17570000D01*
X-2016666Y-17503333D01*
X-1983333Y-17436666D01*
X-2183333Y-18270000D02*
X-2183333Y-18336666D01*
X-2150000Y-18403333D01*
X-2116666Y-18436666D01*
X-2050000Y-18470000D01*
X-1916666Y-18503333D01*
X-1750000Y-18503333D01*
X-1616666Y-18470000D01*
X-1550000Y-18436666D01*
X-1516666Y-18403333D01*
X-1483333Y-18336666D01*
X-1483333Y-18270000D01*
X-1516666Y-18203333D01*
X-1550000Y-18170000D01*
X-1616666Y-18136666D01*
X-1750000Y-18103333D01*
X-1916666Y-18103333D01*
X-2050000Y-18136666D01*
X-2116666Y-18170000D01*
X-2150000Y-18203333D01*
X-2183333Y-18270000D01*
X-1683333Y-18770000D02*
X-1683333Y-19103333D01*
X-1483333Y-18703333D02*
X-2183333Y-18936666D01*
X-1483333Y-19170000D01*
X471428Y-102997619D02*
X566666Y-102950000D01*
X661904Y-102854761D01*
X804761Y-102711904D01*
X899999Y-102664285D01*
X995238Y-102664285D01*
X947619Y-102902380D02*
X1042857Y-102854761D01*
X1138095Y-102759523D01*
X1185714Y-102569047D01*
X1185714Y-102235714D01*
X1138095Y-102045238D01*
X1042857Y-101950000D01*
X947619Y-101902380D01*
X757142Y-101902380D01*
X661904Y-101950000D01*
X566666Y-102045238D01*
X519047Y-102235714D01*
X519047Y-102569047D01*
X566666Y-102759523D01*
X661904Y-102854761D01*
X757142Y-102902380D01*
X947619Y-102902380D01*
X-433333Y-102902380D02*
X138095Y-102902380D01*
X-147619Y-102902380D02*
X-147619Y-101902380D01*
X-52380Y-102045238D01*
X42857Y-102140476D01*
X138095Y-102188095D01*
X-1290476Y-101902380D02*
X-1100000Y-101902380D01*
X-1004761Y-101950000D01*
X-957142Y-101997619D01*
X-861904Y-102140476D01*
X-814285Y-102330952D01*
X-814285Y-102711904D01*
X-861904Y-102807142D01*
X-909523Y-102854761D01*
X-1004761Y-102902380D01*
X-1195238Y-102902380D01*
X-1290476Y-102854761D01*
X-1338095Y-102807142D01*
X-1385714Y-102711904D01*
X-1385714Y-102473809D01*
X-1338095Y-102378571D01*
X-1290476Y-102330952D01*
X-1195238Y-102283333D01*
X-1004761Y-102283333D01*
X-909523Y-102330952D01*
X-861904Y-102378571D01*
X-814285Y-102473809D01*
X-2233333Y-102516666D02*
X-2566666Y-102516666D01*
X-2166666Y-102716666D02*
X-2400000Y-102016666D01*
X-2633333Y-102716666D01*
X-3000000Y-102016666D02*
X-3133333Y-102016666D01*
X-3200000Y-102050000D01*
X-3266666Y-102116666D01*
X-3300000Y-102250000D01*
X-3300000Y-102483333D01*
X-3266666Y-102616666D01*
X-3200000Y-102683333D01*
X-3133333Y-102716666D01*
X-3000000Y-102716666D01*
X-2933333Y-102683333D01*
X-2866666Y-102616666D01*
X-2833333Y-102483333D01*
X-2833333Y-102250000D01*
X-2866666Y-102116666D01*
X-2933333Y-102050000D01*
X-3000000Y-102016666D01*
X-3533333Y-102016666D02*
X-3966666Y-102016666D01*
X-3733333Y-102283333D01*
X-3833333Y-102283333D01*
X-3899999Y-102316666D01*
X-3933333Y-102350000D01*
X-3966666Y-102416666D01*
X-3966666Y-102583333D01*
X-3933333Y-102650000D01*
X-3899999Y-102683333D01*
X-3833333Y-102716666D01*
X-3633333Y-102716666D01*
X-3566666Y-102683333D01*
X-3533333Y-102650000D01*
X-4566666Y-102250000D02*
X-4566666Y-102716666D01*
X-4400000Y-101983333D02*
X-4233333Y-102483333D01*
X-4666666Y-102483333D01*
X-5066666Y-102016666D02*
X-5133333Y-102016666D01*
X-5199999Y-102050000D01*
X-5233333Y-102083333D01*
X-5266666Y-102150000D01*
X-5299999Y-102283333D01*
X-5299999Y-102450000D01*
X-5266666Y-102583333D01*
X-5233333Y-102650000D01*
X-5199999Y-102683333D01*
X-5133333Y-102716666D01*
X-5066666Y-102716666D01*
X-4999999Y-102683333D01*
X-4966666Y-102650000D01*
X-4933333Y-102583333D01*
X-4899999Y-102450000D01*
X-4899999Y-102283333D01*
X-4933333Y-102150000D01*
X-4966666Y-102083333D01*
X-4999999Y-102050000D01*
X-5066666Y-102016666D01*
X-5733333Y-102016666D02*
X-5799999Y-102016666D01*
X-5866666Y-102050000D01*
X-5899999Y-102083333D01*
X-5933333Y-102150000D01*
X-5966666Y-102283333D01*
X-5966666Y-102450000D01*
X-5933333Y-102583333D01*
X-5899999Y-102650000D01*
X-5866666Y-102683333D01*
X-5799999Y-102716666D01*
X-5733333Y-102716666D01*
X-5666666Y-102683333D01*
X-5633333Y-102650000D01*
X-5599999Y-102583333D01*
X-5566666Y-102450000D01*
X-5566666Y-102283333D01*
X-5599999Y-102150000D01*
X-5633333Y-102083333D01*
X-5666666Y-102050000D01*
X-5733333Y-102016666D01*
X721428Y-110447619D02*
X816666Y-110400000D01*
X911904Y-110304761D01*
X1054761Y-110161904D01*
X1149999Y-110114285D01*
X1245238Y-110114285D01*
X1197619Y-110352380D02*
X1292857Y-110304761D01*
X1388095Y-110209523D01*
X1435714Y-110019047D01*
X1435714Y-109685714D01*
X1388095Y-109495238D01*
X1292857Y-109400000D01*
X1197619Y-109352380D01*
X1007142Y-109352380D01*
X911904Y-109400000D01*
X816666Y-109495238D01*
X769047Y-109685714D01*
X769047Y-110019047D01*
X816666Y-110209523D01*
X911904Y-110304761D01*
X1007142Y-110352380D01*
X1197619Y-110352380D01*
X-183333Y-110352380D02*
X388095Y-110352380D01*
X102380Y-110352380D02*
X102380Y-109352380D01*
X197619Y-109495238D01*
X292857Y-109590476D01*
X388095Y-109638095D01*
X-1040476Y-109685714D02*
X-1040476Y-110352380D01*
X-802380Y-109304761D02*
X-564285Y-110019047D01*
X-1183333Y-110019047D01*
X-2233333Y-112616666D02*
X-2566666Y-112616666D01*
X-2166666Y-112816666D02*
X-2400000Y-112116666D01*
X-2633333Y-112816666D01*
X-3000000Y-112116666D02*
X-3133333Y-112116666D01*
X-3200000Y-112150000D01*
X-3266666Y-112216666D01*
X-3300000Y-112350000D01*
X-3300000Y-112583333D01*
X-3266666Y-112716666D01*
X-3200000Y-112783333D01*
X-3133333Y-112816666D01*
X-3000000Y-112816666D01*
X-2933333Y-112783333D01*
X-2866666Y-112716666D01*
X-2833333Y-112583333D01*
X-2833333Y-112350000D01*
X-2866666Y-112216666D01*
X-2933333Y-112150000D01*
X-3000000Y-112116666D01*
X-3533333Y-112116666D02*
X-3966666Y-112116666D01*
X-3733333Y-112383333D01*
X-3833333Y-112383333D01*
X-3899999Y-112416666D01*
X-3933333Y-112450000D01*
X-3966666Y-112516666D01*
X-3966666Y-112683333D01*
X-3933333Y-112750000D01*
X-3899999Y-112783333D01*
X-3833333Y-112816666D01*
X-3633333Y-112816666D01*
X-3566666Y-112783333D01*
X-3533333Y-112750000D01*
X-4566666Y-112350000D02*
X-4566666Y-112816666D01*
X-4400000Y-112083333D02*
X-4233333Y-112583333D01*
X-4666666Y-112583333D01*
X-5066666Y-112116666D02*
X-5133333Y-112116666D01*
X-5199999Y-112150000D01*
X-5233333Y-112183333D01*
X-5266666Y-112250000D01*
X-5299999Y-112383333D01*
X-5299999Y-112550000D01*
X-5266666Y-112683333D01*
X-5233333Y-112750000D01*
X-5199999Y-112783333D01*
X-5133333Y-112816666D01*
X-5066666Y-112816666D01*
X-4999999Y-112783333D01*
X-4966666Y-112750000D01*
X-4933333Y-112683333D01*
X-4899999Y-112550000D01*
X-4899999Y-112383333D01*
X-4933333Y-112250000D01*
X-4966666Y-112183333D01*
X-4999999Y-112150000D01*
X-5066666Y-112116666D01*
X-5733333Y-112116666D02*
X-5799999Y-112116666D01*
X-5866666Y-112150000D01*
X-5899999Y-112183333D01*
X-5933333Y-112250000D01*
X-5966666Y-112383333D01*
X-5966666Y-112550000D01*
X-5933333Y-112683333D01*
X-5899999Y-112750000D01*
X-5866666Y-112783333D01*
X-5799999Y-112816666D01*
X-5733333Y-112816666D01*
X-5666666Y-112783333D01*
X-5633333Y-112750000D01*
X-5599999Y-112683333D01*
X-5566666Y-112550000D01*
X-5566666Y-112383333D01*
X-5599999Y-112250000D01*
X-5633333Y-112183333D01*
X-5666666Y-112150000D01*
X-5733333Y-112116666D01*
X49921428Y-100097619D02*
X50016666Y-100050000D01*
X50111904Y-99954761D01*
X50254761Y-99811904D01*
X50350000Y-99764285D01*
X50445238Y-99764285D01*
X50397619Y-100002380D02*
X50492857Y-99954761D01*
X50588095Y-99859523D01*
X50635714Y-99669047D01*
X50635714Y-99335714D01*
X50588095Y-99145238D01*
X50492857Y-99050000D01*
X50397619Y-99002380D01*
X50207142Y-99002380D01*
X50111904Y-99050000D01*
X50016666Y-99145238D01*
X49969047Y-99335714D01*
X49969047Y-99669047D01*
X50016666Y-99859523D01*
X50111904Y-99954761D01*
X50207142Y-100002380D01*
X50397619Y-100002380D01*
X49016666Y-100002380D02*
X49588095Y-100002380D01*
X49302380Y-100002380D02*
X49302380Y-99002380D01*
X49397619Y-99145238D01*
X49492857Y-99240476D01*
X49588095Y-99288095D01*
X48635714Y-99097619D02*
X48588095Y-99050000D01*
X48492857Y-99002380D01*
X48254761Y-99002380D01*
X48159523Y-99050000D01*
X48111904Y-99097619D01*
X48064285Y-99192857D01*
X48064285Y-99288095D01*
X48111904Y-99430952D01*
X48683333Y-100002380D01*
X48064285Y-100002380D01*
X46766666Y-102316666D02*
X46433333Y-102316666D01*
X46833333Y-102516666D02*
X46600000Y-101816666D01*
X46366666Y-102516666D01*
X46000000Y-101816666D02*
X45866666Y-101816666D01*
X45800000Y-101850000D01*
X45733333Y-101916666D01*
X45700000Y-102050000D01*
X45700000Y-102283333D01*
X45733333Y-102416666D01*
X45800000Y-102483333D01*
X45866666Y-102516666D01*
X46000000Y-102516666D01*
X46066666Y-102483333D01*
X46133333Y-102416666D01*
X46166666Y-102283333D01*
X46166666Y-102050000D01*
X46133333Y-101916666D01*
X46066666Y-101850000D01*
X46000000Y-101816666D01*
X45466666Y-101816666D02*
X45033333Y-101816666D01*
X45266666Y-102083333D01*
X45166666Y-102083333D01*
X45100000Y-102116666D01*
X45066666Y-102150000D01*
X45033333Y-102216666D01*
X45033333Y-102383333D01*
X45066666Y-102450000D01*
X45100000Y-102483333D01*
X45166666Y-102516666D01*
X45366666Y-102516666D01*
X45433333Y-102483333D01*
X45466666Y-102450000D01*
X44433333Y-102050000D02*
X44433333Y-102516666D01*
X44600000Y-101783333D02*
X44766666Y-102283333D01*
X44333333Y-102283333D01*
X43933333Y-101816666D02*
X43866666Y-101816666D01*
X43800000Y-101850000D01*
X43766666Y-101883333D01*
X43733333Y-101950000D01*
X43700000Y-102083333D01*
X43700000Y-102250000D01*
X43733333Y-102383333D01*
X43766666Y-102450000D01*
X43800000Y-102483333D01*
X43866666Y-102516666D01*
X43933333Y-102516666D01*
X44000000Y-102483333D01*
X44033333Y-102450000D01*
X44066666Y-102383333D01*
X44100000Y-102250000D01*
X44100000Y-102083333D01*
X44066666Y-101950000D01*
X44033333Y-101883333D01*
X44000000Y-101850000D01*
X43933333Y-101816666D01*
X43266666Y-101816666D02*
X43200000Y-101816666D01*
X43133333Y-101850000D01*
X43100000Y-101883333D01*
X43066666Y-101950000D01*
X43033333Y-102083333D01*
X43033333Y-102250000D01*
X43066666Y-102383333D01*
X43100000Y-102450000D01*
X43133333Y-102483333D01*
X43200000Y-102516666D01*
X43266666Y-102516666D01*
X43333333Y-102483333D01*
X43366666Y-102450000D01*
X43400000Y-102383333D01*
X43433333Y-102250000D01*
X43433333Y-102083333D01*
X43400000Y-101950000D01*
X43366666Y-101883333D01*
X43333333Y-101850000D01*
X43266666Y-101816666D01*
X49971428Y-110647619D02*
X50066666Y-110600000D01*
X50161904Y-110504761D01*
X50304761Y-110361904D01*
X50400000Y-110314285D01*
X50495238Y-110314285D01*
X50447619Y-110552380D02*
X50542857Y-110504761D01*
X50638095Y-110409523D01*
X50685714Y-110219047D01*
X50685714Y-109885714D01*
X50638095Y-109695238D01*
X50542857Y-109600000D01*
X50447619Y-109552380D01*
X50257142Y-109552380D01*
X50161904Y-109600000D01*
X50066666Y-109695238D01*
X50019047Y-109885714D01*
X50019047Y-110219047D01*
X50066666Y-110409523D01*
X50161904Y-110504761D01*
X50257142Y-110552380D01*
X50447619Y-110552380D01*
X49066666Y-110552380D02*
X49638095Y-110552380D01*
X49352380Y-110552380D02*
X49352380Y-109552380D01*
X49447619Y-109695238D01*
X49542857Y-109790476D01*
X49638095Y-109838095D01*
X48447619Y-109552380D02*
X48352380Y-109552380D01*
X48257142Y-109600000D01*
X48209523Y-109647619D01*
X48161904Y-109742857D01*
X48114285Y-109933333D01*
X48114285Y-110171428D01*
X48161904Y-110361904D01*
X48209523Y-110457142D01*
X48257142Y-110504761D01*
X48352380Y-110552380D01*
X48447619Y-110552380D01*
X48542857Y-110504761D01*
X48590476Y-110457142D01*
X48638095Y-110361904D01*
X48685714Y-110171428D01*
X48685714Y-109933333D01*
X48638095Y-109742857D01*
X48590476Y-109647619D01*
X48542857Y-109600000D01*
X48447619Y-109552380D01*
X46766666Y-112716666D02*
X46433333Y-112716666D01*
X46833333Y-112916666D02*
X46600000Y-112216666D01*
X46366666Y-112916666D01*
X46000000Y-112216666D02*
X45866666Y-112216666D01*
X45800000Y-112250000D01*
X45733333Y-112316666D01*
X45700000Y-112450000D01*
X45700000Y-112683333D01*
X45733333Y-112816666D01*
X45800000Y-112883333D01*
X45866666Y-112916666D01*
X46000000Y-112916666D01*
X46066666Y-112883333D01*
X46133333Y-112816666D01*
X46166666Y-112683333D01*
X46166666Y-112450000D01*
X46133333Y-112316666D01*
X46066666Y-112250000D01*
X46000000Y-112216666D01*
X45466666Y-112216666D02*
X45033333Y-112216666D01*
X45266666Y-112483333D01*
X45166666Y-112483333D01*
X45100000Y-112516666D01*
X45066666Y-112550000D01*
X45033333Y-112616666D01*
X45033333Y-112783333D01*
X45066666Y-112850000D01*
X45100000Y-112883333D01*
X45166666Y-112916666D01*
X45366666Y-112916666D01*
X45433333Y-112883333D01*
X45466666Y-112850000D01*
X44433333Y-112450000D02*
X44433333Y-112916666D01*
X44600000Y-112183333D02*
X44766666Y-112683333D01*
X44333333Y-112683333D01*
X43933333Y-112216666D02*
X43866666Y-112216666D01*
X43800000Y-112250000D01*
X43766666Y-112283333D01*
X43733333Y-112350000D01*
X43700000Y-112483333D01*
X43700000Y-112650000D01*
X43733333Y-112783333D01*
X43766666Y-112850000D01*
X43800000Y-112883333D01*
X43866666Y-112916666D01*
X43933333Y-112916666D01*
X44000000Y-112883333D01*
X44033333Y-112850000D01*
X44066666Y-112783333D01*
X44100000Y-112650000D01*
X44100000Y-112483333D01*
X44066666Y-112350000D01*
X44033333Y-112283333D01*
X44000000Y-112250000D01*
X43933333Y-112216666D01*
X43266666Y-112216666D02*
X43200000Y-112216666D01*
X43133333Y-112250000D01*
X43100000Y-112283333D01*
X43066666Y-112350000D01*
X43033333Y-112483333D01*
X43033333Y-112650000D01*
X43066666Y-112783333D01*
X43100000Y-112850000D01*
X43133333Y-112883333D01*
X43200000Y-112916666D01*
X43266666Y-112916666D01*
X43333333Y-112883333D01*
X43366666Y-112850000D01*
X43400000Y-112783333D01*
X43433333Y-112650000D01*
X43433333Y-112483333D01*
X43400000Y-112350000D01*
X43366666Y-112283333D01*
X43333333Y-112250000D01*
X43266666Y-112216666D01*
X-104761Y-89647619D02*
X-9523Y-89600000D01*
X85714Y-89504761D01*
X228571Y-89361904D01*
X323809Y-89314285D01*
X419047Y-89314285D01*
X371428Y-89552380D02*
X466666Y-89504761D01*
X561904Y-89409523D01*
X609523Y-89219047D01*
X609523Y-88885714D01*
X561904Y-88695238D01*
X466666Y-88600000D01*
X371428Y-88552380D01*
X180952Y-88552380D01*
X85714Y-88600000D01*
X-9523Y-88695238D01*
X-57142Y-88885714D01*
X-57142Y-89219047D01*
X-9523Y-89409523D01*
X85714Y-89504761D01*
X180952Y-89552380D01*
X371428Y-89552380D01*
X-628571Y-88980952D02*
X-533333Y-88933333D01*
X-485714Y-88885714D01*
X-438095Y-88790476D01*
X-438095Y-88742857D01*
X-485714Y-88647619D01*
X-533333Y-88600000D01*
X-628571Y-88552380D01*
X-819047Y-88552380D01*
X-914285Y-88600000D01*
X-961904Y-88647619D01*
X-1009523Y-88742857D01*
X-1009523Y-88790476D01*
X-961904Y-88885714D01*
X-914285Y-88933333D01*
X-819047Y-88980952D01*
X-628571Y-88980952D01*
X-533333Y-89028571D01*
X-485714Y-89076190D01*
X-438095Y-89171428D01*
X-438095Y-89361904D01*
X-485714Y-89457142D01*
X-533333Y-89504761D01*
X-628571Y-89552380D01*
X-819047Y-89552380D01*
X-914285Y-89504761D01*
X-961904Y-89457142D01*
X-1009523Y-89361904D01*
X-1009523Y-89171428D01*
X-961904Y-89076190D01*
X-914285Y-89028571D01*
X-819047Y-88980952D01*
X-2233333Y-92416666D02*
X-2566666Y-92416666D01*
X-2166666Y-92616666D02*
X-2400000Y-91916666D01*
X-2633333Y-92616666D01*
X-3000000Y-91916666D02*
X-3133333Y-91916666D01*
X-3200000Y-91950000D01*
X-3266666Y-92016666D01*
X-3300000Y-92150000D01*
X-3300000Y-92383333D01*
X-3266666Y-92516666D01*
X-3200000Y-92583333D01*
X-3133333Y-92616666D01*
X-3000000Y-92616666D01*
X-2933333Y-92583333D01*
X-2866666Y-92516666D01*
X-2833333Y-92383333D01*
X-2833333Y-92150000D01*
X-2866666Y-92016666D01*
X-2933333Y-91950000D01*
X-3000000Y-91916666D01*
X-3533333Y-91916666D02*
X-3966666Y-91916666D01*
X-3733333Y-92183333D01*
X-3833333Y-92183333D01*
X-3899999Y-92216666D01*
X-3933333Y-92250000D01*
X-3966666Y-92316666D01*
X-3966666Y-92483333D01*
X-3933333Y-92550000D01*
X-3899999Y-92583333D01*
X-3833333Y-92616666D01*
X-3633333Y-92616666D01*
X-3566666Y-92583333D01*
X-3533333Y-92550000D01*
X-4566666Y-92150000D02*
X-4566666Y-92616666D01*
X-4400000Y-91883333D02*
X-4233333Y-92383333D01*
X-4666666Y-92383333D01*
X-5066666Y-91916666D02*
X-5133333Y-91916666D01*
X-5199999Y-91950000D01*
X-5233333Y-91983333D01*
X-5266666Y-92050000D01*
X-5299999Y-92183333D01*
X-5299999Y-92350000D01*
X-5266666Y-92483333D01*
X-5233333Y-92550000D01*
X-5199999Y-92583333D01*
X-5133333Y-92616666D01*
X-5066666Y-92616666D01*
X-4999999Y-92583333D01*
X-4966666Y-92550000D01*
X-4933333Y-92483333D01*
X-4899999Y-92350000D01*
X-4899999Y-92183333D01*
X-4933333Y-92050000D01*
X-4966666Y-91983333D01*
X-4999999Y-91950000D01*
X-5066666Y-91916666D01*
X-5733333Y-91916666D02*
X-5799999Y-91916666D01*
X-5866666Y-91950000D01*
X-5899999Y-91983333D01*
X-5933333Y-92050000D01*
X-5966666Y-92183333D01*
X-5966666Y-92350000D01*
X-5933333Y-92483333D01*
X-5899999Y-92550000D01*
X-5866666Y-92583333D01*
X-5799999Y-92616666D01*
X-5733333Y-92616666D01*
X-5666666Y-92583333D01*
X-5633333Y-92550000D01*
X-5599999Y-92483333D01*
X-5566666Y-92350000D01*
X-5566666Y-92183333D01*
X-5599999Y-92050000D01*
X-5633333Y-91983333D01*
X-5666666Y-91950000D01*
X-5733333Y-91916666D01*
X45238Y-80247619D02*
X140476Y-80200000D01*
X235714Y-80104761D01*
X378571Y-79961904D01*
X473809Y-79914285D01*
X569047Y-79914285D01*
X521428Y-80152380D02*
X616666Y-80104761D01*
X711904Y-80009523D01*
X759523Y-79819047D01*
X759523Y-79485714D01*
X711904Y-79295238D01*
X616666Y-79200000D01*
X521428Y-79152380D01*
X330952Y-79152380D01*
X235714Y-79200000D01*
X140476Y-79295238D01*
X92857Y-79485714D01*
X92857Y-79819047D01*
X140476Y-80009523D01*
X235714Y-80104761D01*
X330952Y-80152380D01*
X521428Y-80152380D01*
X-764285Y-79152380D02*
X-573809Y-79152380D01*
X-478571Y-79200000D01*
X-430952Y-79247619D01*
X-335714Y-79390476D01*
X-288095Y-79580952D01*
X-288095Y-79961904D01*
X-335714Y-80057142D01*
X-383333Y-80104761D01*
X-478571Y-80152380D01*
X-669047Y-80152380D01*
X-764285Y-80104761D01*
X-811904Y-80057142D01*
X-859523Y-79961904D01*
X-859523Y-79723809D01*
X-811904Y-79628571D01*
X-764285Y-79580952D01*
X-669047Y-79533333D01*
X-478571Y-79533333D01*
X-383333Y-79580952D01*
X-335714Y-79628571D01*
X-288095Y-79723809D01*
X-2157233Y-82285466D02*
X-2490566Y-82285466D01*
X-2090566Y-82485466D02*
X-2323900Y-81785466D01*
X-2557233Y-82485466D01*
X-2923900Y-81785466D02*
X-3057233Y-81785466D01*
X-3123900Y-81818800D01*
X-3190566Y-81885466D01*
X-3223900Y-82018800D01*
X-3223900Y-82252133D01*
X-3190566Y-82385466D01*
X-3123900Y-82452133D01*
X-3057233Y-82485466D01*
X-2923900Y-82485466D01*
X-2857233Y-82452133D01*
X-2790566Y-82385466D01*
X-2757233Y-82252133D01*
X-2757233Y-82018800D01*
X-2790566Y-81885466D01*
X-2857233Y-81818800D01*
X-2923900Y-81785466D01*
X-3457233Y-81785466D02*
X-3890566Y-81785466D01*
X-3657233Y-82052133D01*
X-3757233Y-82052133D01*
X-3823899Y-82085466D01*
X-3857233Y-82118800D01*
X-3890566Y-82185466D01*
X-3890566Y-82352133D01*
X-3857233Y-82418800D01*
X-3823899Y-82452133D01*
X-3757233Y-82485466D01*
X-3557233Y-82485466D01*
X-3490566Y-82452133D01*
X-3457233Y-82418800D01*
X-4490566Y-82018800D02*
X-4490566Y-82485466D01*
X-4323900Y-81752133D02*
X-4157233Y-82252133D01*
X-4590566Y-82252133D01*
X-4990566Y-81785466D02*
X-5057233Y-81785466D01*
X-5123899Y-81818800D01*
X-5157233Y-81852133D01*
X-5190566Y-81918800D01*
X-5223899Y-82052133D01*
X-5223899Y-82218800D01*
X-5190566Y-82352133D01*
X-5157233Y-82418800D01*
X-5123899Y-82452133D01*
X-5057233Y-82485466D01*
X-4990566Y-82485466D01*
X-4923899Y-82452133D01*
X-4890566Y-82418800D01*
X-4857233Y-82352133D01*
X-4823899Y-82218800D01*
X-4823899Y-82052133D01*
X-4857233Y-81918800D01*
X-4890566Y-81852133D01*
X-4923899Y-81818800D01*
X-4990566Y-81785466D01*
X-5657233Y-81785466D02*
X-5723899Y-81785466D01*
X-5790566Y-81818800D01*
X-5823899Y-81852133D01*
X-5857233Y-81918800D01*
X-5890566Y-82052133D01*
X-5890566Y-82218800D01*
X-5857233Y-82352133D01*
X-5823899Y-82418800D01*
X-5790566Y-82452133D01*
X-5723899Y-82485466D01*
X-5657233Y-82485466D01*
X-5590566Y-82452133D01*
X-5557233Y-82418800D01*
X-5523899Y-82352133D01*
X-5490566Y-82218800D01*
X-5490566Y-82052133D01*
X-5523899Y-81918800D01*
X-5557233Y-81852133D01*
X-5590566Y-81818800D01*
X-5657233Y-81785466D01*
X49045238Y-89797619D02*
X49140476Y-89750000D01*
X49235714Y-89654761D01*
X49378571Y-89511904D01*
X49473809Y-89464285D01*
X49569047Y-89464285D01*
X49521428Y-89702380D02*
X49616666Y-89654761D01*
X49711904Y-89559523D01*
X49759523Y-89369047D01*
X49759523Y-89035714D01*
X49711904Y-88845238D01*
X49616666Y-88750000D01*
X49521428Y-88702380D01*
X49330952Y-88702380D01*
X49235714Y-88750000D01*
X49140476Y-88845238D01*
X49092857Y-89035714D01*
X49092857Y-89369047D01*
X49140476Y-89559523D01*
X49235714Y-89654761D01*
X49330952Y-89702380D01*
X49521428Y-89702380D01*
X48235714Y-89035714D02*
X48235714Y-89702380D01*
X48473809Y-88654761D02*
X48711904Y-89369047D01*
X48092857Y-89369047D01*
X46766666Y-92016666D02*
X46433333Y-92016666D01*
X46833333Y-92216666D02*
X46600000Y-91516666D01*
X46366666Y-92216666D01*
X46000000Y-91516666D02*
X45866666Y-91516666D01*
X45800000Y-91550000D01*
X45733333Y-91616666D01*
X45700000Y-91750000D01*
X45700000Y-91983333D01*
X45733333Y-92116666D01*
X45800000Y-92183333D01*
X45866666Y-92216666D01*
X46000000Y-92216666D01*
X46066666Y-92183333D01*
X46133333Y-92116666D01*
X46166666Y-91983333D01*
X46166666Y-91750000D01*
X46133333Y-91616666D01*
X46066666Y-91550000D01*
X46000000Y-91516666D01*
X45466666Y-91516666D02*
X45033333Y-91516666D01*
X45266666Y-91783333D01*
X45166666Y-91783333D01*
X45100000Y-91816666D01*
X45066666Y-91850000D01*
X45033333Y-91916666D01*
X45033333Y-92083333D01*
X45066666Y-92150000D01*
X45100000Y-92183333D01*
X45166666Y-92216666D01*
X45366666Y-92216666D01*
X45433333Y-92183333D01*
X45466666Y-92150000D01*
X44433333Y-91750000D02*
X44433333Y-92216666D01*
X44600000Y-91483333D02*
X44766666Y-91983333D01*
X44333333Y-91983333D01*
X43933333Y-91516666D02*
X43866666Y-91516666D01*
X43800000Y-91550000D01*
X43766666Y-91583333D01*
X43733333Y-91650000D01*
X43700000Y-91783333D01*
X43700000Y-91950000D01*
X43733333Y-92083333D01*
X43766666Y-92150000D01*
X43800000Y-92183333D01*
X43866666Y-92216666D01*
X43933333Y-92216666D01*
X44000000Y-92183333D01*
X44033333Y-92150000D01*
X44066666Y-92083333D01*
X44100000Y-91950000D01*
X44100000Y-91783333D01*
X44066666Y-91650000D01*
X44033333Y-91583333D01*
X44000000Y-91550000D01*
X43933333Y-91516666D01*
X43266666Y-91516666D02*
X43200000Y-91516666D01*
X43133333Y-91550000D01*
X43100000Y-91583333D01*
X43066666Y-91650000D01*
X43033333Y-91783333D01*
X43033333Y-91950000D01*
X43066666Y-92083333D01*
X43100000Y-92150000D01*
X43133333Y-92183333D01*
X43200000Y-92216666D01*
X43266666Y-92216666D01*
X43333333Y-92183333D01*
X43366666Y-92150000D01*
X43400000Y-92083333D01*
X43433333Y-91950000D01*
X43433333Y-91783333D01*
X43400000Y-91650000D01*
X43366666Y-91583333D01*
X43333333Y-91550000D01*
X43266666Y-91516666D01*
X49045238Y-80047619D02*
X49140476Y-80000000D01*
X49235714Y-79904761D01*
X49378571Y-79761904D01*
X49473809Y-79714285D01*
X49569047Y-79714285D01*
X49521428Y-79952380D02*
X49616666Y-79904761D01*
X49711904Y-79809523D01*
X49759523Y-79619047D01*
X49759523Y-79285714D01*
X49711904Y-79095238D01*
X49616666Y-79000000D01*
X49521428Y-78952380D01*
X49330952Y-78952380D01*
X49235714Y-79000000D01*
X49140476Y-79095238D01*
X49092857Y-79285714D01*
X49092857Y-79619047D01*
X49140476Y-79809523D01*
X49235714Y-79904761D01*
X49330952Y-79952380D01*
X49521428Y-79952380D01*
X48711904Y-79047619D02*
X48664285Y-79000000D01*
X48569047Y-78952380D01*
X48330952Y-78952380D01*
X48235714Y-79000000D01*
X48188095Y-79047619D01*
X48140476Y-79142857D01*
X48140476Y-79238095D01*
X48188095Y-79380952D01*
X48759523Y-79952380D01*
X48140476Y-79952380D01*
X46766666Y-82166666D02*
X46433333Y-82166666D01*
X46833333Y-82366666D02*
X46600000Y-81666666D01*
X46366666Y-82366666D01*
X46000000Y-81666666D02*
X45866666Y-81666666D01*
X45800000Y-81700000D01*
X45733333Y-81766666D01*
X45700000Y-81900000D01*
X45700000Y-82133333D01*
X45733333Y-82266666D01*
X45800000Y-82333333D01*
X45866666Y-82366666D01*
X46000000Y-82366666D01*
X46066666Y-82333333D01*
X46133333Y-82266666D01*
X46166666Y-82133333D01*
X46166666Y-81900000D01*
X46133333Y-81766666D01*
X46066666Y-81700000D01*
X46000000Y-81666666D01*
X45466666Y-81666666D02*
X45033333Y-81666666D01*
X45266666Y-81933333D01*
X45166666Y-81933333D01*
X45100000Y-81966666D01*
X45066666Y-82000000D01*
X45033333Y-82066666D01*
X45033333Y-82233333D01*
X45066666Y-82300000D01*
X45100000Y-82333333D01*
X45166666Y-82366666D01*
X45366666Y-82366666D01*
X45433333Y-82333333D01*
X45466666Y-82300000D01*
X44433333Y-81900000D02*
X44433333Y-82366666D01*
X44600000Y-81633333D02*
X44766666Y-82133333D01*
X44333333Y-82133333D01*
X43933333Y-81666666D02*
X43866666Y-81666666D01*
X43800000Y-81700000D01*
X43766666Y-81733333D01*
X43733333Y-81800000D01*
X43700000Y-81933333D01*
X43700000Y-82100000D01*
X43733333Y-82233333D01*
X43766666Y-82300000D01*
X43800000Y-82333333D01*
X43866666Y-82366666D01*
X43933333Y-82366666D01*
X44000000Y-82333333D01*
X44033333Y-82300000D01*
X44066666Y-82233333D01*
X44100000Y-82100000D01*
X44100000Y-81933333D01*
X44066666Y-81800000D01*
X44033333Y-81733333D01*
X44000000Y-81700000D01*
X43933333Y-81666666D01*
X43266666Y-81666666D02*
X43200000Y-81666666D01*
X43133333Y-81700000D01*
X43100000Y-81733333D01*
X43066666Y-81800000D01*
X43033333Y-81933333D01*
X43033333Y-82100000D01*
X43066666Y-82233333D01*
X43100000Y-82300000D01*
X43133333Y-82333333D01*
X43200000Y-82366666D01*
X43266666Y-82366666D01*
X43333333Y-82333333D01*
X43366666Y-82300000D01*
X43400000Y-82233333D01*
X43433333Y-82100000D01*
X43433333Y-81933333D01*
X43400000Y-81800000D01*
X43366666Y-81733333D01*
X43333333Y-81700000D01*
X43266666Y-81666666D01*
X-9471428Y-139339047D02*
X-9423809Y-139481904D01*
X-9376190Y-139529523D01*
X-9280952Y-139577142D01*
X-9138095Y-139577142D01*
X-9042857Y-139529523D01*
X-8995238Y-139481904D01*
X-8947619Y-139386666D01*
X-8947619Y-139005714D01*
X-9947619Y-139005714D01*
X-9947619Y-139339047D01*
X-9900000Y-139434285D01*
X-9852380Y-139481904D01*
X-9757142Y-139529523D01*
X-9661904Y-139529523D01*
X-9566666Y-139481904D01*
X-9519047Y-139434285D01*
X-9471428Y-139339047D01*
X-9471428Y-139005714D01*
X-9947619Y-139910476D02*
X-9947619Y-140577142D01*
X-8947619Y-139910476D01*
X-8947619Y-140577142D01*
X-8947619Y-141481904D02*
X-8947619Y-140910476D01*
X-8947619Y-141196190D02*
X-9947619Y-141196190D01*
X-9804761Y-141100952D01*
X-9709523Y-141005714D01*
X-9661904Y-140910476D01*
X-7780000Y-142540000D02*
X-7746666Y-142640000D01*
X-7713333Y-142673333D01*
X-7646666Y-142706666D01*
X-7546666Y-142706666D01*
X-7480000Y-142673333D01*
X-7446666Y-142640000D01*
X-7413333Y-142573333D01*
X-7413333Y-142306666D01*
X-8113333Y-142306666D01*
X-8113333Y-142540000D01*
X-8080000Y-142606666D01*
X-8046666Y-142640000D01*
X-7980000Y-142673333D01*
X-7913333Y-142673333D01*
X-7846666Y-142640000D01*
X-7813333Y-142606666D01*
X-7780000Y-142540000D01*
X-7780000Y-142306666D01*
X-7880000Y-143306666D02*
X-7413333Y-143306666D01*
X-7880000Y-143006666D02*
X-7513333Y-143006666D01*
X-7446666Y-143040000D01*
X-7413333Y-143106666D01*
X-7413333Y-143206666D01*
X-7446666Y-143273333D01*
X-7480000Y-143306666D01*
X-7880000Y-143573333D02*
X-7880000Y-143940000D01*
X-7413333Y-143573333D01*
X-7413333Y-143940000D01*
X-7880000Y-144140000D02*
X-7880000Y-144506666D01*
X-7413333Y-144140000D01*
X-7413333Y-144506666D01*
X-7446666Y-145040000D02*
X-7413333Y-144973333D01*
X-7413333Y-144840000D01*
X-7446666Y-144773333D01*
X-7513333Y-144740000D01*
X-7780000Y-144740000D01*
X-7846666Y-144773333D01*
X-7880000Y-144840000D01*
X-7880000Y-144973333D01*
X-7846666Y-145040000D01*
X-7780000Y-145073333D01*
X-7713333Y-145073333D01*
X-7646666Y-144740000D01*
X-7413333Y-145373333D02*
X-7880000Y-145373333D01*
X-7746666Y-145373333D02*
X-7813333Y-145406666D01*
X-7846666Y-145440000D01*
X-7880000Y-145506666D01*
X-7880000Y-145573333D01*
%LPC*%
D14*
X79500000Y-26700000D03*
D15*
X77600000Y-26700000D03*
D16*
X79300000Y-71200000D03*
D17*
X79300000Y800000D03*
D18*
X79300000Y-7845000D03*
X79300000Y-63455000D03*
D19*
X-8320000Y-79600000D03*
D20*
X37400000Y-79600000D03*
D19*
X40480000Y-110000000D03*
D20*
X86200000Y-110000000D03*
D16*
X58200000Y-190400000D03*
D17*
X58200000Y-118400000D03*
D18*
X58200000Y-127045000D03*
X58200000Y-182655000D03*
X37100000Y-63455000D03*
X37100000Y-7845000D03*
D17*
X37100000Y800000D03*
D16*
X37100000Y-71200000D03*
D18*
X16000000Y-63455000D03*
X16000000Y-7845000D03*
D17*
X16000000Y800000D03*
D16*
X16000000Y-71200000D03*
D21*
X-9860000Y-35542000D03*
D22*
X-9860000Y-33002000D03*
D14*
X58533332Y-146800000D03*
D15*
X56633332Y-146800000D03*
D14*
X79300000Y-146700000D03*
D15*
X77400000Y-146700000D03*
D14*
X37766666Y-146900000D03*
D15*
X35866666Y-146900000D03*
D14*
X17000000Y-146700000D03*
D15*
X15100000Y-146700000D03*
D14*
X58666666Y-26700000D03*
D15*
X56766666Y-26700000D03*
D14*
X37833333Y-26700000D03*
D15*
X35933333Y-26700000D03*
D14*
X17000000Y-26700000D03*
D15*
X15100000Y-26700000D03*
D19*
X40480000Y-99866666D03*
D20*
X86200000Y-99866666D03*
D19*
X-8320000Y-110000000D03*
D20*
X37400000Y-110000000D03*
D19*
X-8320000Y-99866666D03*
D20*
X37400000Y-99866666D03*
D19*
X40480000Y-89733333D03*
D20*
X86200000Y-89733333D03*
D19*
X40480000Y-79600000D03*
D20*
X86200000Y-79600000D03*
D19*
X-8320000Y-89733333D03*
D20*
X37400000Y-89733333D03*
D16*
X16000000Y-190400000D03*
D17*
X16000000Y-118400000D03*
D18*
X16000000Y-127045000D03*
X16000000Y-182655000D03*
D16*
X37100000Y-190400000D03*
D17*
X37100000Y-118400000D03*
D18*
X37100000Y-127045000D03*
X37100000Y-182655000D03*
D16*
X79300000Y-190400000D03*
D17*
X79300000Y-118400000D03*
D18*
X79300000Y-127045000D03*
X79300000Y-182655000D03*
X58200000Y-63455000D03*
X58200000Y-7845000D03*
D17*
X58200000Y800000D03*
D16*
X58200000Y-71200000D03*
G36*
G01*
X24650000Y-101395000D02*
X24650000Y-101095000D01*
G75*
G02*
X24800000Y-100945000I150000J0D01*
G01*
X26100000Y-100945000D01*
G75*
G02*
X26250000Y-101095000I0J-150000D01*
G01*
X26250000Y-101395000D01*
G75*
G02*
X26100000Y-101545000I-150000J0D01*
G01*
X24800000Y-101545000D01*
G75*
G02*
X24650000Y-101395000I0J150000D01*
G01*
G37*
G36*
G01*
X24650000Y-100125000D02*
X24650000Y-99825000D01*
G75*
G02*
X24800000Y-99675000I150000J0D01*
G01*
X26100000Y-99675000D01*
G75*
G02*
X26250000Y-99825000I0J-150000D01*
G01*
X26250000Y-100125000D01*
G75*
G02*
X26100000Y-100275000I-150000J0D01*
G01*
X24800000Y-100275000D01*
G75*
G02*
X24650000Y-100125000I0J150000D01*
G01*
G37*
G36*
G01*
X24650000Y-98855000D02*
X24650000Y-98555000D01*
G75*
G02*
X24800000Y-98405000I150000J0D01*
G01*
X26100000Y-98405000D01*
G75*
G02*
X26250000Y-98555000I0J-150000D01*
G01*
X26250000Y-98855000D01*
G75*
G02*
X26100000Y-99005000I-150000J0D01*
G01*
X24800000Y-99005000D01*
G75*
G02*
X24650000Y-98855000I0J150000D01*
G01*
G37*
G36*
G01*
X24650000Y-97585000D02*
X24650000Y-97285000D01*
G75*
G02*
X24800000Y-97135000I150000J0D01*
G01*
X26100000Y-97135000D01*
G75*
G02*
X26250000Y-97285000I0J-150000D01*
G01*
X26250000Y-97585000D01*
G75*
G02*
X26100000Y-97735000I-150000J0D01*
G01*
X24800000Y-97735000D01*
G75*
G02*
X24650000Y-97585000I0J150000D01*
G01*
G37*
G36*
G01*
X24650000Y-96315000D02*
X24650000Y-96015000D01*
G75*
G02*
X24800000Y-95865000I150000J0D01*
G01*
X26100000Y-95865000D01*
G75*
G02*
X26250000Y-96015000I0J-150000D01*
G01*
X26250000Y-96315000D01*
G75*
G02*
X26100000Y-96465000I-150000J0D01*
G01*
X24800000Y-96465000D01*
G75*
G02*
X24650000Y-96315000I0J150000D01*
G01*
G37*
G36*
G01*
X24650000Y-95045000D02*
X24650000Y-94745000D01*
G75*
G02*
X24800000Y-94595000I150000J0D01*
G01*
X26100000Y-94595000D01*
G75*
G02*
X26250000Y-94745000I0J-150000D01*
G01*
X26250000Y-95045000D01*
G75*
G02*
X26100000Y-95195000I-150000J0D01*
G01*
X24800000Y-95195000D01*
G75*
G02*
X24650000Y-95045000I0J150000D01*
G01*
G37*
G36*
G01*
X24650000Y-93775000D02*
X24650000Y-93475000D01*
G75*
G02*
X24800000Y-93325000I150000J0D01*
G01*
X26100000Y-93325000D01*
G75*
G02*
X26250000Y-93475000I0J-150000D01*
G01*
X26250000Y-93775000D01*
G75*
G02*
X26100000Y-93925000I-150000J0D01*
G01*
X24800000Y-93925000D01*
G75*
G02*
X24650000Y-93775000I0J150000D01*
G01*
G37*
G36*
G01*
X24650000Y-92505000D02*
X24650000Y-92205000D01*
G75*
G02*
X24800000Y-92055000I150000J0D01*
G01*
X26100000Y-92055000D01*
G75*
G02*
X26250000Y-92205000I0J-150000D01*
G01*
X26250000Y-92505000D01*
G75*
G02*
X26100000Y-92655000I-150000J0D01*
G01*
X24800000Y-92655000D01*
G75*
G02*
X24650000Y-92505000I0J150000D01*
G01*
G37*
G36*
G01*
X18150000Y-92505000D02*
X18150000Y-92205000D01*
G75*
G02*
X18300000Y-92055000I150000J0D01*
G01*
X19600000Y-92055000D01*
G75*
G02*
X19750000Y-92205000I0J-150000D01*
G01*
X19750000Y-92505000D01*
G75*
G02*
X19600000Y-92655000I-150000J0D01*
G01*
X18300000Y-92655000D01*
G75*
G02*
X18150000Y-92505000I0J150000D01*
G01*
G37*
G36*
G01*
X18150000Y-93775000D02*
X18150000Y-93475000D01*
G75*
G02*
X18300000Y-93325000I150000J0D01*
G01*
X19600000Y-93325000D01*
G75*
G02*
X19750000Y-93475000I0J-150000D01*
G01*
X19750000Y-93775000D01*
G75*
G02*
X19600000Y-93925000I-150000J0D01*
G01*
X18300000Y-93925000D01*
G75*
G02*
X18150000Y-93775000I0J150000D01*
G01*
G37*
G36*
G01*
X18150000Y-95045000D02*
X18150000Y-94745000D01*
G75*
G02*
X18300000Y-94595000I150000J0D01*
G01*
X19600000Y-94595000D01*
G75*
G02*
X19750000Y-94745000I0J-150000D01*
G01*
X19750000Y-95045000D01*
G75*
G02*
X19600000Y-95195000I-150000J0D01*
G01*
X18300000Y-95195000D01*
G75*
G02*
X18150000Y-95045000I0J150000D01*
G01*
G37*
G36*
G01*
X18150000Y-96315000D02*
X18150000Y-96015000D01*
G75*
G02*
X18300000Y-95865000I150000J0D01*
G01*
X19600000Y-95865000D01*
G75*
G02*
X19750000Y-96015000I0J-150000D01*
G01*
X19750000Y-96315000D01*
G75*
G02*
X19600000Y-96465000I-150000J0D01*
G01*
X18300000Y-96465000D01*
G75*
G02*
X18150000Y-96315000I0J150000D01*
G01*
G37*
G36*
G01*
X18150000Y-97585000D02*
X18150000Y-97285000D01*
G75*
G02*
X18300000Y-97135000I150000J0D01*
G01*
X19600000Y-97135000D01*
G75*
G02*
X19750000Y-97285000I0J-150000D01*
G01*
X19750000Y-97585000D01*
G75*
G02*
X19600000Y-97735000I-150000J0D01*
G01*
X18300000Y-97735000D01*
G75*
G02*
X18150000Y-97585000I0J150000D01*
G01*
G37*
G36*
G01*
X18150000Y-98855000D02*
X18150000Y-98555000D01*
G75*
G02*
X18300000Y-98405000I150000J0D01*
G01*
X19600000Y-98405000D01*
G75*
G02*
X19750000Y-98555000I0J-150000D01*
G01*
X19750000Y-98855000D01*
G75*
G02*
X19600000Y-99005000I-150000J0D01*
G01*
X18300000Y-99005000D01*
G75*
G02*
X18150000Y-98855000I0J150000D01*
G01*
G37*
G36*
G01*
X18150000Y-100125000D02*
X18150000Y-99825000D01*
G75*
G02*
X18300000Y-99675000I150000J0D01*
G01*
X19600000Y-99675000D01*
G75*
G02*
X19750000Y-99825000I0J-150000D01*
G01*
X19750000Y-100125000D01*
G75*
G02*
X19600000Y-100275000I-150000J0D01*
G01*
X18300000Y-100275000D01*
G75*
G02*
X18150000Y-100125000I0J150000D01*
G01*
G37*
G36*
G01*
X18150000Y-101395000D02*
X18150000Y-101095000D01*
G75*
G02*
X18300000Y-100945000I150000J0D01*
G01*
X19600000Y-100945000D01*
G75*
G02*
X19750000Y-101095000I0J-150000D01*
G01*
X19750000Y-101395000D01*
G75*
G02*
X19600000Y-101545000I-150000J0D01*
G01*
X18300000Y-101545000D01*
G75*
G02*
X18150000Y-101395000I0J150000D01*
G01*
G37*
D23*
X-10820000Y-155430000D03*
X-10820000Y-157970000D03*
X-10820000Y-160510000D03*
X-10820000Y-163050000D03*
X-10820000Y-165590000D03*
X-10820000Y-168130000D03*
X-10820000Y-170670000D03*
X-10820000Y-173210000D03*
X-10820000Y-175750000D03*
X-10820000Y-178290000D03*
X-10820000Y-180830000D03*
X-10820000Y-183370000D03*
X-10820000Y-185910000D03*
X-10820000Y-188450000D03*
X-10820000Y-190990000D03*
X4420000Y-190990000D03*
X4420000Y-188450000D03*
X4420000Y-185910000D03*
X4420000Y-183370000D03*
X4420000Y-180830000D03*
X4420000Y-178290000D03*
X4420000Y-175750000D03*
X4420000Y-173210000D03*
X4420000Y-170670000D03*
X4420000Y-168130000D03*
X4420000Y-165590000D03*
X4420000Y-163050000D03*
X4420000Y-160510000D03*
X4420000Y-157970000D03*
D24*
X4420000Y-155430000D03*
D25*
X4420000Y-152890000D03*
X-10820000Y-152890000D03*
X4420000Y-193530000D03*
X-10820000Y-193530000D03*
D22*
X14902000Y-92196000D03*
X14902000Y-97276000D03*
X14902000Y-99816000D03*
D21*
X14902000Y-104896000D03*
D22*
X14902000Y-89656000D03*
X14902000Y-87116000D03*
X14902000Y-102356000D03*
X14902000Y-94736000D03*
X14902000Y-84576000D03*
X78420000Y-92160000D03*
X78420000Y-97240000D03*
X78420000Y-89620000D03*
D21*
X78420000Y-99780000D03*
D22*
X78420000Y-94700000D03*
X3800000Y-68260000D03*
X3800000Y-65720000D03*
X3800000Y-63180000D03*
X3800000Y-60640000D03*
X3800000Y-58100000D03*
X3800000Y-55560000D03*
X3800000Y-53020000D03*
X3800000Y-50480000D03*
X3800000Y-47940000D03*
D21*
X3800000Y-45400000D03*
G36*
G01*
X18190001Y-103720000D02*
X17289999Y-103720000D01*
G75*
G02*
X17040000Y-103470001I0J249999D01*
G01*
X17040000Y-102819999D01*
G75*
G02*
X17289999Y-102570000I249999J0D01*
G01*
X18190001Y-102570000D01*
G75*
G02*
X18440000Y-102819999I0J-249999D01*
G01*
X18440000Y-103470001D01*
G75*
G02*
X18190001Y-103720000I-249999J0D01*
G01*
G37*
G36*
G01*
X18190001Y-105770000D02*
X17289999Y-105770000D01*
G75*
G02*
X17040000Y-105520001I0J249999D01*
G01*
X17040000Y-104869999D01*
G75*
G02*
X17289999Y-104620000I249999J0D01*
G01*
X18190001Y-104620000D01*
G75*
G02*
X18440000Y-104869999I0J-249999D01*
G01*
X18440000Y-105520001D01*
G75*
G02*
X18190001Y-105770000I-249999J0D01*
G01*
G37*
D26*
X2200000Y-20200000D03*
X2200000Y-10900000D03*
D27*
X28060000Y-100030000D03*
X28060000Y-97940000D03*
D28*
X-5680000Y-182660000D03*
X-6600000Y-22790000D03*
D29*
X2600000Y-88600000D03*
D30*
X5100000Y-88600000D03*
X7600000Y-88600000D03*
D31*
X-500000Y-96100000D03*
X10700000Y-96100000D03*
D30*
X2600000Y-103100000D03*
X7600000Y-103100000D03*
D32*
X-2600000Y-98950000D03*
X-2600000Y-100850000D03*
X-5600000Y-99900000D03*
X-2600000Y-109050000D03*
X-2600000Y-110950000D03*
X-5600000Y-110000000D03*
X46400000Y-98750000D03*
X46400000Y-100650000D03*
X43400000Y-99916666D03*
X46400000Y-109150000D03*
X46400000Y-111050000D03*
X43400000Y-110100000D03*
X-5600000Y-89800000D03*
X-2600000Y-90750000D03*
X-2600000Y-88850000D03*
X-5600000Y-79600000D03*
X-2600000Y-80550000D03*
X-2600000Y-78650000D03*
X43400000Y-89733333D03*
X46400000Y-90350000D03*
X46400000Y-88450000D03*
X43400000Y-79550000D03*
X46400000Y-80500000D03*
X46400000Y-78600000D03*
D33*
X0Y-400000D03*
D34*
X-5080000Y-400000D03*
D15*
X-9470000Y-145190000D03*
X-9470000Y-142650000D03*
M02*
