M48
; DRILL file {KiCad 5.1.8} date Sat Dec 26 21:15:07 2020
; FORMAT={-:-/ absolute / metric / decimal}
; #@! TF.CreationDate,2020-12-26T21:15:07+01:00
; #@! TF.GenerationSoftware,Kicad,Pcbnew,5.1.8
FMAT,2
METRIC
T1C0.400
T2C0.500
T3C0.700
T4C0.800
T5C1.000
T6C1.016
T7C1.100
T8C1.200
T9C1.500
T10C2.000
T11C3.200
T12C1.850
T13C3.200
%
G90
G05
T1
X-9.2Y-174.2
X-8.6Y-39.15
X-8.475Y-170.4
X-8.2Y-165.4
X-6.6Y-44.15
X-5.7Y-173.175
X-4.08Y-174.56
X-3.225Y-97.975
X-3.16Y-175.38
X-2.7Y-107.9
X-2.45Y-170.7
X-2.4Y-87.6
X-2.4Y-169.201
X-1.675Y-163.151
X-0.4Y-170.8
X-0.1Y-75.35
X1.0Y-164.6
X1.6Y-172.8
X2.282Y-172.068
X2.6Y-170.2
X4.2Y-73.4
X4.5Y-71.75
X5.8Y-73.2
X5.8Y-77.4
X6.8Y-173.6
X7.0Y-172.2
X7.158Y-174.988
X7.209Y-176.004
X7.8Y-171.312
X7.92Y-154.414
X8.8Y-51.0
X8.8Y0.8
X8.8Y-52.2
X10.8Y-120.0
X19.6Y-9.2
X19.6Y-10.2
X19.6Y-11.2
X19.8Y-129.6
X19.8Y-130.6
X19.8Y-131.6
X20.675Y-27.6
X20.8Y-9.2
X20.8Y-10.2
X20.8Y-11.2
X21.0Y-129.6
X21.0Y-130.6
X21.0Y-131.6
X21.4Y-26.0
X21.99Y-10.2
X22.0Y-9.2
X22.0Y-11.2
X22.1Y-120.4
X22.19Y-130.6
X22.2Y-129.6
X22.2Y-131.6
X22.4Y-93.4
X22.652Y-151.7
X22.652Y-153.0
X23.187Y-145.113
X23.2Y-91.9
X23.4Y-146.1
X23.6Y-103.2
X24.0Y-95.0
X24.15Y-147.213
X24.43Y-24.62
X24.956Y-22.55
X25.0Y-23.55
X25.0Y-103.2
X25.246Y-21.012
X25.25Y-148.45
X25.6Y-146.6
X26.05Y-158.161
X26.25Y-161.35
X26.6Y-36.4
X27.732Y-30.97
X28.011Y-36.211
X28.1Y-142.7
X29.0Y-146.0
X29.25Y-23.6
X29.8Y-148.6
X30.2Y0.0
X30.25Y-118.5
X30.45Y-23.65
X30.596Y-147.65
X30.78Y-22.08
X30.8Y-146.0
X33.998Y-153.148
X34.425Y-154.6
X34.9Y-18.5
X38.0Y-54.0
X38.3Y-18.8
X38.899Y-21.225
X40.8Y-9.2
X40.8Y-10.2
X40.8Y-11.2
X40.8Y-129.6
X40.8Y-130.6
X40.8Y-131.6
X40.94Y-156.7
X41.13Y-21.225
X41.2Y-5.0
X42.0Y-9.2
X42.0Y-10.2
X42.0Y-11.2
X42.0Y-129.6
X42.0Y-130.6
X42.0Y-131.6
X42.195Y-176.205
X43.19Y-10.2
X43.19Y-130.6
X43.2Y-9.2
X43.2Y-11.2
X43.2Y-129.6
X43.2Y-131.6
X44.6Y-142.4
X44.8Y-43.43
X45.313Y-146.087
X45.4Y-141.6
X45.6Y-177.925
X46.0Y-44.0
X46.0Y-147.6
X46.2Y-142.4
X46.25Y-87.3
X46.35Y-173.65
X46.4Y-77.4
X46.4Y-97.7
X46.5Y-108.15
X46.555Y-146.693
X46.7Y-30.0
X46.8Y-28.8
X47.025Y-41.892
X47.2Y-141.6
X47.562Y-147.568
X47.8Y-18.9
X48.0Y-40.3
X48.076Y-146.71
X48.125Y-142.4
X48.8Y-20.7
X49.214Y-146.7
X49.4Y-171.6
X49.53Y-143.73
X50.0Y-21.0
X50.2Y-53.8
X50.513Y-36.713
X50.6Y-35.0
X50.8Y-143.6
X50.85Y-146.5
X50.94Y-176.93
X50.949Y-17.649
X51.2Y0.8
X51.4Y-28.4
X51.4Y-118.55
X51.575Y-145.7
X51.8Y-29.4
X52.1Y-40.2
X52.6Y-68.4
X53.8Y-147.7
X55.6Y-179.15
X56.891Y-161.932
X57.6Y-177.7
X58.06Y-161.069
X58.466Y-165.844
X61.8Y-129.6
X61.8Y-130.6
X61.8Y-131.6
X62.0Y-9.2
X62.0Y-10.2
X62.0Y-11.2
X62.1Y-154.45
X62.2Y-156.85
X63.0Y-129.6
X63.0Y-130.6
X63.0Y-131.6
X63.2Y-9.2
X63.2Y-10.2
X63.2Y-11.2
X64.13Y-169.275
X64.19Y-130.6
X64.2Y-129.6
X64.2Y-131.6
X64.39Y-10.2
X64.4Y-9.2
X64.4Y-11.2
X65.6Y-170.0
X69.4Y-142.5
X69.4Y-145.782
X69.7Y-110.9
X70.2Y-2.4
X70.6Y-142.4
X70.6Y-147.2
X71.2Y-80.8
X71.6Y-141.9
X72.4Y0.8
X72.6Y-147.2
X72.6Y-148.4
X72.631Y-142.982
X73.394Y-142.335
X73.6Y-146.8
X74.2Y-110.9
X74.25Y-117.0
X80.8Y-9.6
X80.8Y-10.6
X80.8Y-11.6
X80.8Y-12.6
X81.6Y-9.0
X81.6Y-10.0
X81.6Y-11.0
X81.6Y-12.0
X81.6Y-130.2
X81.6Y-130.2
X81.6Y-131.2
X82.6Y-129.6
X82.6Y-130.6
X82.6Y-131.6
X83.56Y-129.6
X83.56Y-130.6
X83.56Y-131.6
T2
X28.06Y-100.03
X28.06Y-97.94
T3
X35.867Y-146.9
X37.767Y-146.9
X15.1Y-146.7
X17.0Y-146.7
X35.933Y-26.7
X37.833Y-26.7
X77.6Y-26.7
X79.5Y-26.7
X56.633Y-146.8
X58.533Y-146.8
X77.4Y-146.7
X79.3Y-146.7
X15.1Y-26.7
X17.0Y-26.7
X56.767Y-26.7
X58.667Y-26.7
T4
X-10.3Y-61.255
X-8.0Y-64.457
X-7.972Y-62.957
X-7.65Y-58.9
X-5.288Y-69.07
X-3.45Y-32.4
X-2.2Y-59.25
X-0.4Y-147.0
X0.2Y-145.0
X1.2Y-57.3
X1.57Y-63.33
X7.0Y-34.688
X9.8Y-43.35
X10.557Y-153.0
X11.2Y-69.8
X11.6Y-156.4
X15.0Y-38.6
X17.85Y-186.25
X18.2Y-41.0
X20.525Y-4.6
X21.8Y-18.8
X22.15Y-137.4
X23.106Y-36.25
X23.668Y-162.542
X23.8Y-17.2
X24.25Y-137.45
X25.35Y-126.75
X28.748Y-10.904
X28.748Y-19.032
X28.748Y-133.84
X28.748Y-137.142
X31.034Y-10.904
X31.034Y-19.032
X31.4Y-163.2
X31.488Y-154.05
X31.492Y-27.2
X32.304Y-133.84
X32.304Y-137.142
X32.8Y-69.6
X33.574Y-10.904
X33.574Y-19.032
X36.114Y-133.84
X36.114Y-137.142
X36.876Y-158.986
X40.303Y-185.303
X40.4Y-32.6
X40.432Y-46.718
X40.8Y-172.4
X42.79Y-18.92
X42.9Y-137.45
X44.8Y-17.0
X45.05Y-137.45
X45.475Y-153.906
X46.0Y-6.4
X46.15Y-126.95
X50.084Y-153.906
X51.8Y-174.8
X52.37Y-133.84
X52.37Y-137.396
X54.4Y-69.8
X54.758Y-159.24
X54.91Y-17.762
X54.91Y-35.542
X54.91Y-40.876
X55.672Y-133.84
X55.672Y-137.396
X56.688Y-11.92
X57.196Y-17.762
X59.228Y-133.84
X59.228Y-137.396
X59.482Y-17.762
X59.736Y-11.92
X61.85Y-185.4
X62.3Y-17.8
X62.784Y-36.812
X62.784Y-41.892
X62.784Y-49.258
X62.784Y-57.64
X62.784Y-67.8
X62.784Y-75.42
X63.038Y-21.064
X63.038Y-31.478
X63.9Y-137.4
X65.4Y-17.2
X66.1Y-137.5
X67.102Y-162.1
X67.15Y-126.65
X67.5Y-164.95
X67.68Y-6.54
X68.118Y-21.064
X68.118Y-31.478
X68.118Y-36.304
X68.118Y-41.892
X68.118Y-49.258
X68.118Y-57.64
X68.118Y-67.8
X68.372Y-75.42
X68.6Y-18.9
X69.0Y-77.6
X70.0Y-79.2
X71.15Y-169.45
X75.2Y-69.6
X76.754Y-133.586
X76.754Y-137.65
X79.548Y-133.586
X79.548Y-137.65
X81.3Y-17.2
X82.2Y-125.5
X82.4Y-185.55
X83.85Y-137.55
X84.6Y-3.0
X85.7Y-137.6
X86.6Y-3.0
X-9.47Y-142.65
X-9.47Y-145.19
T5
X14.902Y-84.576
X14.902Y-87.116
X14.902Y-89.656
X14.902Y-92.196
X14.902Y-94.736
X14.902Y-97.276
X14.902Y-99.816
X14.902Y-102.356
X14.902Y-104.896
X78.42Y-89.62
X78.42Y-92.16
X78.42Y-94.7
X78.42Y-97.24
X78.42Y-99.78
X2.6Y-88.6
X2.6Y-103.1
X5.1Y-88.6
X7.6Y-88.6
X7.6Y-103.1
X-9.86Y-33.002
X-9.86Y-35.542
X3.8Y-45.4
X3.8Y-47.94
X3.8Y-50.48
X3.8Y-53.02
X3.8Y-55.56
X3.8Y-58.1
X3.8Y-60.64
X3.8Y-63.18
X3.8Y-65.72
X3.8Y-68.26
T6
X-10.82Y-155.43
X-10.82Y-157.97
X-10.82Y-160.51
X-10.82Y-163.05
X-10.82Y-165.59
X-10.82Y-168.13
X-10.82Y-170.67
X-10.82Y-173.21
X-10.82Y-175.75
X-10.82Y-178.29
X-10.82Y-180.83
X-10.82Y-183.37
X-10.82Y-185.91
X-10.82Y-188.45
X-10.82Y-190.99
X4.42Y-155.43
X4.42Y-157.97
X4.42Y-160.51
X4.42Y-163.05
X4.42Y-165.59
X4.42Y-168.13
X4.42Y-170.67
X4.42Y-173.21
X4.42Y-175.75
X4.42Y-178.29
X4.42Y-180.83
X4.42Y-183.37
X4.42Y-185.91
X4.42Y-188.45
X4.42Y-190.99
T7
X-5.08Y-0.4
X0.0Y-0.4
T8
X40.48Y-99.867
X86.2Y-99.867
X40.48Y-110.0
X86.2Y-110.0
X-8.32Y-79.6
X37.4Y-79.6
X-8.32Y-110.0
X37.4Y-110.0
X-8.32Y-99.867
X37.4Y-99.867
X40.48Y-79.6
X86.2Y-79.6
X-8.32Y-89.733
X37.4Y-89.733
X40.48Y-89.733
X86.2Y-89.733
T10
X79.3Y-118.4
X79.3Y-190.4
X58.2Y0.8
X58.2Y-71.2
X37.1Y0.8
X37.1Y-71.2
X16.0Y0.8
X16.0Y-71.2
X58.2Y-118.4
X58.2Y-190.4
X79.3Y0.8
X79.3Y-71.2
X16.0Y-118.4
X16.0Y-190.4
X37.1Y-118.4
X37.1Y-190.4
T11
X-5.68Y-182.66
X-6.6Y-22.79
T12
X-10.82Y-152.89
X-10.82Y-193.53
X4.42Y-152.89
X4.42Y-193.53
T13
X79.3Y-182.655
X58.2Y-7.845
X58.2Y-63.455
X37.1Y-7.845
X37.1Y-63.455
X16.0Y-7.845
X16.0Y-63.455
X58.2Y-127.045
X58.2Y-182.655
X79.3Y-7.845
X79.3Y-63.455
X16.0Y-127.045
X16.0Y-182.655
X37.1Y-127.045
X37.1Y-182.655
X79.3Y-127.045
T9
G00X-0.5Y-95.45
M15
G01X-0.5Y-96.75
M16
G05
G00X10.7Y-95.45
M15
G01X10.7Y-96.75
M16
G05
T10
G00X2.2Y-12.9
M15
G01X2.2Y-8.9
M16
G05
G00X2.2Y-22.2
M15
G01X2.2Y-18.2
M16
G05
T0
M30
