%TF.GenerationSoftware,KiCad,Pcbnew,5.1.4*%
%TF.CreationDate,2019-11-11T17:30:35+01:00*%
%TF.ProjectId,charger2,63686172-6765-4723-922e-6b696361645f,rev?*%
%TF.SameCoordinates,Original*%
%TF.FileFunction,Legend,Bot*%
%TF.FilePolarity,Positive*%
%FSLAX46Y46*%
G04 Gerber Fmt 4.6, Leading zero omitted, Abs format (unit mm)*
G04 Created by KiCad (PCBNEW 5.1.4) date 2019-11-11 17:30:35*
%MOMM*%
%LPD*%
G04 APERTURE LIST*
%ADD10C,1.952000*%
%ADD11R,1.829200X1.829200*%
%ADD12C,1.829200*%
%ADD13O,1.802000X1.802000*%
%ADD14R,1.802000X1.802000*%
%ADD15O,3.902000X8.102000*%
%ADD16O,2.052000X1.802000*%
%ADD17C,0.100000*%
%ADD18C,1.802000*%
%ADD19R,1.102000X1.102000*%
%ADD20C,5.602000*%
%ADD21R,2.102000X2.102000*%
%ADD22C,2.102000*%
%ADD23R,3.302000X2.102000*%
%ADD24R,2.202000X2.202000*%
%ADD25C,2.202000*%
%ADD26C,1.502000*%
G04 APERTURE END LIST*
%LPC*%
D10*
X195376800Y-67589400D03*
X210616800Y-67589400D03*
X195376800Y-108229400D03*
X210616800Y-108229400D03*
D11*
X210616800Y-105689400D03*
D12*
X210616800Y-103149400D03*
X210616800Y-100609400D03*
X210616800Y-98069400D03*
X210616800Y-95529400D03*
X210616800Y-92989400D03*
X210616800Y-90449400D03*
X210616800Y-87909400D03*
X210616800Y-85369400D03*
X210616800Y-82829400D03*
X210616800Y-80289400D03*
X210616800Y-77749400D03*
X210616800Y-75209400D03*
X210616800Y-72669400D03*
X210616800Y-70129400D03*
X195376800Y-70129400D03*
X195376800Y-72669400D03*
X195376800Y-75209400D03*
X195376800Y-77749400D03*
X195376800Y-80289400D03*
X195376800Y-82829400D03*
X195376800Y-85369400D03*
X195376800Y-87909400D03*
X195376800Y-90449400D03*
X195376800Y-92989400D03*
X195376800Y-95529400D03*
X195376800Y-98069400D03*
X195376800Y-100609400D03*
X195376800Y-103149400D03*
X195376800Y-105689400D03*
D13*
X186194700Y-68541900D03*
X188734700Y-68541900D03*
D14*
X191274700Y-68541900D03*
D13*
X187032900Y-124091700D03*
X189572900Y-124091700D03*
D14*
X192112900Y-124091700D03*
D13*
X128375600Y-96257400D03*
D14*
X128375600Y-101337400D03*
D13*
X128375600Y-91177400D03*
X128375600Y-98797400D03*
X128375600Y-93717400D03*
X191893600Y-86133400D03*
X191893600Y-96293400D03*
X191893600Y-103913400D03*
X191893600Y-88673400D03*
X191893600Y-91213400D03*
D14*
X191893600Y-106453400D03*
D13*
X191893600Y-101373400D03*
X191893600Y-98833400D03*
X191893600Y-93753400D03*
X187363100Y-108305600D03*
X187363100Y-105765600D03*
X187363100Y-103225600D03*
X187363100Y-100685600D03*
X187363100Y-98145600D03*
X187363100Y-95605600D03*
X187363100Y-93065600D03*
X187363100Y-90525600D03*
X187363100Y-87985600D03*
D14*
X187363100Y-85445600D03*
D15*
X122732800Y-100841600D03*
X122732800Y-91541600D03*
D16*
X116281200Y-104166000D03*
X116281200Y-106666000D03*
X116281200Y-109166000D03*
X116281200Y-111666000D03*
X116281200Y-114166000D03*
X116281200Y-116666000D03*
X116281200Y-119166000D03*
D17*
G36*
X117068175Y-120766276D02*
G01*
X117093899Y-120770092D01*
X117119125Y-120776411D01*
X117143611Y-120785172D01*
X117167120Y-120796291D01*
X117189426Y-120809661D01*
X117210314Y-120825152D01*
X117229583Y-120842617D01*
X117247048Y-120861886D01*
X117262539Y-120882774D01*
X117275909Y-120905080D01*
X117287028Y-120928589D01*
X117295789Y-120953075D01*
X117302108Y-120978301D01*
X117305924Y-121004025D01*
X117307200Y-121030000D01*
X117307200Y-122302000D01*
X117305924Y-122327975D01*
X117302108Y-122353699D01*
X117295789Y-122378925D01*
X117287028Y-122403411D01*
X117275909Y-122426920D01*
X117262539Y-122449226D01*
X117247048Y-122470114D01*
X117229583Y-122489383D01*
X117210314Y-122506848D01*
X117189426Y-122522339D01*
X117167120Y-122535709D01*
X117143611Y-122546828D01*
X117119125Y-122555589D01*
X117093899Y-122561908D01*
X117068175Y-122565724D01*
X117042200Y-122567000D01*
X115520200Y-122567000D01*
X115494225Y-122565724D01*
X115468501Y-122561908D01*
X115443275Y-122555589D01*
X115418789Y-122546828D01*
X115395280Y-122535709D01*
X115372974Y-122522339D01*
X115352086Y-122506848D01*
X115332817Y-122489383D01*
X115315352Y-122470114D01*
X115299861Y-122449226D01*
X115286491Y-122426920D01*
X115275372Y-122403411D01*
X115266611Y-122378925D01*
X115260292Y-122353699D01*
X115256476Y-122327975D01*
X115255200Y-122302000D01*
X115255200Y-121030000D01*
X115256476Y-121004025D01*
X115260292Y-120978301D01*
X115266611Y-120953075D01*
X115275372Y-120928589D01*
X115286491Y-120905080D01*
X115299861Y-120882774D01*
X115315352Y-120861886D01*
X115332817Y-120842617D01*
X115352086Y-120825152D01*
X115372974Y-120809661D01*
X115395280Y-120796291D01*
X115418789Y-120785172D01*
X115443275Y-120776411D01*
X115468501Y-120770092D01*
X115494225Y-120766276D01*
X115520200Y-120765000D01*
X117042200Y-120765000D01*
X117068175Y-120766276D01*
X117068175Y-120766276D01*
G37*
D18*
X116281200Y-121666000D03*
D16*
X116179600Y-88061200D03*
X116179600Y-85561200D03*
X116179600Y-83061200D03*
X116179600Y-80561200D03*
X116179600Y-78061200D03*
X116179600Y-75561200D03*
X116179600Y-73061200D03*
D17*
G36*
X116966575Y-69661476D02*
G01*
X116992299Y-69665292D01*
X117017525Y-69671611D01*
X117042011Y-69680372D01*
X117065520Y-69691491D01*
X117087826Y-69704861D01*
X117108714Y-69720352D01*
X117127983Y-69737817D01*
X117145448Y-69757086D01*
X117160939Y-69777974D01*
X117174309Y-69800280D01*
X117185428Y-69823789D01*
X117194189Y-69848275D01*
X117200508Y-69873501D01*
X117204324Y-69899225D01*
X117205600Y-69925200D01*
X117205600Y-71197200D01*
X117204324Y-71223175D01*
X117200508Y-71248899D01*
X117194189Y-71274125D01*
X117185428Y-71298611D01*
X117174309Y-71322120D01*
X117160939Y-71344426D01*
X117145448Y-71365314D01*
X117127983Y-71384583D01*
X117108714Y-71402048D01*
X117087826Y-71417539D01*
X117065520Y-71430909D01*
X117042011Y-71442028D01*
X117017525Y-71450789D01*
X116992299Y-71457108D01*
X116966575Y-71460924D01*
X116940600Y-71462200D01*
X115418600Y-71462200D01*
X115392625Y-71460924D01*
X115366901Y-71457108D01*
X115341675Y-71450789D01*
X115317189Y-71442028D01*
X115293680Y-71430909D01*
X115271374Y-71417539D01*
X115250486Y-71402048D01*
X115231217Y-71384583D01*
X115213752Y-71365314D01*
X115198261Y-71344426D01*
X115184891Y-71322120D01*
X115173772Y-71298611D01*
X115165011Y-71274125D01*
X115158692Y-71248899D01*
X115154876Y-71223175D01*
X115153600Y-71197200D01*
X115153600Y-69925200D01*
X115154876Y-69899225D01*
X115158692Y-69873501D01*
X115165011Y-69848275D01*
X115173772Y-69823789D01*
X115184891Y-69800280D01*
X115198261Y-69777974D01*
X115213752Y-69757086D01*
X115231217Y-69737817D01*
X115250486Y-69720352D01*
X115271374Y-69704861D01*
X115293680Y-69691491D01*
X115317189Y-69680372D01*
X115341675Y-69671611D01*
X115366901Y-69665292D01*
X115392625Y-69661476D01*
X115418600Y-69660200D01*
X116940600Y-69660200D01*
X116966575Y-69661476D01*
X116966575Y-69661476D01*
G37*
D18*
X116179600Y-70561200D03*
D19*
X206336900Y-94754700D03*
X206400400Y-96202500D03*
D20*
X122364500Y-69291200D03*
X122580400Y-123050300D03*
X206480000Y-122850000D03*
X206364500Y-69291200D03*
D21*
X194938000Y-111622900D03*
D22*
X194938000Y-114122900D03*
X194938000Y-116622900D03*
D23*
X202438000Y-108522900D03*
X202438000Y-119722900D03*
D22*
X209438000Y-111622900D03*
X209438000Y-116622900D03*
D24*
X115252500Y-98704400D03*
D25*
X115252500Y-93624400D03*
D26*
X201358500Y-68262500D03*
X198818500Y-68262500D03*
D13*
X175671480Y-125128020D03*
D14*
X178211480Y-125128020D03*
D13*
X161168080Y-125102620D03*
D14*
X163708080Y-125102620D03*
D13*
X146271880Y-124880020D03*
D14*
X148811880Y-124880020D03*
D13*
X131660280Y-124896820D03*
D14*
X134200280Y-124896820D03*
D13*
X177370200Y-67391000D03*
D14*
X174830200Y-67391000D03*
X160604200Y-67411600D03*
D13*
X163144200Y-67411600D03*
X148547500Y-67843400D03*
D14*
X146007500Y-67843400D03*
D13*
X133769500Y-67716400D03*
D14*
X131229500Y-67716400D03*
M02*
