M48
; DRILL file {KiCad 5.1.8} date Sat Dec 26 20:55:45 2020
; FORMAT={-:-/ absolute / metric / decimal}
; #@! TF.CreationDate,2020-12-26T20:55:45+01:00
; #@! TF.GenerationSoftware,Kicad,Pcbnew,5.1.8
; #@! TF.FileFunction,NonPlated,1,2,NPTH
FMAT,2
METRIC
T1C1.850
T2C3.200
%
G90
G05
T1
X-10.82Y-152.89
X-10.82Y-193.53
X4.42Y-152.89
X4.42Y-193.53
T2
X79.3Y-127.045
X79.3Y-182.655
X58.2Y-7.845
X58.2Y-63.455
X37.1Y-7.845
X37.1Y-63.455
X16.0Y-7.845
X16.0Y-63.455
X58.2Y-127.045
X58.2Y-182.655
X79.3Y-7.845
X79.3Y-63.455
X16.0Y-127.045
X16.0Y-182.655
X37.1Y-127.045
X37.1Y-182.655
T0
M30
