M48
; DRILL file {KiCad 5.1.4} date Mo 11 Nov 2019 17:30:31 CET
; FORMAT={-:-/ absolute / metric / decimal}
; #@! TF.CreationDate,2019-11-11T17:30:31+01:00
; #@! TF.GenerationSoftware,Kicad,Pcbnew,5.1.4
; #@! TF.FileFunction,Plated,1,2,PTH
FMAT,2
METRIC
T1C0.400
T2C0.500
T3C0.510
T4C0.800
T5C0.950
T6C1.000
T7C1.016
T8C1.100
T9C1.500
T10C2.000
T11C3.200
%
G90
G05
T1
X117.983Y-75.082
X118.491Y-75.844
X118.999Y-75.082
X119.507Y-75.844
X120.015Y-75.082
X120.569Y-83.266
X121.018Y-105.27
X121.2Y-96.65
X121.265Y-83.073
X121.46Y-95.87
X121.884Y-105.382
X121.92Y-77.37
X122.403Y-96.177
X122.479Y-117.729
X122.53Y-114.173
X122.601Y-76.611
X122.621Y-83.82
X122.86Y-72.72
X122.892Y-106.534
X123.165Y-117.31
X123.2Y-83.276
X123.215Y-113.754
X123.253Y-96.177
X123.266Y-76.281
X123.698Y-106.54
X123.749Y-72.72
X123.83Y-83.805
X123.876Y-114.198
X123.901Y-117.704
X123.911Y-76.728
X124.13Y-96.571
X124.168Y-86.627
X124.17Y-95.73
X124.269Y-87.439
X124.612Y-72.746
X124.638Y-71.882
X125.019Y-103.988
X125.133Y-87.478
X125.539Y-104.534
X125.603Y-91.504
X125.94Y-92.46
X125.971Y-87.478
X126.39Y-90.97
X126.809Y-86.487
X126.822Y-87.465
X126.96Y-100.24
X126.98Y-99.37
X127.322Y-112.082
X127.356Y-72.187
X127.49Y-83.15
X127.68Y-84.03
X127.737Y-73.025
X127.838Y-111.62
X128.194Y-121.907
X128.283Y-120.764
X128.35Y-83.43
X128.765Y-121.425
X128.803Y-69.494
X128.88Y-68.707
X129.672Y-119.461
X130.048Y-111.1
X130.429Y-111.811
X130.477Y-119.355
X130.632Y-110.515
X131.521Y-121.158
X131.674Y-90.322
X131.813Y-113.92
X132.029Y-91.034
X132.24Y-121.61
X132.359Y-111.582
X132.486Y-102.641
X132.867Y-113.92
X132.944Y-121.082
X133.629Y-112.001
X133.802Y-79.11
X134.21Y-85.38
X134.219Y-86.289
X134.801Y-79.063
X134.981Y-86.03
X135.382Y-72.987
X135.414Y-80.91
X135.598Y-107.645
X136.119Y-122.987
X136.227Y-72.987
X136.386Y-78.702
X136.423Y-71.222
X136.462Y-70.193
X136.55Y-123.698
X136.563Y-108.509
X136.652Y-111.214
X136.83Y-116.929
X136.881Y-81.382
X137.058Y-70.739
X137.06Y-82.84
X137.084Y-71.704
X137.096Y-72.987
X137.427Y-78.702
X137.884Y-120.421
X137.92Y-83.69
X137.922Y-119.672
X137.998Y-82.855
X138.099Y-88.489
X138.399Y-72.956
X138.443Y-78.702
X138.466Y-96.609
X138.633Y-119.647
X138.659Y-120.421
X139.295Y-107.507
X139.295Y-108.507
X139.299Y-78.694
X139.51Y-109.483
X139.674Y-98.152
X140.894Y-120.244
X140.932Y-117.805
X141.668Y-73.177
X141.668Y-117.831
X141.719Y-120.345
X142.062Y-72.542
X142.469Y-73.254
X142.773Y-121.539
X143.002Y-119.532
X143.002Y-109.565
X143.142Y-122.25
X143.243Y-120.84
X143.485Y-68.809
X143.485Y-108.61
X143.523Y-102.807
X143.548Y-121.552
X143.916Y-119.545
X144.107Y-109.436
X144.18Y-107.507
X144.208Y-69.24
X145.152Y-110.481
X145.723Y-102.273
X146.177Y-121.564
X146.22Y-88.321
X146.284Y-80.97
X146.317Y-109.017
X146.812Y-71.526
X146.985Y-77.908
X147.066Y-121.564
X147.31Y-80.996
X147.574Y-71.526
X147.941Y-90.682
X147.955Y-121.564
X147.978Y-78.031
X148.057Y-70.917
X148.247Y-109.512
X148.526Y-71.526
X150.063Y-73.177
X150.063Y-93.548
X150.749Y-123.596
X150.825Y-93.548
X150.927Y-73.177
X151.257Y-123.088
X151.409Y-71.196
X151.447Y-70.383
X151.549Y-116.916
X151.587Y-93.548
X151.803Y-115.71
X151.828Y-73.177
X152.019Y-71.78
X152.044Y-70.815
X152.349Y-93.548
X152.489Y-119.444
X152.925Y-120.175
X153.289Y-93.548
X153.3Y-119.375
X153.354Y-72.988
X153.989Y-72.353
X154.39Y-84.83
X154.436Y-112.023
X154.534Y-108.444
X154.673Y-106.667
X154.996Y-88.336
X155.03Y-84.33
X155.417Y-120.238
X155.423Y-88.925
X155.575Y-106.705
X155.625Y-84.9
X155.682Y-88.321
X156.4Y-73.05
X156.464Y-106.705
X156.718Y-72.288
X157.29Y-72.987
X157.556Y-119.507
X157.81Y-121.145
X157.945Y-75.581
X157.975Y-122.136
X158.003Y-83.911
X158.112Y-88.577
X158.115Y-68.732
X158.186Y-85.814
X158.356Y-76.909
X158.443Y-81.252
X158.471Y-120.675
X158.521Y-119.507
X158.521Y-121.539
X158.552Y-89.294
X158.567Y-85.11
X158.674Y-69.291
X158.918Y-88.549
X159.019Y-85.783
X159.766Y-101.498
X159.766Y-102.387
X159.766Y-106.324
X159.766Y-107.086
X161.417Y-121.691
X162.306Y-121.691
X164.516Y-112.014
X164.719Y-73.05
X165.481Y-123.596
X165.532Y-71.425
X165.608Y-70.32
X165.632Y-73.041
X165.722Y-108.839
X165.875Y-122.911
X166.192Y-70.891
X166.192Y-71.857
X166.268Y-115.659
X166.56Y-73.05
X166.62Y-116.974
X167.132Y-102.514
X167.132Y-105.562
X167.208Y-119.355
X167.61Y-101.836
X167.64Y-73.114
X167.742Y-106.324
X167.97Y-119.355
X168.148Y-102.514
X168.148Y-105.562
X168.211Y-78.785
X168.224Y-98.806
X168.402Y-72.733
X170.454Y-85.877
X170.799Y-120.786
X170.879Y-72.86
X171.026Y-86.792
X171.323Y-72.098
X171.333Y-83.917
X171.724Y-84.95
X171.767Y-72.86
X171.933Y-119.507
X172.288Y-121.031
X172.288Y-121.945
X172.542Y-69.469
X172.618Y-68.682
X172.644Y-119.507
X172.72Y-110.795
X172.847Y-120.675
X172.867Y-75.451
X172.949Y-121.488
X172.954Y-76.843
X173.105Y-84.591
X173.355Y-119.507
X173.473Y-80.933
X173.609Y-110.261
X173.777Y-78.656
X174.117Y-107.925
X174.244Y-95.402
X174.598Y-81.498
X174.625Y-110.261
X174.942Y-91.783
X174.981Y-102.718
X174.981Y-82.44
X175.12Y-113.906
X175.133Y-95.402
X175.173Y-111.643
X175.519Y-77.676
X176.022Y-93.624
X176.149Y-95.402
X176.586Y-85.185
X177.0Y-97.244
X178.249Y-84.777
X178.575Y-93.053
X178.74Y-98.082
X178.878Y-108.421
X179.19Y-86.169
X179.197Y-72.987
X179.273Y-87.554
X179.705Y-123.596
X180.151Y-72.941
X180.193Y-80.153
X180.289Y-115.824
X180.416Y-71.145
X180.442Y-70.256
X180.467Y-123.088
X180.82Y-96.091
X180.848Y-105.943
X180.975Y-108.229
X180.99Y-86.081
X181.026Y-71.653
X181.051Y-70.764
X181.064Y-113.068
X181.064Y-117.005
X181.098Y-109.786
X181.102Y-72.987
X181.39Y-74.25
X181.75Y-119.475
X181.813Y-86.982
X182.308Y-72.161
X182.325Y-120.05
X182.34Y-74.21
X182.435Y-80.162
X182.575Y-119.25
X182.601Y-96.241
X182.626Y-87.63
X182.753Y-106.705
X182.877Y-95.28
X183.134Y-71.717
X183.515Y-97.993
X184.112Y-94.323
X184.132Y-109.576
X184.213Y-92.478
X184.849Y-98.158
X185.847Y-74.211
X186.754Y-74.193
X189.543Y-82.321
X190.165Y-109.791
X190.475Y-92.507
X190.717Y-89.579
X191.465Y-109.791
X191.91Y-80.912
X193.688Y-71.463
X193.954Y-68.846
X196.38Y-91.66
X196.621Y-81.585
X197.394Y-73.954
X197.791Y-93.548
X197.791Y-102.438
X198.929Y-70.946
X199.581Y-93.104
X204.368Y-92.418
X206.743Y-80.073
X211.807Y-84.507
T2
X206.337Y-94.755
X206.4Y-96.203
T3
X160.213Y-73.676
X160.213Y-74.946
X160.213Y-76.216
X162.752Y-73.676
X162.752Y-74.946
X162.752Y-76.216
X161.351Y-116.339
X161.351Y-117.609
X161.351Y-118.879
X163.891Y-116.339
X163.891Y-117.609
X163.891Y-118.879
X145.563Y-73.812
X145.563Y-75.082
X145.563Y-76.352
X148.103Y-73.812
X148.103Y-75.082
X148.103Y-76.352
X174.731Y-73.576
X174.731Y-74.846
X174.731Y-76.116
X177.272Y-73.576
X177.272Y-74.846
X177.272Y-76.116
X132.13Y-116.327
X132.13Y-117.597
X132.13Y-118.867
X134.67Y-116.327
X134.67Y-117.597
X134.67Y-118.867
X130.808Y-73.622
X130.808Y-74.892
X130.808Y-76.162
X133.347Y-73.622
X133.347Y-74.892
X133.347Y-76.162
X175.859Y-116.365
X175.859Y-117.635
X175.859Y-118.905
X178.399Y-116.365
X178.399Y-117.635
X178.399Y-118.905
X146.742Y-116.31
X146.742Y-117.58
X146.742Y-118.85
X149.282Y-116.31
X149.282Y-117.58
X149.282Y-118.85
T4
X198.819Y-68.263
X201.358Y-68.263
T5
X116.18Y-70.561
X116.18Y-73.061
X116.18Y-75.561
X116.18Y-78.061
X116.18Y-80.561
X116.18Y-83.061
X116.18Y-85.561
X116.18Y-88.061
X116.281Y-104.166
X116.281Y-106.666
X116.281Y-109.166
X116.281Y-111.666
X116.281Y-114.166
X116.281Y-116.666
X116.281Y-119.166
X116.281Y-121.666
T6
X146.272Y-124.88
X148.812Y-124.88
X161.168Y-125.103
X163.708Y-125.103
X128.376Y-91.177
X128.376Y-93.717
X128.376Y-96.257
X128.376Y-98.797
X128.376Y-101.337
X191.894Y-86.133
X191.894Y-88.673
X191.894Y-91.213
X191.894Y-93.753
X191.894Y-96.293
X191.894Y-98.833
X191.894Y-101.373
X191.894Y-103.913
X191.894Y-106.453
X160.604Y-67.412
X163.144Y-67.412
X186.195Y-68.542
X188.735Y-68.542
X191.275Y-68.542
X187.363Y-85.446
X187.363Y-87.986
X187.363Y-90.526
X187.363Y-93.066
X187.363Y-95.606
X187.363Y-98.146
X187.363Y-100.686
X187.363Y-103.226
X187.363Y-105.766
X187.363Y-108.306
X194.938Y-111.623
X194.938Y-114.123
X194.938Y-116.623
X209.438Y-111.623
X209.438Y-116.623
X131.66Y-124.897
X134.2Y-124.897
X187.033Y-124.092
X189.573Y-124.092
X192.113Y-124.092
X131.23Y-67.716
X133.769Y-67.716
X174.83Y-67.391
X177.37Y-67.391
X175.671Y-125.128
X178.211Y-125.128
X146.007Y-67.843
X148.547Y-67.843
T7
X195.377Y-70.129
X195.377Y-72.669
X195.377Y-75.209
X195.377Y-77.749
X195.377Y-80.289
X195.377Y-82.829
X195.377Y-85.369
X195.377Y-87.909
X195.377Y-90.449
X195.377Y-92.989
X195.377Y-95.529
X195.377Y-98.069
X195.377Y-100.609
X195.377Y-103.149
X195.377Y-105.689
X210.617Y-70.129
X210.617Y-72.669
X210.617Y-75.209
X210.617Y-77.749
X210.617Y-80.289
X210.617Y-82.829
X210.617Y-85.369
X210.617Y-87.909
X210.617Y-90.449
X210.617Y-92.989
X210.617Y-95.529
X210.617Y-98.069
X210.617Y-100.609
X210.617Y-103.149
X210.617Y-105.689
T8
X115.252Y-93.624
X115.252Y-98.704
T11
X206.364Y-69.291
X122.364Y-69.291
X206.48Y-122.85
X122.58Y-123.05
T9
G00X201.788Y-108.523
M15
G01X203.088Y-108.523
M16
G05
G00X201.788Y-119.723
M15
G01X203.088Y-119.723
M16
G05
T10
G00X122.733Y-89.542
M15
G01X122.733Y-93.542
M16
G05
G00X122.733Y-98.842
M15
G01X122.733Y-102.842
M16
G05
T0
M30
