%TF.GenerationSoftware,KiCad,Pcbnew,5.1.4*%
%TF.CreationDate,2019-11-11T17:30:35+01:00*%
%TF.ProjectId,charger2,63686172-6765-4723-922e-6b696361645f,rev?*%
%TF.SameCoordinates,Original*%
%TF.FileFunction,Soldermask,Bot*%
%TF.FilePolarity,Negative*%
%FSLAX46Y46*%
G04 Gerber Fmt 4.6, Leading zero omitted, Abs format (unit mm)*
G04 Created by KiCad (PCBNEW 5.1.4) date 2019-11-11 17:30:35*
%MOMM*%
%LPD*%
G04 APERTURE LIST*
%ADD10C,0.100000*%
G04 APERTURE END LIST*
D10*
G36*
X179112480Y-126029020D02*
G01*
X177310480Y-126029020D01*
X177310480Y-124227020D01*
X179112480Y-124227020D01*
X179112480Y-126029020D01*
X179112480Y-126029020D01*
G37*
G36*
X175781923Y-124233539D02*
G01*
X175848107Y-124240057D01*
X176017946Y-124291577D01*
X176174471Y-124375242D01*
X176210209Y-124404572D01*
X176311666Y-124487834D01*
X176394928Y-124589291D01*
X176424258Y-124625029D01*
X176507923Y-124781554D01*
X176559443Y-124951393D01*
X176576839Y-125128020D01*
X176559443Y-125304647D01*
X176530575Y-125399811D01*
X176507922Y-125474488D01*
X176483485Y-125520206D01*
X176424258Y-125631011D01*
X176409004Y-125649598D01*
X176311666Y-125768206D01*
X176210414Y-125851300D01*
X176174471Y-125880798D01*
X176017946Y-125964463D01*
X175848107Y-126015983D01*
X175781923Y-126022501D01*
X175715740Y-126029020D01*
X175627220Y-126029020D01*
X175561037Y-126022501D01*
X175494853Y-126015983D01*
X175325014Y-125964463D01*
X175168489Y-125880798D01*
X175132546Y-125851300D01*
X175031294Y-125768206D01*
X174933956Y-125649598D01*
X174918702Y-125631011D01*
X174859475Y-125520206D01*
X174835038Y-125474488D01*
X174812385Y-125399811D01*
X174783517Y-125304647D01*
X174766121Y-125128020D01*
X174783517Y-124951393D01*
X174835037Y-124781554D01*
X174918702Y-124625029D01*
X174948032Y-124589291D01*
X175031294Y-124487834D01*
X175132751Y-124404572D01*
X175168489Y-124375242D01*
X175325014Y-124291577D01*
X175494853Y-124240057D01*
X175561037Y-124233539D01*
X175627220Y-124227020D01*
X175715740Y-124227020D01*
X175781923Y-124233539D01*
X175781923Y-124233539D01*
G37*
G36*
X164609080Y-126003620D02*
G01*
X162807080Y-126003620D01*
X162807080Y-124201620D01*
X164609080Y-124201620D01*
X164609080Y-126003620D01*
X164609080Y-126003620D01*
G37*
G36*
X161278522Y-124208138D02*
G01*
X161344707Y-124214657D01*
X161514546Y-124266177D01*
X161671071Y-124349842D01*
X161702021Y-124375242D01*
X161808266Y-124462434D01*
X161880417Y-124550352D01*
X161920858Y-124599629D01*
X162004523Y-124756154D01*
X162056043Y-124925993D01*
X162073439Y-125102620D01*
X162056043Y-125279247D01*
X162004523Y-125449086D01*
X161920858Y-125605611D01*
X161898546Y-125632798D01*
X161808266Y-125742806D01*
X161741230Y-125797820D01*
X161671071Y-125855398D01*
X161514546Y-125939063D01*
X161344707Y-125990583D01*
X161278522Y-125997102D01*
X161212340Y-126003620D01*
X161123820Y-126003620D01*
X161057638Y-125997102D01*
X160991453Y-125990583D01*
X160821614Y-125939063D01*
X160665089Y-125855398D01*
X160594930Y-125797820D01*
X160527894Y-125742806D01*
X160437614Y-125632798D01*
X160415302Y-125605611D01*
X160331637Y-125449086D01*
X160280117Y-125279247D01*
X160262721Y-125102620D01*
X160280117Y-124925993D01*
X160331637Y-124756154D01*
X160415302Y-124599629D01*
X160455743Y-124550352D01*
X160527894Y-124462434D01*
X160634139Y-124375242D01*
X160665089Y-124349842D01*
X160821614Y-124266177D01*
X160991453Y-124214657D01*
X161057638Y-124208138D01*
X161123820Y-124201620D01*
X161212340Y-124201620D01*
X161278522Y-124208138D01*
X161278522Y-124208138D01*
G37*
G36*
X123397421Y-120356940D02*
G01*
X123907169Y-120568085D01*
X123907171Y-120568086D01*
X124365934Y-120874621D01*
X124756079Y-121264766D01*
X124928778Y-121523229D01*
X125062615Y-121723531D01*
X125273760Y-122233279D01*
X125381400Y-122774424D01*
X125381400Y-123326176D01*
X125273760Y-123867321D01*
X125062631Y-124377031D01*
X125062614Y-124377071D01*
X124756079Y-124835834D01*
X124365934Y-125225979D01*
X123907171Y-125532514D01*
X123907170Y-125532515D01*
X123907169Y-125532515D01*
X123397421Y-125743660D01*
X122856276Y-125851300D01*
X122304524Y-125851300D01*
X121763379Y-125743660D01*
X121253631Y-125532515D01*
X121253630Y-125532515D01*
X121253629Y-125532514D01*
X120794866Y-125225979D01*
X120404721Y-124835834D01*
X120098186Y-124377071D01*
X120098169Y-124377031D01*
X119887040Y-123867321D01*
X119779400Y-123326176D01*
X119779400Y-122774424D01*
X119887040Y-122233279D01*
X120098185Y-121723531D01*
X120232022Y-121523229D01*
X120404721Y-121264766D01*
X120794866Y-120874621D01*
X121253629Y-120568086D01*
X121253631Y-120568085D01*
X121763379Y-120356940D01*
X122304524Y-120249300D01*
X122856276Y-120249300D01*
X123397421Y-120356940D01*
X123397421Y-120356940D01*
G37*
G36*
X135101280Y-125797820D02*
G01*
X133299280Y-125797820D01*
X133299280Y-123995820D01*
X135101280Y-123995820D01*
X135101280Y-125797820D01*
X135101280Y-125797820D01*
G37*
G36*
X131770723Y-124002339D02*
G01*
X131836907Y-124008857D01*
X132006746Y-124060377D01*
X132163271Y-124144042D01*
X132199009Y-124173372D01*
X132300466Y-124256634D01*
X132376958Y-124349841D01*
X132413058Y-124393829D01*
X132496723Y-124550354D01*
X132548243Y-124720193D01*
X132565639Y-124896820D01*
X132548243Y-125073447D01*
X132496723Y-125243286D01*
X132413058Y-125399811D01*
X132383728Y-125435549D01*
X132300466Y-125537006D01*
X132216869Y-125605611D01*
X132163271Y-125649598D01*
X132006746Y-125733263D01*
X131836907Y-125784783D01*
X131770723Y-125791301D01*
X131704540Y-125797820D01*
X131616020Y-125797820D01*
X131549837Y-125791301D01*
X131483653Y-125784783D01*
X131313814Y-125733263D01*
X131157289Y-125649598D01*
X131103691Y-125605611D01*
X131020094Y-125537006D01*
X130936832Y-125435549D01*
X130907502Y-125399811D01*
X130823837Y-125243286D01*
X130772317Y-125073447D01*
X130754921Y-124896820D01*
X130772317Y-124720193D01*
X130823837Y-124550354D01*
X130907502Y-124393829D01*
X130943602Y-124349841D01*
X131020094Y-124256634D01*
X131121551Y-124173372D01*
X131157289Y-124144042D01*
X131313814Y-124060377D01*
X131483653Y-124008857D01*
X131549837Y-124002339D01*
X131616020Y-123995820D01*
X131704540Y-123995820D01*
X131770723Y-124002339D01*
X131770723Y-124002339D01*
G37*
G36*
X146382323Y-123985539D02*
G01*
X146448507Y-123992057D01*
X146618346Y-124043577D01*
X146774871Y-124127242D01*
X146810609Y-124156572D01*
X146912066Y-124239834D01*
X146995328Y-124341291D01*
X147024658Y-124377029D01*
X147024659Y-124377031D01*
X147083886Y-124487835D01*
X147108323Y-124533554D01*
X147159843Y-124703393D01*
X147177239Y-124880020D01*
X147159843Y-125056647D01*
X147108323Y-125226486D01*
X147024658Y-125383011D01*
X147010872Y-125399809D01*
X146912066Y-125520206D01*
X146810609Y-125603468D01*
X146774871Y-125632798D01*
X146618346Y-125716463D01*
X146448507Y-125767983D01*
X146382323Y-125774501D01*
X146316140Y-125781020D01*
X146227620Y-125781020D01*
X146161437Y-125774501D01*
X146095253Y-125767983D01*
X145925414Y-125716463D01*
X145768889Y-125632798D01*
X145733151Y-125603468D01*
X145631694Y-125520206D01*
X145532888Y-125399809D01*
X145519102Y-125383011D01*
X145435437Y-125226486D01*
X145383917Y-125056647D01*
X145366521Y-124880020D01*
X145383917Y-124703393D01*
X145435437Y-124533554D01*
X145459875Y-124487835D01*
X145519101Y-124377031D01*
X145519102Y-124377029D01*
X145548432Y-124341291D01*
X145631694Y-124239834D01*
X145733151Y-124156572D01*
X145768889Y-124127242D01*
X145925414Y-124043577D01*
X146095253Y-123992057D01*
X146161437Y-123985539D01*
X146227620Y-123979020D01*
X146316140Y-123979020D01*
X146382323Y-123985539D01*
X146382323Y-123985539D01*
G37*
G36*
X149712880Y-125781020D02*
G01*
X147910880Y-125781020D01*
X147910880Y-123979020D01*
X149712880Y-123979020D01*
X149712880Y-125781020D01*
X149712880Y-125781020D01*
G37*
G36*
X207297021Y-120156640D02*
G01*
X207780589Y-120356941D01*
X207806771Y-120367786D01*
X208265534Y-120674321D01*
X208655679Y-121064466D01*
X208962214Y-121523229D01*
X208962215Y-121523231D01*
X209173360Y-122032979D01*
X209281000Y-122574124D01*
X209281000Y-123125876D01*
X209173360Y-123667021D01*
X209010426Y-124060377D01*
X208962214Y-124176771D01*
X208655679Y-124635534D01*
X208265534Y-125025679D01*
X207806771Y-125332214D01*
X207806770Y-125332215D01*
X207806769Y-125332215D01*
X207297021Y-125543360D01*
X206755876Y-125651000D01*
X206204124Y-125651000D01*
X205662979Y-125543360D01*
X205153231Y-125332215D01*
X205153230Y-125332215D01*
X205153229Y-125332214D01*
X204694466Y-125025679D01*
X204304321Y-124635534D01*
X203997786Y-124176771D01*
X203949574Y-124060377D01*
X203786640Y-123667021D01*
X203679000Y-123125876D01*
X203679000Y-122574124D01*
X203786640Y-122032979D01*
X203997785Y-121523231D01*
X203997786Y-121523229D01*
X204304321Y-121064466D01*
X204694466Y-120674321D01*
X205153229Y-120367786D01*
X205179411Y-120356941D01*
X205662979Y-120156640D01*
X206204124Y-120049000D01*
X206755876Y-120049000D01*
X207297021Y-120156640D01*
X207297021Y-120156640D01*
G37*
G36*
X187143342Y-123197218D02*
G01*
X187209527Y-123203737D01*
X187379366Y-123255257D01*
X187535891Y-123338922D01*
X187571629Y-123368252D01*
X187673086Y-123451514D01*
X187756348Y-123552971D01*
X187785678Y-123588709D01*
X187869343Y-123745234D01*
X187920863Y-123915073D01*
X187938259Y-124091700D01*
X187920863Y-124268327D01*
X187869343Y-124438166D01*
X187785678Y-124594691D01*
X187760780Y-124625029D01*
X187673086Y-124731886D01*
X187612564Y-124781554D01*
X187535891Y-124844478D01*
X187379366Y-124928143D01*
X187209527Y-124979663D01*
X187143342Y-124986182D01*
X187077160Y-124992700D01*
X186988640Y-124992700D01*
X186922458Y-124986182D01*
X186856273Y-124979663D01*
X186686434Y-124928143D01*
X186529909Y-124844478D01*
X186453236Y-124781554D01*
X186392714Y-124731886D01*
X186305020Y-124625029D01*
X186280122Y-124594691D01*
X186196457Y-124438166D01*
X186144937Y-124268327D01*
X186127541Y-124091700D01*
X186144937Y-123915073D01*
X186196457Y-123745234D01*
X186280122Y-123588709D01*
X186309452Y-123552971D01*
X186392714Y-123451514D01*
X186494171Y-123368252D01*
X186529909Y-123338922D01*
X186686434Y-123255257D01*
X186856273Y-123203737D01*
X186922458Y-123197218D01*
X186988640Y-123190700D01*
X187077160Y-123190700D01*
X187143342Y-123197218D01*
X187143342Y-123197218D01*
G37*
G36*
X189683342Y-123197218D02*
G01*
X189749527Y-123203737D01*
X189919366Y-123255257D01*
X190075891Y-123338922D01*
X190111629Y-123368252D01*
X190213086Y-123451514D01*
X190296348Y-123552971D01*
X190325678Y-123588709D01*
X190409343Y-123745234D01*
X190460863Y-123915073D01*
X190478259Y-124091700D01*
X190460863Y-124268327D01*
X190409343Y-124438166D01*
X190325678Y-124594691D01*
X190300780Y-124625029D01*
X190213086Y-124731886D01*
X190152564Y-124781554D01*
X190075891Y-124844478D01*
X189919366Y-124928143D01*
X189749527Y-124979663D01*
X189683342Y-124986182D01*
X189617160Y-124992700D01*
X189528640Y-124992700D01*
X189462458Y-124986182D01*
X189396273Y-124979663D01*
X189226434Y-124928143D01*
X189069909Y-124844478D01*
X188993236Y-124781554D01*
X188932714Y-124731886D01*
X188845020Y-124625029D01*
X188820122Y-124594691D01*
X188736457Y-124438166D01*
X188684937Y-124268327D01*
X188667541Y-124091700D01*
X188684937Y-123915073D01*
X188736457Y-123745234D01*
X188820122Y-123588709D01*
X188849452Y-123552971D01*
X188932714Y-123451514D01*
X189034171Y-123368252D01*
X189069909Y-123338922D01*
X189226434Y-123255257D01*
X189396273Y-123203737D01*
X189462458Y-123197218D01*
X189528640Y-123190700D01*
X189617160Y-123190700D01*
X189683342Y-123197218D01*
X189683342Y-123197218D01*
G37*
G36*
X193013900Y-124992700D02*
G01*
X191211900Y-124992700D01*
X191211900Y-123190700D01*
X193013900Y-123190700D01*
X193013900Y-124992700D01*
X193013900Y-124992700D01*
G37*
G36*
X117164800Y-120768989D02*
G01*
X117197852Y-120779015D01*
X117228303Y-120795292D01*
X117254999Y-120817201D01*
X117276908Y-120843897D01*
X117293185Y-120874348D01*
X117303211Y-120907400D01*
X117307200Y-120947903D01*
X117307200Y-122384097D01*
X117303211Y-122424600D01*
X117293185Y-122457652D01*
X117276908Y-122488103D01*
X117254999Y-122514799D01*
X117228303Y-122536708D01*
X117197852Y-122552985D01*
X117164800Y-122563011D01*
X117124297Y-122567000D01*
X115438103Y-122567000D01*
X115397600Y-122563011D01*
X115364548Y-122552985D01*
X115334097Y-122536708D01*
X115307401Y-122514799D01*
X115285492Y-122488103D01*
X115269215Y-122457652D01*
X115259189Y-122424600D01*
X115255200Y-122384097D01*
X115255200Y-120947903D01*
X115259189Y-120907400D01*
X115269215Y-120874348D01*
X115285492Y-120843897D01*
X115307401Y-120817201D01*
X115334097Y-120795292D01*
X115364548Y-120779015D01*
X115397600Y-120768989D01*
X115438103Y-120765000D01*
X117124297Y-120765000D01*
X117164800Y-120768989D01*
X117164800Y-120768989D01*
G37*
G36*
X204089000Y-120773900D02*
G01*
X200787000Y-120773900D01*
X200787000Y-118671900D01*
X204089000Y-118671900D01*
X204089000Y-120773900D01*
X204089000Y-120773900D01*
G37*
G36*
X116516642Y-118271518D02*
G01*
X116582827Y-118278037D01*
X116752666Y-118329557D01*
X116909191Y-118413222D01*
X116944929Y-118442552D01*
X117046386Y-118525814D01*
X117129648Y-118627271D01*
X117158978Y-118663009D01*
X117242643Y-118819534D01*
X117294163Y-118989373D01*
X117311559Y-119166000D01*
X117294163Y-119342627D01*
X117242643Y-119512466D01*
X117158978Y-119668991D01*
X117129648Y-119704729D01*
X117046386Y-119806186D01*
X116944929Y-119889448D01*
X116909191Y-119918778D01*
X116752666Y-120002443D01*
X116582827Y-120053963D01*
X116516642Y-120060482D01*
X116450460Y-120067000D01*
X116111940Y-120067000D01*
X116045758Y-120060482D01*
X115979573Y-120053963D01*
X115809734Y-120002443D01*
X115653209Y-119918778D01*
X115617471Y-119889448D01*
X115516014Y-119806186D01*
X115432752Y-119704729D01*
X115403422Y-119668991D01*
X115319757Y-119512466D01*
X115268237Y-119342627D01*
X115250841Y-119166000D01*
X115268237Y-118989373D01*
X115319757Y-118819534D01*
X115403422Y-118663009D01*
X115432752Y-118627271D01*
X115516014Y-118525814D01*
X115617471Y-118442552D01*
X115653209Y-118413222D01*
X115809734Y-118329557D01*
X115979573Y-118278037D01*
X116045758Y-118271518D01*
X116111940Y-118265000D01*
X116450460Y-118265000D01*
X116516642Y-118271518D01*
X116516642Y-118271518D01*
G37*
G36*
X209744564Y-115612289D02*
G01*
X209935833Y-115691515D01*
X209935835Y-115691516D01*
X210107973Y-115806535D01*
X210254365Y-115952927D01*
X210303067Y-116025814D01*
X210369385Y-116125067D01*
X210448611Y-116316336D01*
X210489000Y-116519384D01*
X210489000Y-116726416D01*
X210448611Y-116929464D01*
X210369385Y-117120733D01*
X210369384Y-117120735D01*
X210254365Y-117292873D01*
X210107973Y-117439265D01*
X209935835Y-117554284D01*
X209935834Y-117554285D01*
X209935833Y-117554285D01*
X209744564Y-117633511D01*
X209541516Y-117673900D01*
X209334484Y-117673900D01*
X209131436Y-117633511D01*
X208940167Y-117554285D01*
X208940166Y-117554285D01*
X208940165Y-117554284D01*
X208768027Y-117439265D01*
X208621635Y-117292873D01*
X208506616Y-117120735D01*
X208506615Y-117120733D01*
X208427389Y-116929464D01*
X208387000Y-116726416D01*
X208387000Y-116519384D01*
X208427389Y-116316336D01*
X208506615Y-116125067D01*
X208572934Y-116025814D01*
X208621635Y-115952927D01*
X208768027Y-115806535D01*
X208940165Y-115691516D01*
X208940167Y-115691515D01*
X209131436Y-115612289D01*
X209334484Y-115571900D01*
X209541516Y-115571900D01*
X209744564Y-115612289D01*
X209744564Y-115612289D01*
G37*
G36*
X195244564Y-115612289D02*
G01*
X195435833Y-115691515D01*
X195435835Y-115691516D01*
X195607973Y-115806535D01*
X195754365Y-115952927D01*
X195803067Y-116025814D01*
X195869385Y-116125067D01*
X195948611Y-116316336D01*
X195989000Y-116519384D01*
X195989000Y-116726416D01*
X195948611Y-116929464D01*
X195869385Y-117120733D01*
X195869384Y-117120735D01*
X195754365Y-117292873D01*
X195607973Y-117439265D01*
X195435835Y-117554284D01*
X195435834Y-117554285D01*
X195435833Y-117554285D01*
X195244564Y-117633511D01*
X195041516Y-117673900D01*
X194834484Y-117673900D01*
X194631436Y-117633511D01*
X194440167Y-117554285D01*
X194440166Y-117554285D01*
X194440165Y-117554284D01*
X194268027Y-117439265D01*
X194121635Y-117292873D01*
X194006616Y-117120735D01*
X194006615Y-117120733D01*
X193927389Y-116929464D01*
X193887000Y-116726416D01*
X193887000Y-116519384D01*
X193927389Y-116316336D01*
X194006615Y-116125067D01*
X194072934Y-116025814D01*
X194121635Y-115952927D01*
X194268027Y-115806535D01*
X194440165Y-115691516D01*
X194440167Y-115691515D01*
X194631436Y-115612289D01*
X194834484Y-115571900D01*
X195041516Y-115571900D01*
X195244564Y-115612289D01*
X195244564Y-115612289D01*
G37*
G36*
X116516643Y-115771519D02*
G01*
X116582827Y-115778037D01*
X116752666Y-115829557D01*
X116909191Y-115913222D01*
X116944929Y-115942552D01*
X117046386Y-116025814D01*
X117127838Y-116125065D01*
X117158978Y-116163009D01*
X117242643Y-116319534D01*
X117294163Y-116489373D01*
X117311559Y-116666000D01*
X117294163Y-116842627D01*
X117242643Y-117012466D01*
X117158978Y-117168991D01*
X117129648Y-117204729D01*
X117046386Y-117306186D01*
X116944929Y-117389448D01*
X116909191Y-117418778D01*
X116752666Y-117502443D01*
X116582827Y-117553963D01*
X116516642Y-117560482D01*
X116450460Y-117567000D01*
X116111940Y-117567000D01*
X116045758Y-117560482D01*
X115979573Y-117553963D01*
X115809734Y-117502443D01*
X115653209Y-117418778D01*
X115617471Y-117389448D01*
X115516014Y-117306186D01*
X115432752Y-117204729D01*
X115403422Y-117168991D01*
X115319757Y-117012466D01*
X115268237Y-116842627D01*
X115250841Y-116666000D01*
X115268237Y-116489373D01*
X115319757Y-116319534D01*
X115403422Y-116163009D01*
X115434562Y-116125065D01*
X115516014Y-116025814D01*
X115617471Y-115942552D01*
X115653209Y-115913222D01*
X115809734Y-115829557D01*
X115979573Y-115778037D01*
X116045757Y-115771519D01*
X116111940Y-115765000D01*
X116450460Y-115765000D01*
X116516643Y-115771519D01*
X116516643Y-115771519D01*
G37*
G36*
X195244564Y-113112289D02*
G01*
X195435833Y-113191515D01*
X195435835Y-113191516D01*
X195607973Y-113306535D01*
X195754365Y-113452927D01*
X195803067Y-113525814D01*
X195869385Y-113625067D01*
X195948611Y-113816336D01*
X195989000Y-114019384D01*
X195989000Y-114226416D01*
X195948611Y-114429464D01*
X195869385Y-114620733D01*
X195869384Y-114620735D01*
X195754365Y-114792873D01*
X195607973Y-114939265D01*
X195435835Y-115054284D01*
X195435834Y-115054285D01*
X195435833Y-115054285D01*
X195244564Y-115133511D01*
X195041516Y-115173900D01*
X194834484Y-115173900D01*
X194631436Y-115133511D01*
X194440167Y-115054285D01*
X194440166Y-115054285D01*
X194440165Y-115054284D01*
X194268027Y-114939265D01*
X194121635Y-114792873D01*
X194006616Y-114620735D01*
X194006615Y-114620733D01*
X193927389Y-114429464D01*
X193887000Y-114226416D01*
X193887000Y-114019384D01*
X193927389Y-113816336D01*
X194006615Y-113625067D01*
X194072934Y-113525814D01*
X194121635Y-113452927D01*
X194268027Y-113306535D01*
X194440165Y-113191516D01*
X194440167Y-113191515D01*
X194631436Y-113112289D01*
X194834484Y-113071900D01*
X195041516Y-113071900D01*
X195244564Y-113112289D01*
X195244564Y-113112289D01*
G37*
G36*
X116516642Y-113271518D02*
G01*
X116582827Y-113278037D01*
X116752666Y-113329557D01*
X116909191Y-113413222D01*
X116944929Y-113442552D01*
X117046386Y-113525814D01*
X117127838Y-113625065D01*
X117158978Y-113663009D01*
X117242643Y-113819534D01*
X117294163Y-113989373D01*
X117311559Y-114166000D01*
X117294163Y-114342627D01*
X117242643Y-114512466D01*
X117158978Y-114668991D01*
X117129648Y-114704729D01*
X117046386Y-114806186D01*
X116944929Y-114889448D01*
X116909191Y-114918778D01*
X116752666Y-115002443D01*
X116582827Y-115053963D01*
X116516642Y-115060482D01*
X116450460Y-115067000D01*
X116111940Y-115067000D01*
X116045758Y-115060482D01*
X115979573Y-115053963D01*
X115809734Y-115002443D01*
X115653209Y-114918778D01*
X115617471Y-114889448D01*
X115516014Y-114806186D01*
X115432752Y-114704729D01*
X115403422Y-114668991D01*
X115319757Y-114512466D01*
X115268237Y-114342627D01*
X115250841Y-114166000D01*
X115268237Y-113989373D01*
X115319757Y-113819534D01*
X115403422Y-113663009D01*
X115434562Y-113625065D01*
X115516014Y-113525814D01*
X115617471Y-113442552D01*
X115653209Y-113413222D01*
X115809734Y-113329557D01*
X115979573Y-113278037D01*
X116045758Y-113271518D01*
X116111940Y-113265000D01*
X116450460Y-113265000D01*
X116516642Y-113271518D01*
X116516642Y-113271518D01*
G37*
G36*
X209744564Y-110612289D02*
G01*
X209935833Y-110691515D01*
X209935835Y-110691516D01*
X210107973Y-110806535D01*
X210254365Y-110952927D01*
X210303067Y-111025814D01*
X210369385Y-111125067D01*
X210448611Y-111316336D01*
X210489000Y-111519384D01*
X210489000Y-111726416D01*
X210448611Y-111929464D01*
X210369385Y-112120733D01*
X210369384Y-112120735D01*
X210254365Y-112292873D01*
X210107973Y-112439265D01*
X209935835Y-112554284D01*
X209935834Y-112554285D01*
X209935833Y-112554285D01*
X209744564Y-112633511D01*
X209541516Y-112673900D01*
X209334484Y-112673900D01*
X209131436Y-112633511D01*
X208940167Y-112554285D01*
X208940166Y-112554285D01*
X208940165Y-112554284D01*
X208768027Y-112439265D01*
X208621635Y-112292873D01*
X208506616Y-112120735D01*
X208506615Y-112120733D01*
X208427389Y-111929464D01*
X208387000Y-111726416D01*
X208387000Y-111519384D01*
X208427389Y-111316336D01*
X208506615Y-111125067D01*
X208572934Y-111025814D01*
X208621635Y-110952927D01*
X208768027Y-110806535D01*
X208940165Y-110691516D01*
X208940167Y-110691515D01*
X209131436Y-110612289D01*
X209334484Y-110571900D01*
X209541516Y-110571900D01*
X209744564Y-110612289D01*
X209744564Y-110612289D01*
G37*
G36*
X195989000Y-112673900D02*
G01*
X193887000Y-112673900D01*
X193887000Y-110571900D01*
X195989000Y-110571900D01*
X195989000Y-112673900D01*
X195989000Y-112673900D01*
G37*
G36*
X116516642Y-110771518D02*
G01*
X116582827Y-110778037D01*
X116752666Y-110829557D01*
X116909191Y-110913222D01*
X116944929Y-110942552D01*
X117046386Y-111025814D01*
X117127838Y-111125065D01*
X117158978Y-111163009D01*
X117242643Y-111319534D01*
X117294163Y-111489373D01*
X117311559Y-111666000D01*
X117294163Y-111842627D01*
X117242643Y-112012466D01*
X117158978Y-112168991D01*
X117129648Y-112204729D01*
X117046386Y-112306186D01*
X116944929Y-112389448D01*
X116909191Y-112418778D01*
X116752666Y-112502443D01*
X116582827Y-112553963D01*
X116516642Y-112560482D01*
X116450460Y-112567000D01*
X116111940Y-112567000D01*
X116045758Y-112560482D01*
X115979573Y-112553963D01*
X115809734Y-112502443D01*
X115653209Y-112418778D01*
X115617471Y-112389448D01*
X115516014Y-112306186D01*
X115432752Y-112204729D01*
X115403422Y-112168991D01*
X115319757Y-112012466D01*
X115268237Y-111842627D01*
X115250841Y-111666000D01*
X115268237Y-111489373D01*
X115319757Y-111319534D01*
X115403422Y-111163009D01*
X115434562Y-111125065D01*
X115516014Y-111025814D01*
X115617471Y-110942552D01*
X115653209Y-110913222D01*
X115809734Y-110829557D01*
X115979573Y-110778037D01*
X116045758Y-110771518D01*
X116111940Y-110765000D01*
X116450460Y-110765000D01*
X116516642Y-110771518D01*
X116516642Y-110771518D01*
G37*
G36*
X116516643Y-108271519D02*
G01*
X116582827Y-108278037D01*
X116752666Y-108329557D01*
X116909191Y-108413222D01*
X116944929Y-108442552D01*
X117046386Y-108525814D01*
X117129648Y-108627271D01*
X117158978Y-108663009D01*
X117242643Y-108819534D01*
X117294163Y-108989373D01*
X117311559Y-109166000D01*
X117294163Y-109342627D01*
X117242643Y-109512466D01*
X117158978Y-109668991D01*
X117129648Y-109704729D01*
X117046386Y-109806186D01*
X116944929Y-109889448D01*
X116909191Y-109918778D01*
X116752666Y-110002443D01*
X116582827Y-110053963D01*
X116516643Y-110060481D01*
X116450460Y-110067000D01*
X116111940Y-110067000D01*
X116045757Y-110060481D01*
X115979573Y-110053963D01*
X115809734Y-110002443D01*
X115653209Y-109918778D01*
X115617471Y-109889448D01*
X115516014Y-109806186D01*
X115432752Y-109704729D01*
X115403422Y-109668991D01*
X115319757Y-109512466D01*
X115268237Y-109342627D01*
X115250841Y-109166000D01*
X115268237Y-108989373D01*
X115319757Y-108819534D01*
X115403422Y-108663009D01*
X115432752Y-108627271D01*
X115516014Y-108525814D01*
X115617471Y-108442552D01*
X115653209Y-108413222D01*
X115809734Y-108329557D01*
X115979573Y-108278037D01*
X116045757Y-108271519D01*
X116111940Y-108265000D01*
X116450460Y-108265000D01*
X116516643Y-108271519D01*
X116516643Y-108271519D01*
G37*
G36*
X204089000Y-109573900D02*
G01*
X200787000Y-109573900D01*
X200787000Y-107471900D01*
X204089000Y-107471900D01*
X204089000Y-109573900D01*
X204089000Y-109573900D01*
G37*
G36*
X187473543Y-107411119D02*
G01*
X187539727Y-107417637D01*
X187709566Y-107469157D01*
X187866091Y-107552822D01*
X187901829Y-107582152D01*
X188003286Y-107665414D01*
X188086548Y-107766871D01*
X188115878Y-107802609D01*
X188199543Y-107959134D01*
X188251063Y-108128973D01*
X188268459Y-108305600D01*
X188251063Y-108482227D01*
X188199543Y-108652066D01*
X188115878Y-108808591D01*
X188106897Y-108819534D01*
X188003286Y-108945786D01*
X187901829Y-109029048D01*
X187866091Y-109058378D01*
X187709566Y-109142043D01*
X187539727Y-109193563D01*
X187473543Y-109200081D01*
X187407360Y-109206600D01*
X187318840Y-109206600D01*
X187252657Y-109200081D01*
X187186473Y-109193563D01*
X187016634Y-109142043D01*
X186860109Y-109058378D01*
X186824371Y-109029048D01*
X186722914Y-108945786D01*
X186619303Y-108819534D01*
X186610322Y-108808591D01*
X186526657Y-108652066D01*
X186475137Y-108482227D01*
X186457741Y-108305600D01*
X186475137Y-108128973D01*
X186526657Y-107959134D01*
X186610322Y-107802609D01*
X186639652Y-107766871D01*
X186722914Y-107665414D01*
X186824371Y-107582152D01*
X186860109Y-107552822D01*
X187016634Y-107469157D01*
X187186473Y-107417637D01*
X187252657Y-107411119D01*
X187318840Y-107404600D01*
X187407360Y-107404600D01*
X187473543Y-107411119D01*
X187473543Y-107411119D01*
G37*
G36*
X210901487Y-107290907D02*
G01*
X210901490Y-107290908D01*
X210901489Y-107290908D01*
X211079109Y-107364480D01*
X211079110Y-107364481D01*
X211238961Y-107471289D01*
X211374911Y-107607239D01*
X211463958Y-107740509D01*
X211481720Y-107767091D01*
X211538625Y-107904473D01*
X211555293Y-107944713D01*
X211592800Y-108133271D01*
X211592800Y-108325529D01*
X211555293Y-108514087D01*
X211550435Y-108525815D01*
X211481720Y-108691709D01*
X211481719Y-108691710D01*
X211374911Y-108851561D01*
X211238961Y-108987511D01*
X211105691Y-109076558D01*
X211079109Y-109094320D01*
X210941727Y-109151225D01*
X210901487Y-109167893D01*
X210712929Y-109205400D01*
X210520671Y-109205400D01*
X210332113Y-109167893D01*
X210291873Y-109151225D01*
X210154491Y-109094320D01*
X210127909Y-109076558D01*
X209994639Y-108987511D01*
X209858689Y-108851561D01*
X209751881Y-108691710D01*
X209751880Y-108691709D01*
X209683165Y-108525815D01*
X209678307Y-108514087D01*
X209640800Y-108325529D01*
X209640800Y-108133271D01*
X209678307Y-107944713D01*
X209694975Y-107904473D01*
X209751880Y-107767091D01*
X209769642Y-107740509D01*
X209858689Y-107607239D01*
X209994639Y-107471289D01*
X210154490Y-107364481D01*
X210154491Y-107364480D01*
X210332111Y-107290908D01*
X210332110Y-107290908D01*
X210332113Y-107290907D01*
X210520671Y-107253400D01*
X210712929Y-107253400D01*
X210901487Y-107290907D01*
X210901487Y-107290907D01*
G37*
G36*
X195661487Y-107290907D02*
G01*
X195661490Y-107290908D01*
X195661489Y-107290908D01*
X195839109Y-107364480D01*
X195839110Y-107364481D01*
X195998961Y-107471289D01*
X196134911Y-107607239D01*
X196223958Y-107740509D01*
X196241720Y-107767091D01*
X196298625Y-107904473D01*
X196315293Y-107944713D01*
X196352800Y-108133271D01*
X196352800Y-108325529D01*
X196315293Y-108514087D01*
X196310435Y-108525815D01*
X196241720Y-108691709D01*
X196241719Y-108691710D01*
X196134911Y-108851561D01*
X195998961Y-108987511D01*
X195865691Y-109076558D01*
X195839109Y-109094320D01*
X195701727Y-109151225D01*
X195661487Y-109167893D01*
X195472929Y-109205400D01*
X195280671Y-109205400D01*
X195092113Y-109167893D01*
X195051873Y-109151225D01*
X194914491Y-109094320D01*
X194887909Y-109076558D01*
X194754639Y-108987511D01*
X194618689Y-108851561D01*
X194511881Y-108691710D01*
X194511880Y-108691709D01*
X194443165Y-108525815D01*
X194438307Y-108514087D01*
X194400800Y-108325529D01*
X194400800Y-108133271D01*
X194438307Y-107944713D01*
X194454975Y-107904473D01*
X194511880Y-107767091D01*
X194529642Y-107740509D01*
X194618689Y-107607239D01*
X194754639Y-107471289D01*
X194914490Y-107364481D01*
X194914491Y-107364480D01*
X195092111Y-107290908D01*
X195092110Y-107290908D01*
X195092113Y-107290907D01*
X195280671Y-107253400D01*
X195472929Y-107253400D01*
X195661487Y-107290907D01*
X195661487Y-107290907D01*
G37*
G36*
X116516642Y-105771518D02*
G01*
X116582827Y-105778037D01*
X116752666Y-105829557D01*
X116909191Y-105913222D01*
X116944531Y-105942225D01*
X117046386Y-106025814D01*
X117129648Y-106127271D01*
X117158978Y-106163009D01*
X117242643Y-106319534D01*
X117294163Y-106489373D01*
X117311559Y-106666000D01*
X117294163Y-106842627D01*
X117242643Y-107012466D01*
X117158978Y-107168991D01*
X117129648Y-107204729D01*
X117046386Y-107306186D01*
X116975352Y-107364481D01*
X116909191Y-107418778D01*
X116909189Y-107418779D01*
X116809808Y-107471900D01*
X116752666Y-107502443D01*
X116582827Y-107553963D01*
X116516642Y-107560482D01*
X116450460Y-107567000D01*
X116111940Y-107567000D01*
X116045758Y-107560482D01*
X115979573Y-107553963D01*
X115809734Y-107502443D01*
X115752593Y-107471900D01*
X115653211Y-107418779D01*
X115653209Y-107418778D01*
X115587048Y-107364481D01*
X115516014Y-107306186D01*
X115432752Y-107204729D01*
X115403422Y-107168991D01*
X115319757Y-107012466D01*
X115268237Y-106842627D01*
X115250841Y-106666000D01*
X115268237Y-106489373D01*
X115319757Y-106319534D01*
X115403422Y-106163009D01*
X115432752Y-106127271D01*
X115516014Y-106025814D01*
X115617869Y-105942225D01*
X115653209Y-105913222D01*
X115809734Y-105829557D01*
X115979573Y-105778037D01*
X116045758Y-105771518D01*
X116111940Y-105765000D01*
X116450460Y-105765000D01*
X116516642Y-105771518D01*
X116516642Y-105771518D01*
G37*
G36*
X192794600Y-107354400D02*
G01*
X190992600Y-107354400D01*
X190992600Y-105552400D01*
X192794600Y-105552400D01*
X192794600Y-107354400D01*
X192794600Y-107354400D01*
G37*
G36*
X187473543Y-104871119D02*
G01*
X187539727Y-104877637D01*
X187709566Y-104929157D01*
X187866091Y-105012822D01*
X187901829Y-105042152D01*
X188003286Y-105125414D01*
X188086548Y-105226871D01*
X188115878Y-105262609D01*
X188199543Y-105419134D01*
X188251063Y-105588973D01*
X188268459Y-105765600D01*
X188251063Y-105942227D01*
X188199543Y-106112066D01*
X188115878Y-106268591D01*
X188112733Y-106272423D01*
X188003286Y-106405786D01*
X187901829Y-106489048D01*
X187866091Y-106518378D01*
X187709566Y-106602043D01*
X187539727Y-106653563D01*
X187473542Y-106660082D01*
X187407360Y-106666600D01*
X187318840Y-106666600D01*
X187252658Y-106660082D01*
X187186473Y-106653563D01*
X187016634Y-106602043D01*
X186860109Y-106518378D01*
X186824371Y-106489048D01*
X186722914Y-106405786D01*
X186613467Y-106272423D01*
X186610322Y-106268591D01*
X186526657Y-106112066D01*
X186475137Y-105942227D01*
X186457741Y-105765600D01*
X186475137Y-105588973D01*
X186526657Y-105419134D01*
X186610322Y-105262609D01*
X186639652Y-105226871D01*
X186722914Y-105125414D01*
X186824371Y-105042152D01*
X186860109Y-105012822D01*
X187016634Y-104929157D01*
X187186473Y-104877637D01*
X187252658Y-104871118D01*
X187318840Y-104864600D01*
X187407360Y-104864600D01*
X187473543Y-104871119D01*
X187473543Y-104871119D01*
G37*
G36*
X195643578Y-104809947D02*
G01*
X195810024Y-104878891D01*
X195959822Y-104978983D01*
X196087217Y-105106378D01*
X196187309Y-105256176D01*
X196256253Y-105422622D01*
X196291400Y-105599318D01*
X196291400Y-105779482D01*
X196256253Y-105956178D01*
X196187309Y-106122624D01*
X196087217Y-106272422D01*
X195959822Y-106399817D01*
X195810024Y-106499909D01*
X195643578Y-106568853D01*
X195466882Y-106604000D01*
X195286718Y-106604000D01*
X195110022Y-106568853D01*
X194943576Y-106499909D01*
X194793778Y-106399817D01*
X194666383Y-106272422D01*
X194566291Y-106122624D01*
X194497347Y-105956178D01*
X194462200Y-105779482D01*
X194462200Y-105599318D01*
X194497347Y-105422622D01*
X194566291Y-105256176D01*
X194666383Y-105106378D01*
X194793778Y-104978983D01*
X194943576Y-104878891D01*
X195110022Y-104809947D01*
X195286718Y-104774800D01*
X195466882Y-104774800D01*
X195643578Y-104809947D01*
X195643578Y-104809947D01*
G37*
G36*
X211531400Y-106604000D02*
G01*
X209702200Y-106604000D01*
X209702200Y-104774800D01*
X211531400Y-104774800D01*
X211531400Y-106604000D01*
X211531400Y-106604000D01*
G37*
G36*
X116516642Y-103271518D02*
G01*
X116582827Y-103278037D01*
X116752666Y-103329557D01*
X116909191Y-103413222D01*
X116944929Y-103442552D01*
X117046386Y-103525814D01*
X117129648Y-103627271D01*
X117158978Y-103663009D01*
X117242643Y-103819534D01*
X117294163Y-103989373D01*
X117311559Y-104166000D01*
X117294163Y-104342627D01*
X117242643Y-104512466D01*
X117158978Y-104668991D01*
X117129648Y-104704729D01*
X117046386Y-104806186D01*
X116975486Y-104864371D01*
X116909191Y-104918778D01*
X116752666Y-105002443D01*
X116582827Y-105053963D01*
X116516642Y-105060482D01*
X116450460Y-105067000D01*
X116111940Y-105067000D01*
X116045758Y-105060482D01*
X115979573Y-105053963D01*
X115809734Y-105002443D01*
X115653209Y-104918778D01*
X115586914Y-104864371D01*
X115516014Y-104806186D01*
X115432752Y-104704729D01*
X115403422Y-104668991D01*
X115319757Y-104512466D01*
X115268237Y-104342627D01*
X115250841Y-104166000D01*
X115268237Y-103989373D01*
X115319757Y-103819534D01*
X115403422Y-103663009D01*
X115432752Y-103627271D01*
X115516014Y-103525814D01*
X115617471Y-103442552D01*
X115653209Y-103413222D01*
X115809734Y-103329557D01*
X115979573Y-103278037D01*
X116045758Y-103271518D01*
X116111940Y-103265000D01*
X116450460Y-103265000D01*
X116516642Y-103271518D01*
X116516642Y-103271518D01*
G37*
G36*
X123115263Y-96818829D02*
G01*
X123483028Y-96930390D01*
X123821962Y-97111554D01*
X124119040Y-97355360D01*
X124362846Y-97652438D01*
X124544010Y-97991372D01*
X124655571Y-98359137D01*
X124683800Y-98645753D01*
X124683800Y-103037447D01*
X124655571Y-103324063D01*
X124544010Y-103691828D01*
X124362846Y-104030762D01*
X124119040Y-104327840D01*
X123821962Y-104571646D01*
X123483027Y-104752810D01*
X123115262Y-104864371D01*
X122732800Y-104902040D01*
X122350337Y-104864371D01*
X121982572Y-104752810D01*
X121643638Y-104571646D01*
X121346560Y-104327840D01*
X121102754Y-104030762D01*
X120921590Y-103691827D01*
X120810029Y-103324062D01*
X120781800Y-103037446D01*
X120781801Y-98645753D01*
X120810030Y-98359137D01*
X120921591Y-97991372D01*
X121102755Y-97652438D01*
X121346561Y-97355360D01*
X121643639Y-97111554D01*
X121982573Y-96930390D01*
X122350338Y-96818829D01*
X122732800Y-96781160D01*
X123115263Y-96818829D01*
X123115263Y-96818829D01*
G37*
G36*
X192004043Y-103018919D02*
G01*
X192070227Y-103025437D01*
X192240066Y-103076957D01*
X192396591Y-103160622D01*
X192432329Y-103189952D01*
X192533786Y-103273214D01*
X192617048Y-103374671D01*
X192646378Y-103410409D01*
X192730043Y-103566934D01*
X192781563Y-103736773D01*
X192798959Y-103913400D01*
X192781563Y-104090027D01*
X192730043Y-104259866D01*
X192646378Y-104416391D01*
X192617048Y-104452129D01*
X192533786Y-104553586D01*
X192432329Y-104636848D01*
X192396591Y-104666178D01*
X192240066Y-104749843D01*
X192070227Y-104801363D01*
X192021257Y-104806186D01*
X191937860Y-104814400D01*
X191849340Y-104814400D01*
X191765943Y-104806186D01*
X191716973Y-104801363D01*
X191547134Y-104749843D01*
X191390609Y-104666178D01*
X191354871Y-104636848D01*
X191253414Y-104553586D01*
X191170152Y-104452129D01*
X191140822Y-104416391D01*
X191057157Y-104259866D01*
X191005637Y-104090027D01*
X190988241Y-103913400D01*
X191005637Y-103736773D01*
X191057157Y-103566934D01*
X191140822Y-103410409D01*
X191170152Y-103374671D01*
X191253414Y-103273214D01*
X191354871Y-103189952D01*
X191390609Y-103160622D01*
X191547134Y-103076957D01*
X191716973Y-103025437D01*
X191783157Y-103018919D01*
X191849340Y-103012400D01*
X191937860Y-103012400D01*
X192004043Y-103018919D01*
X192004043Y-103018919D01*
G37*
G36*
X187473543Y-102331119D02*
G01*
X187539727Y-102337637D01*
X187709566Y-102389157D01*
X187866091Y-102472822D01*
X187901829Y-102502152D01*
X188003286Y-102585414D01*
X188086548Y-102686871D01*
X188115878Y-102722609D01*
X188199543Y-102879134D01*
X188251063Y-103048973D01*
X188268459Y-103225600D01*
X188251063Y-103402227D01*
X188199543Y-103572066D01*
X188115878Y-103728591D01*
X188086548Y-103764329D01*
X188003286Y-103865786D01*
X187901829Y-103949048D01*
X187866091Y-103978378D01*
X187709566Y-104062043D01*
X187539727Y-104113563D01*
X187473542Y-104120082D01*
X187407360Y-104126600D01*
X187318840Y-104126600D01*
X187252657Y-104120081D01*
X187186473Y-104113563D01*
X187016634Y-104062043D01*
X186860109Y-103978378D01*
X186824371Y-103949048D01*
X186722914Y-103865786D01*
X186639652Y-103764329D01*
X186610322Y-103728591D01*
X186526657Y-103572066D01*
X186475137Y-103402227D01*
X186457741Y-103225600D01*
X186475137Y-103048973D01*
X186526657Y-102879134D01*
X186610322Y-102722609D01*
X186639652Y-102686871D01*
X186722914Y-102585414D01*
X186824371Y-102502152D01*
X186860109Y-102472822D01*
X187016634Y-102389157D01*
X187186473Y-102337637D01*
X187252657Y-102331119D01*
X187318840Y-102324600D01*
X187407360Y-102324600D01*
X187473543Y-102331119D01*
X187473543Y-102331119D01*
G37*
G36*
X195643578Y-102269947D02*
G01*
X195810024Y-102338891D01*
X195959822Y-102438983D01*
X196087217Y-102566378D01*
X196187309Y-102716176D01*
X196256253Y-102882622D01*
X196291400Y-103059318D01*
X196291400Y-103239482D01*
X196256253Y-103416178D01*
X196187309Y-103582624D01*
X196087217Y-103732422D01*
X195959822Y-103859817D01*
X195810024Y-103959909D01*
X195643578Y-104028853D01*
X195466882Y-104064000D01*
X195286718Y-104064000D01*
X195110022Y-104028853D01*
X194943576Y-103959909D01*
X194793778Y-103859817D01*
X194666383Y-103732422D01*
X194566291Y-103582624D01*
X194497347Y-103416178D01*
X194462200Y-103239482D01*
X194462200Y-103059318D01*
X194497347Y-102882622D01*
X194566291Y-102716176D01*
X194666383Y-102566378D01*
X194793778Y-102438983D01*
X194943576Y-102338891D01*
X195110022Y-102269947D01*
X195286718Y-102234800D01*
X195466882Y-102234800D01*
X195643578Y-102269947D01*
X195643578Y-102269947D01*
G37*
G36*
X210883578Y-102269947D02*
G01*
X211050024Y-102338891D01*
X211199822Y-102438983D01*
X211327217Y-102566378D01*
X211427309Y-102716176D01*
X211496253Y-102882622D01*
X211531400Y-103059318D01*
X211531400Y-103239482D01*
X211496253Y-103416178D01*
X211427309Y-103582624D01*
X211327217Y-103732422D01*
X211199822Y-103859817D01*
X211050024Y-103959909D01*
X210883578Y-104028853D01*
X210706882Y-104064000D01*
X210526718Y-104064000D01*
X210350022Y-104028853D01*
X210183576Y-103959909D01*
X210033778Y-103859817D01*
X209906383Y-103732422D01*
X209806291Y-103582624D01*
X209737347Y-103416178D01*
X209702200Y-103239482D01*
X209702200Y-103059318D01*
X209737347Y-102882622D01*
X209806291Y-102716176D01*
X209906383Y-102566378D01*
X210033778Y-102438983D01*
X210183576Y-102338891D01*
X210350022Y-102269947D01*
X210526718Y-102234800D01*
X210706882Y-102234800D01*
X210883578Y-102269947D01*
X210883578Y-102269947D01*
G37*
G36*
X192004043Y-100478919D02*
G01*
X192070227Y-100485437D01*
X192240066Y-100536957D01*
X192396591Y-100620622D01*
X192432329Y-100649952D01*
X192533786Y-100733214D01*
X192617048Y-100834671D01*
X192646378Y-100870409D01*
X192730043Y-101026934D01*
X192781563Y-101196773D01*
X192798959Y-101373400D01*
X192781563Y-101550027D01*
X192730043Y-101719866D01*
X192646378Y-101876391D01*
X192617048Y-101912129D01*
X192533786Y-102013586D01*
X192432329Y-102096848D01*
X192396591Y-102126178D01*
X192240066Y-102209843D01*
X192070227Y-102261363D01*
X192004043Y-102267881D01*
X191937860Y-102274400D01*
X191849340Y-102274400D01*
X191783158Y-102267882D01*
X191716973Y-102261363D01*
X191547134Y-102209843D01*
X191390609Y-102126178D01*
X191354871Y-102096848D01*
X191253414Y-102013586D01*
X191170152Y-101912129D01*
X191140822Y-101876391D01*
X191057157Y-101719866D01*
X191005637Y-101550027D01*
X190988241Y-101373400D01*
X191005637Y-101196773D01*
X191057157Y-101026934D01*
X191140822Y-100870409D01*
X191170152Y-100834671D01*
X191253414Y-100733214D01*
X191354871Y-100649952D01*
X191390609Y-100620622D01*
X191547134Y-100536957D01*
X191716973Y-100485437D01*
X191783158Y-100478918D01*
X191849340Y-100472400D01*
X191937860Y-100472400D01*
X192004043Y-100478919D01*
X192004043Y-100478919D01*
G37*
G36*
X129276600Y-102238400D02*
G01*
X127474600Y-102238400D01*
X127474600Y-100436400D01*
X129276600Y-100436400D01*
X129276600Y-102238400D01*
X129276600Y-102238400D01*
G37*
G36*
X187473542Y-99791118D02*
G01*
X187539727Y-99797637D01*
X187709566Y-99849157D01*
X187866091Y-99932822D01*
X187901829Y-99962152D01*
X188003286Y-100045414D01*
X188086548Y-100146871D01*
X188115878Y-100182609D01*
X188199543Y-100339134D01*
X188251063Y-100508973D01*
X188268459Y-100685600D01*
X188251063Y-100862227D01*
X188199543Y-101032066D01*
X188115878Y-101188591D01*
X188086548Y-101224329D01*
X188003286Y-101325786D01*
X187901829Y-101409048D01*
X187866091Y-101438378D01*
X187709566Y-101522043D01*
X187539727Y-101573563D01*
X187473542Y-101580082D01*
X187407360Y-101586600D01*
X187318840Y-101586600D01*
X187252658Y-101580082D01*
X187186473Y-101573563D01*
X187016634Y-101522043D01*
X186860109Y-101438378D01*
X186824371Y-101409048D01*
X186722914Y-101325786D01*
X186639652Y-101224329D01*
X186610322Y-101188591D01*
X186526657Y-101032066D01*
X186475137Y-100862227D01*
X186457741Y-100685600D01*
X186475137Y-100508973D01*
X186526657Y-100339134D01*
X186610322Y-100182609D01*
X186639652Y-100146871D01*
X186722914Y-100045414D01*
X186824371Y-99962152D01*
X186860109Y-99932822D01*
X187016634Y-99849157D01*
X187186473Y-99797637D01*
X187252657Y-99791119D01*
X187318840Y-99784600D01*
X187407360Y-99784600D01*
X187473542Y-99791118D01*
X187473542Y-99791118D01*
G37*
G36*
X195643578Y-99729947D02*
G01*
X195810024Y-99798891D01*
X195959822Y-99898983D01*
X196087217Y-100026378D01*
X196187309Y-100176176D01*
X196256253Y-100342622D01*
X196291400Y-100519318D01*
X196291400Y-100699482D01*
X196256253Y-100876178D01*
X196187309Y-101042624D01*
X196087217Y-101192422D01*
X195959822Y-101319817D01*
X195810024Y-101419909D01*
X195643578Y-101488853D01*
X195466882Y-101524000D01*
X195286718Y-101524000D01*
X195110022Y-101488853D01*
X194943576Y-101419909D01*
X194793778Y-101319817D01*
X194666383Y-101192422D01*
X194566291Y-101042624D01*
X194497347Y-100876178D01*
X194462200Y-100699482D01*
X194462200Y-100519318D01*
X194497347Y-100342622D01*
X194566291Y-100176176D01*
X194666383Y-100026378D01*
X194793778Y-99898983D01*
X194943576Y-99798891D01*
X195110022Y-99729947D01*
X195286718Y-99694800D01*
X195466882Y-99694800D01*
X195643578Y-99729947D01*
X195643578Y-99729947D01*
G37*
G36*
X210883578Y-99729947D02*
G01*
X211050024Y-99798891D01*
X211199822Y-99898983D01*
X211327217Y-100026378D01*
X211427309Y-100176176D01*
X211496253Y-100342622D01*
X211531400Y-100519318D01*
X211531400Y-100699482D01*
X211496253Y-100876178D01*
X211427309Y-101042624D01*
X211327217Y-101192422D01*
X211199822Y-101319817D01*
X211050024Y-101419909D01*
X210883578Y-101488853D01*
X210706882Y-101524000D01*
X210526718Y-101524000D01*
X210350022Y-101488853D01*
X210183576Y-101419909D01*
X210033778Y-101319817D01*
X209906383Y-101192422D01*
X209806291Y-101042624D01*
X209737347Y-100876178D01*
X209702200Y-100699482D01*
X209702200Y-100519318D01*
X209737347Y-100342622D01*
X209806291Y-100176176D01*
X209906383Y-100026378D01*
X210033778Y-99898983D01*
X210183576Y-99798891D01*
X210350022Y-99729947D01*
X210526718Y-99694800D01*
X210706882Y-99694800D01*
X210883578Y-99729947D01*
X210883578Y-99729947D01*
G37*
G36*
X116353500Y-99805400D02*
G01*
X114151500Y-99805400D01*
X114151500Y-97603400D01*
X116353500Y-97603400D01*
X116353500Y-99805400D01*
X116353500Y-99805400D01*
G37*
G36*
X192004042Y-97938918D02*
G01*
X192070227Y-97945437D01*
X192240066Y-97996957D01*
X192396591Y-98080622D01*
X192432329Y-98109952D01*
X192533786Y-98193214D01*
X192616833Y-98294409D01*
X192646378Y-98330409D01*
X192730043Y-98486934D01*
X192781563Y-98656773D01*
X192798959Y-98833400D01*
X192781563Y-99010027D01*
X192730043Y-99179866D01*
X192646378Y-99336391D01*
X192617048Y-99372129D01*
X192533786Y-99473586D01*
X192440457Y-99550178D01*
X192396591Y-99586178D01*
X192240066Y-99669843D01*
X192070227Y-99721363D01*
X192004043Y-99727881D01*
X191937860Y-99734400D01*
X191849340Y-99734400D01*
X191783157Y-99727881D01*
X191716973Y-99721363D01*
X191547134Y-99669843D01*
X191390609Y-99586178D01*
X191346743Y-99550178D01*
X191253414Y-99473586D01*
X191170152Y-99372129D01*
X191140822Y-99336391D01*
X191057157Y-99179866D01*
X191005637Y-99010027D01*
X190988241Y-98833400D01*
X191005637Y-98656773D01*
X191057157Y-98486934D01*
X191140822Y-98330409D01*
X191170367Y-98294409D01*
X191253414Y-98193214D01*
X191354871Y-98109952D01*
X191390609Y-98080622D01*
X191547134Y-97996957D01*
X191716973Y-97945437D01*
X191783158Y-97938918D01*
X191849340Y-97932400D01*
X191937860Y-97932400D01*
X192004042Y-97938918D01*
X192004042Y-97938918D01*
G37*
G36*
X128486043Y-97902919D02*
G01*
X128552227Y-97909437D01*
X128722066Y-97960957D01*
X128722068Y-97960958D01*
X128778964Y-97991370D01*
X128878591Y-98044622D01*
X128914329Y-98073952D01*
X129015786Y-98157214D01*
X129099048Y-98258671D01*
X129128378Y-98294409D01*
X129212043Y-98450934D01*
X129263563Y-98620773D01*
X129280959Y-98797400D01*
X129263563Y-98974027D01*
X129212043Y-99143866D01*
X129128378Y-99300391D01*
X129099048Y-99336129D01*
X129015786Y-99437586D01*
X128914329Y-99520848D01*
X128878591Y-99550178D01*
X128722066Y-99633843D01*
X128552227Y-99685363D01*
X128486043Y-99691881D01*
X128419860Y-99698400D01*
X128331340Y-99698400D01*
X128265157Y-99691881D01*
X128198973Y-99685363D01*
X128029134Y-99633843D01*
X127872609Y-99550178D01*
X127836871Y-99520848D01*
X127735414Y-99437586D01*
X127652152Y-99336129D01*
X127622822Y-99300391D01*
X127539157Y-99143866D01*
X127487637Y-98974027D01*
X127470241Y-98797400D01*
X127487637Y-98620773D01*
X127539157Y-98450934D01*
X127622822Y-98294409D01*
X127652152Y-98258671D01*
X127735414Y-98157214D01*
X127836871Y-98073952D01*
X127872609Y-98044622D01*
X127972236Y-97991370D01*
X128029132Y-97960958D01*
X128029134Y-97960957D01*
X128198973Y-97909437D01*
X128265157Y-97902919D01*
X128331340Y-97896400D01*
X128419860Y-97896400D01*
X128486043Y-97902919D01*
X128486043Y-97902919D01*
G37*
G36*
X187473543Y-97251119D02*
G01*
X187539727Y-97257637D01*
X187709566Y-97309157D01*
X187866091Y-97392822D01*
X187901829Y-97422152D01*
X188003286Y-97505414D01*
X188083700Y-97603400D01*
X188115878Y-97642609D01*
X188199543Y-97799134D01*
X188251063Y-97968973D01*
X188268459Y-98145600D01*
X188251063Y-98322227D01*
X188199543Y-98492066D01*
X188115878Y-98648591D01*
X188086548Y-98684329D01*
X188003286Y-98785786D01*
X187901829Y-98869048D01*
X187866091Y-98898378D01*
X187709566Y-98982043D01*
X187539727Y-99033563D01*
X187473542Y-99040082D01*
X187407360Y-99046600D01*
X187318840Y-99046600D01*
X187252657Y-99040081D01*
X187186473Y-99033563D01*
X187016634Y-98982043D01*
X186860109Y-98898378D01*
X186824371Y-98869048D01*
X186722914Y-98785786D01*
X186639652Y-98684329D01*
X186610322Y-98648591D01*
X186526657Y-98492066D01*
X186475137Y-98322227D01*
X186457741Y-98145600D01*
X186475137Y-97968973D01*
X186526657Y-97799134D01*
X186610322Y-97642609D01*
X186642500Y-97603400D01*
X186722914Y-97505414D01*
X186824371Y-97422152D01*
X186860109Y-97392822D01*
X187016634Y-97309157D01*
X187186473Y-97257637D01*
X187252657Y-97251119D01*
X187318840Y-97244600D01*
X187407360Y-97244600D01*
X187473543Y-97251119D01*
X187473543Y-97251119D01*
G37*
G36*
X195643578Y-97189947D02*
G01*
X195810024Y-97258891D01*
X195959822Y-97358983D01*
X196087217Y-97486378D01*
X196187309Y-97636176D01*
X196256253Y-97802622D01*
X196291400Y-97979318D01*
X196291400Y-98159482D01*
X196256253Y-98336178D01*
X196187309Y-98502624D01*
X196087217Y-98652422D01*
X195959822Y-98779817D01*
X195810024Y-98879909D01*
X195643578Y-98948853D01*
X195466882Y-98984000D01*
X195286718Y-98984000D01*
X195110022Y-98948853D01*
X194943576Y-98879909D01*
X194793778Y-98779817D01*
X194666383Y-98652422D01*
X194566291Y-98502624D01*
X194497347Y-98336178D01*
X194462200Y-98159482D01*
X194462200Y-97979318D01*
X194497347Y-97802622D01*
X194566291Y-97636176D01*
X194666383Y-97486378D01*
X194793778Y-97358983D01*
X194943576Y-97258891D01*
X195110022Y-97189947D01*
X195286718Y-97154800D01*
X195466882Y-97154800D01*
X195643578Y-97189947D01*
X195643578Y-97189947D01*
G37*
G36*
X210883578Y-97189947D02*
G01*
X211050024Y-97258891D01*
X211199822Y-97358983D01*
X211327217Y-97486378D01*
X211427309Y-97636176D01*
X211496253Y-97802622D01*
X211531400Y-97979318D01*
X211531400Y-98159482D01*
X211496253Y-98336178D01*
X211427309Y-98502624D01*
X211327217Y-98652422D01*
X211199822Y-98779817D01*
X211050024Y-98879909D01*
X210883578Y-98948853D01*
X210706882Y-98984000D01*
X210526718Y-98984000D01*
X210350022Y-98948853D01*
X210183576Y-98879909D01*
X210033778Y-98779817D01*
X209906383Y-98652422D01*
X209806291Y-98502624D01*
X209737347Y-98336178D01*
X209702200Y-98159482D01*
X209702200Y-97979318D01*
X209737347Y-97802622D01*
X209806291Y-97636176D01*
X209906383Y-97486378D01*
X210033778Y-97358983D01*
X210183576Y-97258891D01*
X210350022Y-97189947D01*
X210526718Y-97154800D01*
X210706882Y-97154800D01*
X210883578Y-97189947D01*
X210883578Y-97189947D01*
G37*
G36*
X192004042Y-95398918D02*
G01*
X192070227Y-95405437D01*
X192240066Y-95456957D01*
X192396591Y-95540622D01*
X192425528Y-95564370D01*
X192533786Y-95653214D01*
X192616833Y-95754409D01*
X192646378Y-95790409D01*
X192730043Y-95946934D01*
X192781563Y-96116773D01*
X192798959Y-96293400D01*
X192781563Y-96470027D01*
X192730043Y-96639866D01*
X192646378Y-96796391D01*
X192617048Y-96832129D01*
X192533786Y-96933586D01*
X192440457Y-97010178D01*
X192396591Y-97046178D01*
X192240066Y-97129843D01*
X192070227Y-97181363D01*
X192004042Y-97187882D01*
X191937860Y-97194400D01*
X191849340Y-97194400D01*
X191783158Y-97187882D01*
X191716973Y-97181363D01*
X191547134Y-97129843D01*
X191390609Y-97046178D01*
X191346743Y-97010178D01*
X191253414Y-96933586D01*
X191170152Y-96832129D01*
X191140822Y-96796391D01*
X191057157Y-96639866D01*
X191005637Y-96470027D01*
X190988241Y-96293400D01*
X191005637Y-96116773D01*
X191057157Y-95946934D01*
X191140822Y-95790409D01*
X191170367Y-95754409D01*
X191253414Y-95653214D01*
X191361672Y-95564370D01*
X191390609Y-95540622D01*
X191547134Y-95456957D01*
X191716973Y-95405437D01*
X191783158Y-95398918D01*
X191849340Y-95392400D01*
X191937860Y-95392400D01*
X192004042Y-95398918D01*
X192004042Y-95398918D01*
G37*
G36*
X128486042Y-95362918D02*
G01*
X128552227Y-95369437D01*
X128722066Y-95420957D01*
X128722068Y-95420958D01*
X128781655Y-95452808D01*
X128878591Y-95504622D01*
X128914329Y-95533952D01*
X129015786Y-95617214D01*
X129099048Y-95718671D01*
X129128378Y-95754409D01*
X129212043Y-95910934D01*
X129263563Y-96080773D01*
X129280959Y-96257400D01*
X129263563Y-96434027D01*
X129212043Y-96603866D01*
X129128378Y-96760391D01*
X129111333Y-96781160D01*
X129015786Y-96897586D01*
X128914329Y-96980848D01*
X128878591Y-97010178D01*
X128722066Y-97093843D01*
X128552227Y-97145363D01*
X128486042Y-97151882D01*
X128419860Y-97158400D01*
X128331340Y-97158400D01*
X128265158Y-97151882D01*
X128198973Y-97145363D01*
X128029134Y-97093843D01*
X127872609Y-97010178D01*
X127836871Y-96980848D01*
X127735414Y-96897586D01*
X127639867Y-96781160D01*
X127622822Y-96760391D01*
X127539157Y-96603866D01*
X127487637Y-96434027D01*
X127470241Y-96257400D01*
X127487637Y-96080773D01*
X127539157Y-95910934D01*
X127622822Y-95754409D01*
X127652152Y-95718671D01*
X127735414Y-95617214D01*
X127836871Y-95533952D01*
X127872609Y-95504622D01*
X127969545Y-95452808D01*
X128029132Y-95420958D01*
X128029134Y-95420957D01*
X128198973Y-95369437D01*
X128265158Y-95362918D01*
X128331340Y-95356400D01*
X128419860Y-95356400D01*
X128486042Y-95362918D01*
X128486042Y-95362918D01*
G37*
G36*
X206951400Y-96753500D02*
G01*
X205849400Y-96753500D01*
X205849400Y-95651500D01*
X206951400Y-95651500D01*
X206951400Y-96753500D01*
X206951400Y-96753500D01*
G37*
G36*
X187473543Y-94711119D02*
G01*
X187539727Y-94717637D01*
X187709566Y-94769157D01*
X187866091Y-94852822D01*
X187901829Y-94882152D01*
X188003286Y-94965414D01*
X188086548Y-95066871D01*
X188115878Y-95102609D01*
X188199543Y-95259134D01*
X188251063Y-95428973D01*
X188268459Y-95605600D01*
X188251063Y-95782227D01*
X188199543Y-95952066D01*
X188115878Y-96108591D01*
X188086548Y-96144329D01*
X188003286Y-96245786D01*
X187901829Y-96329048D01*
X187866091Y-96358378D01*
X187709566Y-96442043D01*
X187539727Y-96493563D01*
X187473543Y-96500081D01*
X187407360Y-96506600D01*
X187318840Y-96506600D01*
X187252657Y-96500081D01*
X187186473Y-96493563D01*
X187016634Y-96442043D01*
X186860109Y-96358378D01*
X186824371Y-96329048D01*
X186722914Y-96245786D01*
X186639652Y-96144329D01*
X186610322Y-96108591D01*
X186526657Y-95952066D01*
X186475137Y-95782227D01*
X186457741Y-95605600D01*
X186475137Y-95428973D01*
X186526657Y-95259134D01*
X186610322Y-95102609D01*
X186639652Y-95066871D01*
X186722914Y-94965414D01*
X186824371Y-94882152D01*
X186860109Y-94852822D01*
X187016634Y-94769157D01*
X187186473Y-94717637D01*
X187252657Y-94711119D01*
X187318840Y-94704600D01*
X187407360Y-94704600D01*
X187473543Y-94711119D01*
X187473543Y-94711119D01*
G37*
G36*
X195643578Y-94649947D02*
G01*
X195810024Y-94718891D01*
X195959822Y-94818983D01*
X196087217Y-94946378D01*
X196187309Y-95096176D01*
X196256253Y-95262622D01*
X196291400Y-95439318D01*
X196291400Y-95619482D01*
X196256253Y-95796178D01*
X196187309Y-95962624D01*
X196087217Y-96112422D01*
X195959822Y-96239817D01*
X195810024Y-96339909D01*
X195643578Y-96408853D01*
X195466882Y-96444000D01*
X195286718Y-96444000D01*
X195110022Y-96408853D01*
X194943576Y-96339909D01*
X194793778Y-96239817D01*
X194666383Y-96112422D01*
X194566291Y-95962624D01*
X194497347Y-95796178D01*
X194462200Y-95619482D01*
X194462200Y-95439318D01*
X194497347Y-95262622D01*
X194566291Y-95096176D01*
X194666383Y-94946378D01*
X194793778Y-94818983D01*
X194943576Y-94718891D01*
X195110022Y-94649947D01*
X195286718Y-94614800D01*
X195466882Y-94614800D01*
X195643578Y-94649947D01*
X195643578Y-94649947D01*
G37*
G36*
X210883578Y-94649947D02*
G01*
X211050024Y-94718891D01*
X211199822Y-94818983D01*
X211327217Y-94946378D01*
X211427309Y-95096176D01*
X211496253Y-95262622D01*
X211531400Y-95439318D01*
X211531400Y-95619482D01*
X211496253Y-95796178D01*
X211427309Y-95962624D01*
X211327217Y-96112422D01*
X211199822Y-96239817D01*
X211050024Y-96339909D01*
X210883578Y-96408853D01*
X210706882Y-96444000D01*
X210526718Y-96444000D01*
X210350022Y-96408853D01*
X210183576Y-96339909D01*
X210033778Y-96239817D01*
X209906383Y-96112422D01*
X209806291Y-95962624D01*
X209737347Y-95796178D01*
X209702200Y-95619482D01*
X209702200Y-95439318D01*
X209737347Y-95262622D01*
X209806291Y-95096176D01*
X209906383Y-94946378D01*
X210033778Y-94818983D01*
X210183576Y-94718891D01*
X210350022Y-94649947D01*
X210526718Y-94614800D01*
X210706882Y-94614800D01*
X210883578Y-94649947D01*
X210883578Y-94649947D01*
G37*
G36*
X123115263Y-87518829D02*
G01*
X123483028Y-87630390D01*
X123821962Y-87811554D01*
X124119040Y-88055360D01*
X124362846Y-88352438D01*
X124544010Y-88691372D01*
X124655571Y-89059137D01*
X124683800Y-89345753D01*
X124683800Y-93737447D01*
X124655571Y-94024063D01*
X124544010Y-94391828D01*
X124362846Y-94730762D01*
X124119040Y-95027840D01*
X123821962Y-95271646D01*
X123483027Y-95452810D01*
X123115262Y-95564371D01*
X122732800Y-95602040D01*
X122350337Y-95564371D01*
X121982572Y-95452810D01*
X121643638Y-95271646D01*
X121346560Y-95027840D01*
X121102754Y-94730762D01*
X120921590Y-94391827D01*
X120810029Y-94024062D01*
X120781800Y-93737446D01*
X120781801Y-89345753D01*
X120810030Y-89059137D01*
X120921591Y-88691372D01*
X121102755Y-88352438D01*
X121346561Y-88055360D01*
X121643639Y-87811554D01*
X121982573Y-87630390D01*
X122350338Y-87518829D01*
X122732800Y-87481160D01*
X123115263Y-87518829D01*
X123115263Y-87518829D01*
G37*
G36*
X206887900Y-95305700D02*
G01*
X205785900Y-95305700D01*
X205785900Y-94203700D01*
X206887900Y-94203700D01*
X206887900Y-95305700D01*
X206887900Y-95305700D01*
G37*
G36*
X115467295Y-92544556D02*
G01*
X115573650Y-92565711D01*
X115774020Y-92648707D01*
X115954344Y-92769195D01*
X116107705Y-92922556D01*
X116228193Y-93102880D01*
X116311189Y-93303251D01*
X116353500Y-93515960D01*
X116353500Y-93732840D01*
X116349410Y-93753400D01*
X116311189Y-93945550D01*
X116278668Y-94024062D01*
X116228193Y-94145920D01*
X116107705Y-94326244D01*
X115954344Y-94479605D01*
X115774020Y-94600093D01*
X115674385Y-94641363D01*
X115573650Y-94683089D01*
X115467294Y-94704245D01*
X115360940Y-94725400D01*
X115144060Y-94725400D01*
X115037706Y-94704245D01*
X114931350Y-94683089D01*
X114830615Y-94641363D01*
X114730980Y-94600093D01*
X114550656Y-94479605D01*
X114397295Y-94326244D01*
X114276807Y-94145920D01*
X114226332Y-94024062D01*
X114193811Y-93945550D01*
X114155590Y-93753400D01*
X114151500Y-93732840D01*
X114151500Y-93515960D01*
X114193811Y-93303251D01*
X114276807Y-93102880D01*
X114397295Y-92922556D01*
X114550656Y-92769195D01*
X114730980Y-92648707D01*
X114831166Y-92607209D01*
X114931350Y-92565711D01*
X115037705Y-92544556D01*
X115144060Y-92523400D01*
X115360940Y-92523400D01*
X115467295Y-92544556D01*
X115467295Y-92544556D01*
G37*
G36*
X192004043Y-92858919D02*
G01*
X192070227Y-92865437D01*
X192240066Y-92916957D01*
X192396591Y-93000622D01*
X192432329Y-93029952D01*
X192533786Y-93113214D01*
X192616833Y-93214409D01*
X192646378Y-93250409D01*
X192730043Y-93406934D01*
X192781563Y-93576773D01*
X192798959Y-93753400D01*
X192781563Y-93930027D01*
X192730043Y-94099866D01*
X192646378Y-94256391D01*
X192617048Y-94292129D01*
X192533786Y-94393586D01*
X192440457Y-94470178D01*
X192396591Y-94506178D01*
X192240066Y-94589843D01*
X192070227Y-94641363D01*
X192004042Y-94647882D01*
X191937860Y-94654400D01*
X191849340Y-94654400D01*
X191783157Y-94647881D01*
X191716973Y-94641363D01*
X191547134Y-94589843D01*
X191390609Y-94506178D01*
X191346743Y-94470178D01*
X191253414Y-94393586D01*
X191170152Y-94292129D01*
X191140822Y-94256391D01*
X191057157Y-94099866D01*
X191005637Y-93930027D01*
X190988241Y-93753400D01*
X191005637Y-93576773D01*
X191057157Y-93406934D01*
X191140822Y-93250409D01*
X191170367Y-93214409D01*
X191253414Y-93113214D01*
X191354871Y-93029952D01*
X191390609Y-93000622D01*
X191547134Y-92916957D01*
X191716973Y-92865437D01*
X191783157Y-92858919D01*
X191849340Y-92852400D01*
X191937860Y-92852400D01*
X192004043Y-92858919D01*
X192004043Y-92858919D01*
G37*
G36*
X128486042Y-92822918D02*
G01*
X128552227Y-92829437D01*
X128722066Y-92880957D01*
X128722068Y-92880958D01*
X128789417Y-92916957D01*
X128878591Y-92964622D01*
X128914329Y-92993952D01*
X129015786Y-93077214D01*
X129099048Y-93178671D01*
X129128378Y-93214409D01*
X129212043Y-93370934D01*
X129263563Y-93540773D01*
X129280959Y-93717400D01*
X129263563Y-93894027D01*
X129212043Y-94063866D01*
X129128378Y-94220391D01*
X129099048Y-94256129D01*
X129015786Y-94357586D01*
X128914329Y-94440848D01*
X128878591Y-94470178D01*
X128722066Y-94553843D01*
X128552227Y-94605363D01*
X128486042Y-94611882D01*
X128419860Y-94618400D01*
X128331340Y-94618400D01*
X128265158Y-94611882D01*
X128198973Y-94605363D01*
X128029134Y-94553843D01*
X127872609Y-94470178D01*
X127836871Y-94440848D01*
X127735414Y-94357586D01*
X127652152Y-94256129D01*
X127622822Y-94220391D01*
X127539157Y-94063866D01*
X127487637Y-93894027D01*
X127470241Y-93717400D01*
X127487637Y-93540773D01*
X127539157Y-93370934D01*
X127622822Y-93214409D01*
X127652152Y-93178671D01*
X127735414Y-93077214D01*
X127836871Y-92993952D01*
X127872609Y-92964622D01*
X127961783Y-92916957D01*
X128029132Y-92880958D01*
X128029134Y-92880957D01*
X128198973Y-92829437D01*
X128265158Y-92822918D01*
X128331340Y-92816400D01*
X128419860Y-92816400D01*
X128486042Y-92822918D01*
X128486042Y-92822918D01*
G37*
G36*
X187473543Y-92171119D02*
G01*
X187539727Y-92177637D01*
X187709566Y-92229157D01*
X187866091Y-92312822D01*
X187901829Y-92342152D01*
X188003286Y-92425414D01*
X188083700Y-92523400D01*
X188115878Y-92562609D01*
X188199543Y-92719134D01*
X188251063Y-92888973D01*
X188268459Y-93065600D01*
X188251063Y-93242227D01*
X188199543Y-93412066D01*
X188115878Y-93568591D01*
X188086548Y-93604329D01*
X188003286Y-93705786D01*
X187901829Y-93789048D01*
X187866091Y-93818378D01*
X187709566Y-93902043D01*
X187539727Y-93953563D01*
X187473543Y-93960081D01*
X187407360Y-93966600D01*
X187318840Y-93966600D01*
X187252657Y-93960081D01*
X187186473Y-93953563D01*
X187016634Y-93902043D01*
X186860109Y-93818378D01*
X186824371Y-93789048D01*
X186722914Y-93705786D01*
X186639652Y-93604329D01*
X186610322Y-93568591D01*
X186526657Y-93412066D01*
X186475137Y-93242227D01*
X186457741Y-93065600D01*
X186475137Y-92888973D01*
X186526657Y-92719134D01*
X186610322Y-92562609D01*
X186642500Y-92523400D01*
X186722914Y-92425414D01*
X186824371Y-92342152D01*
X186860109Y-92312822D01*
X187016634Y-92229157D01*
X187186473Y-92177637D01*
X187252657Y-92171119D01*
X187318840Y-92164600D01*
X187407360Y-92164600D01*
X187473543Y-92171119D01*
X187473543Y-92171119D01*
G37*
G36*
X195643578Y-92109947D02*
G01*
X195810024Y-92178891D01*
X195959822Y-92278983D01*
X196087217Y-92406378D01*
X196187309Y-92556176D01*
X196256253Y-92722622D01*
X196291400Y-92899318D01*
X196291400Y-93079482D01*
X196256253Y-93256178D01*
X196187309Y-93422624D01*
X196087217Y-93572422D01*
X195959822Y-93699817D01*
X195810024Y-93799909D01*
X195643578Y-93868853D01*
X195466882Y-93904000D01*
X195286718Y-93904000D01*
X195110022Y-93868853D01*
X194943576Y-93799909D01*
X194793778Y-93699817D01*
X194666383Y-93572422D01*
X194566291Y-93422624D01*
X194497347Y-93256178D01*
X194462200Y-93079482D01*
X194462200Y-92899318D01*
X194497347Y-92722622D01*
X194566291Y-92556176D01*
X194666383Y-92406378D01*
X194793778Y-92278983D01*
X194943576Y-92178891D01*
X195110022Y-92109947D01*
X195286718Y-92074800D01*
X195466882Y-92074800D01*
X195643578Y-92109947D01*
X195643578Y-92109947D01*
G37*
G36*
X210883578Y-92109947D02*
G01*
X211050024Y-92178891D01*
X211199822Y-92278983D01*
X211327217Y-92406378D01*
X211427309Y-92556176D01*
X211496253Y-92722622D01*
X211531400Y-92899318D01*
X211531400Y-93079482D01*
X211496253Y-93256178D01*
X211427309Y-93422624D01*
X211327217Y-93572422D01*
X211199822Y-93699817D01*
X211050024Y-93799909D01*
X210883578Y-93868853D01*
X210706882Y-93904000D01*
X210526718Y-93904000D01*
X210350022Y-93868853D01*
X210183576Y-93799909D01*
X210033778Y-93699817D01*
X209906383Y-93572422D01*
X209806291Y-93422624D01*
X209737347Y-93256178D01*
X209702200Y-93079482D01*
X209702200Y-92899318D01*
X209737347Y-92722622D01*
X209806291Y-92556176D01*
X209906383Y-92406378D01*
X210033778Y-92278983D01*
X210183576Y-92178891D01*
X210350022Y-92109947D01*
X210526718Y-92074800D01*
X210706882Y-92074800D01*
X210883578Y-92109947D01*
X210883578Y-92109947D01*
G37*
G36*
X192004043Y-90318919D02*
G01*
X192070227Y-90325437D01*
X192240066Y-90376957D01*
X192396591Y-90460622D01*
X192432329Y-90489952D01*
X192533786Y-90573214D01*
X192616833Y-90674409D01*
X192646378Y-90710409D01*
X192730043Y-90866934D01*
X192781563Y-91036773D01*
X192798959Y-91213400D01*
X192781563Y-91390027D01*
X192730043Y-91559866D01*
X192646378Y-91716391D01*
X192617048Y-91752129D01*
X192533786Y-91853586D01*
X192440457Y-91930178D01*
X192396591Y-91966178D01*
X192240066Y-92049843D01*
X192070227Y-92101363D01*
X192004042Y-92107882D01*
X191937860Y-92114400D01*
X191849340Y-92114400D01*
X191783158Y-92107882D01*
X191716973Y-92101363D01*
X191547134Y-92049843D01*
X191390609Y-91966178D01*
X191346743Y-91930178D01*
X191253414Y-91853586D01*
X191170152Y-91752129D01*
X191140822Y-91716391D01*
X191057157Y-91559866D01*
X191005637Y-91390027D01*
X190988241Y-91213400D01*
X191005637Y-91036773D01*
X191057157Y-90866934D01*
X191140822Y-90710409D01*
X191170367Y-90674409D01*
X191253414Y-90573214D01*
X191354871Y-90489952D01*
X191390609Y-90460622D01*
X191547134Y-90376957D01*
X191716973Y-90325437D01*
X191783157Y-90318919D01*
X191849340Y-90312400D01*
X191937860Y-90312400D01*
X192004043Y-90318919D01*
X192004043Y-90318919D01*
G37*
G36*
X128486042Y-90282918D02*
G01*
X128552227Y-90289437D01*
X128722066Y-90340957D01*
X128722068Y-90340958D01*
X128789417Y-90376957D01*
X128878591Y-90424622D01*
X128914329Y-90453952D01*
X129015786Y-90537214D01*
X129099048Y-90638671D01*
X129128378Y-90674409D01*
X129212043Y-90830934D01*
X129263563Y-91000773D01*
X129280959Y-91177400D01*
X129263563Y-91354027D01*
X129212043Y-91523866D01*
X129128378Y-91680391D01*
X129099048Y-91716129D01*
X129015786Y-91817586D01*
X128914329Y-91900848D01*
X128878591Y-91930178D01*
X128722066Y-92013843D01*
X128552227Y-92065363D01*
X128486043Y-92071881D01*
X128419860Y-92078400D01*
X128331340Y-92078400D01*
X128265157Y-92071881D01*
X128198973Y-92065363D01*
X128029134Y-92013843D01*
X127872609Y-91930178D01*
X127836871Y-91900848D01*
X127735414Y-91817586D01*
X127652152Y-91716129D01*
X127622822Y-91680391D01*
X127539157Y-91523866D01*
X127487637Y-91354027D01*
X127470241Y-91177400D01*
X127487637Y-91000773D01*
X127539157Y-90830934D01*
X127622822Y-90674409D01*
X127652152Y-90638671D01*
X127735414Y-90537214D01*
X127836871Y-90453952D01*
X127872609Y-90424622D01*
X127961783Y-90376957D01*
X128029132Y-90340958D01*
X128029134Y-90340957D01*
X128198973Y-90289437D01*
X128265158Y-90282918D01*
X128331340Y-90276400D01*
X128419860Y-90276400D01*
X128486042Y-90282918D01*
X128486042Y-90282918D01*
G37*
G36*
X187473542Y-89631118D02*
G01*
X187539727Y-89637637D01*
X187709566Y-89689157D01*
X187866091Y-89772822D01*
X187901829Y-89802152D01*
X188003286Y-89885414D01*
X188086548Y-89986871D01*
X188115878Y-90022609D01*
X188199543Y-90179134D01*
X188251063Y-90348973D01*
X188268459Y-90525600D01*
X188251063Y-90702227D01*
X188199543Y-90872066D01*
X188115878Y-91028591D01*
X188086548Y-91064329D01*
X188003286Y-91165786D01*
X187901829Y-91249048D01*
X187866091Y-91278378D01*
X187709566Y-91362043D01*
X187539727Y-91413563D01*
X187473543Y-91420081D01*
X187407360Y-91426600D01*
X187318840Y-91426600D01*
X187252658Y-91420082D01*
X187186473Y-91413563D01*
X187016634Y-91362043D01*
X186860109Y-91278378D01*
X186824371Y-91249048D01*
X186722914Y-91165786D01*
X186639652Y-91064329D01*
X186610322Y-91028591D01*
X186526657Y-90872066D01*
X186475137Y-90702227D01*
X186457741Y-90525600D01*
X186475137Y-90348973D01*
X186526657Y-90179134D01*
X186610322Y-90022609D01*
X186639652Y-89986871D01*
X186722914Y-89885414D01*
X186824371Y-89802152D01*
X186860109Y-89772822D01*
X187016634Y-89689157D01*
X187186473Y-89637637D01*
X187252658Y-89631118D01*
X187318840Y-89624600D01*
X187407360Y-89624600D01*
X187473542Y-89631118D01*
X187473542Y-89631118D01*
G37*
G36*
X195643578Y-89569947D02*
G01*
X195810024Y-89638891D01*
X195959822Y-89738983D01*
X196087217Y-89866378D01*
X196187309Y-90016176D01*
X196256253Y-90182622D01*
X196291400Y-90359318D01*
X196291400Y-90539482D01*
X196256253Y-90716178D01*
X196187309Y-90882624D01*
X196087217Y-91032422D01*
X195959822Y-91159817D01*
X195810024Y-91259909D01*
X195643578Y-91328853D01*
X195466882Y-91364000D01*
X195286718Y-91364000D01*
X195110022Y-91328853D01*
X194943576Y-91259909D01*
X194793778Y-91159817D01*
X194666383Y-91032422D01*
X194566291Y-90882624D01*
X194497347Y-90716178D01*
X194462200Y-90539482D01*
X194462200Y-90359318D01*
X194497347Y-90182622D01*
X194566291Y-90016176D01*
X194666383Y-89866378D01*
X194793778Y-89738983D01*
X194943576Y-89638891D01*
X195110022Y-89569947D01*
X195286718Y-89534800D01*
X195466882Y-89534800D01*
X195643578Y-89569947D01*
X195643578Y-89569947D01*
G37*
G36*
X210883578Y-89569947D02*
G01*
X211050024Y-89638891D01*
X211199822Y-89738983D01*
X211327217Y-89866378D01*
X211427309Y-90016176D01*
X211496253Y-90182622D01*
X211531400Y-90359318D01*
X211531400Y-90539482D01*
X211496253Y-90716178D01*
X211427309Y-90882624D01*
X211327217Y-91032422D01*
X211199822Y-91159817D01*
X211050024Y-91259909D01*
X210883578Y-91328853D01*
X210706882Y-91364000D01*
X210526718Y-91364000D01*
X210350022Y-91328853D01*
X210183576Y-91259909D01*
X210033778Y-91159817D01*
X209906383Y-91032422D01*
X209806291Y-90882624D01*
X209737347Y-90716178D01*
X209702200Y-90539482D01*
X209702200Y-90359318D01*
X209737347Y-90182622D01*
X209806291Y-90016176D01*
X209906383Y-89866378D01*
X210033778Y-89738983D01*
X210183576Y-89638891D01*
X210350022Y-89569947D01*
X210526718Y-89534800D01*
X210706882Y-89534800D01*
X210883578Y-89569947D01*
X210883578Y-89569947D01*
G37*
G36*
X192004042Y-87778918D02*
G01*
X192070227Y-87785437D01*
X192240066Y-87836957D01*
X192396591Y-87920622D01*
X192432329Y-87949952D01*
X192533786Y-88033214D01*
X192617048Y-88134671D01*
X192646378Y-88170409D01*
X192730043Y-88326934D01*
X192781563Y-88496773D01*
X192798959Y-88673400D01*
X192781563Y-88850027D01*
X192730043Y-89019866D01*
X192646378Y-89176391D01*
X192617048Y-89212129D01*
X192533786Y-89313586D01*
X192432329Y-89396848D01*
X192396591Y-89426178D01*
X192240066Y-89509843D01*
X192070227Y-89561363D01*
X192004042Y-89567882D01*
X191937860Y-89574400D01*
X191849340Y-89574400D01*
X191783157Y-89567881D01*
X191716973Y-89561363D01*
X191547134Y-89509843D01*
X191390609Y-89426178D01*
X191354871Y-89396848D01*
X191253414Y-89313586D01*
X191170152Y-89212129D01*
X191140822Y-89176391D01*
X191057157Y-89019866D01*
X191005637Y-88850027D01*
X190988241Y-88673400D01*
X191005637Y-88496773D01*
X191057157Y-88326934D01*
X191140822Y-88170409D01*
X191170152Y-88134671D01*
X191253414Y-88033214D01*
X191354871Y-87949952D01*
X191390609Y-87920622D01*
X191547134Y-87836957D01*
X191716973Y-87785437D01*
X191783158Y-87778918D01*
X191849340Y-87772400D01*
X191937860Y-87772400D01*
X192004042Y-87778918D01*
X192004042Y-87778918D01*
G37*
G36*
X116415042Y-87166718D02*
G01*
X116481227Y-87173237D01*
X116651066Y-87224757D01*
X116651068Y-87224758D01*
X116729328Y-87266589D01*
X116807591Y-87308422D01*
X116829469Y-87326377D01*
X116944786Y-87421014D01*
X117025060Y-87518830D01*
X117057378Y-87558209D01*
X117141043Y-87714734D01*
X117192563Y-87884573D01*
X117209959Y-88061200D01*
X117192563Y-88237827D01*
X117141043Y-88407666D01*
X117057378Y-88564191D01*
X117028048Y-88599929D01*
X116944786Y-88701386D01*
X116843329Y-88784648D01*
X116807591Y-88813978D01*
X116651066Y-88897643D01*
X116481227Y-88949163D01*
X116415042Y-88955682D01*
X116348860Y-88962200D01*
X116010340Y-88962200D01*
X115944158Y-88955682D01*
X115877973Y-88949163D01*
X115708134Y-88897643D01*
X115551609Y-88813978D01*
X115515871Y-88784648D01*
X115414414Y-88701386D01*
X115331152Y-88599929D01*
X115301822Y-88564191D01*
X115218157Y-88407666D01*
X115166637Y-88237827D01*
X115149241Y-88061200D01*
X115166637Y-87884573D01*
X115218157Y-87714734D01*
X115301822Y-87558209D01*
X115334140Y-87518830D01*
X115414414Y-87421014D01*
X115529731Y-87326377D01*
X115551609Y-87308422D01*
X115629872Y-87266589D01*
X115708132Y-87224758D01*
X115708134Y-87224757D01*
X115877973Y-87173237D01*
X115944158Y-87166718D01*
X116010340Y-87160200D01*
X116348860Y-87160200D01*
X116415042Y-87166718D01*
X116415042Y-87166718D01*
G37*
G36*
X187473543Y-87091119D02*
G01*
X187539727Y-87097637D01*
X187709566Y-87149157D01*
X187866091Y-87232822D01*
X187901829Y-87262152D01*
X188003286Y-87345414D01*
X188065328Y-87421014D01*
X188115878Y-87482609D01*
X188199543Y-87639134D01*
X188251063Y-87808973D01*
X188268459Y-87985600D01*
X188251063Y-88162227D01*
X188199543Y-88332066D01*
X188115878Y-88488591D01*
X188086548Y-88524329D01*
X188003286Y-88625786D01*
X187923370Y-88691370D01*
X187866091Y-88738378D01*
X187866089Y-88738379D01*
X187724655Y-88813978D01*
X187709566Y-88822043D01*
X187539727Y-88873563D01*
X187473542Y-88880082D01*
X187407360Y-88886600D01*
X187318840Y-88886600D01*
X187252658Y-88880082D01*
X187186473Y-88873563D01*
X187016634Y-88822043D01*
X187001546Y-88813978D01*
X186860111Y-88738379D01*
X186860109Y-88738378D01*
X186802830Y-88691370D01*
X186722914Y-88625786D01*
X186639652Y-88524329D01*
X186610322Y-88488591D01*
X186526657Y-88332066D01*
X186475137Y-88162227D01*
X186457741Y-87985600D01*
X186475137Y-87808973D01*
X186526657Y-87639134D01*
X186610322Y-87482609D01*
X186660872Y-87421014D01*
X186722914Y-87345414D01*
X186824371Y-87262152D01*
X186860109Y-87232822D01*
X187016634Y-87149157D01*
X187186473Y-87097637D01*
X187252657Y-87091119D01*
X187318840Y-87084600D01*
X187407360Y-87084600D01*
X187473543Y-87091119D01*
X187473543Y-87091119D01*
G37*
G36*
X195643578Y-87029947D02*
G01*
X195810024Y-87098891D01*
X195959822Y-87198983D01*
X196087217Y-87326378D01*
X196187309Y-87476176D01*
X196256253Y-87642622D01*
X196291400Y-87819318D01*
X196291400Y-87999482D01*
X196256253Y-88176178D01*
X196187309Y-88342624D01*
X196087217Y-88492422D01*
X195959822Y-88619817D01*
X195810024Y-88719909D01*
X195643578Y-88788853D01*
X195466882Y-88824000D01*
X195286718Y-88824000D01*
X195110022Y-88788853D01*
X194943576Y-88719909D01*
X194793778Y-88619817D01*
X194666383Y-88492422D01*
X194566291Y-88342624D01*
X194497347Y-88176178D01*
X194462200Y-87999482D01*
X194462200Y-87819318D01*
X194497347Y-87642622D01*
X194566291Y-87476176D01*
X194666383Y-87326378D01*
X194793778Y-87198983D01*
X194943576Y-87098891D01*
X195110022Y-87029947D01*
X195286718Y-86994800D01*
X195466882Y-86994800D01*
X195643578Y-87029947D01*
X195643578Y-87029947D01*
G37*
G36*
X210883578Y-87029947D02*
G01*
X211050024Y-87098891D01*
X211199822Y-87198983D01*
X211327217Y-87326378D01*
X211427309Y-87476176D01*
X211496253Y-87642622D01*
X211531400Y-87819318D01*
X211531400Y-87999482D01*
X211496253Y-88176178D01*
X211427309Y-88342624D01*
X211327217Y-88492422D01*
X211199822Y-88619817D01*
X211050024Y-88719909D01*
X210883578Y-88788853D01*
X210706882Y-88824000D01*
X210526718Y-88824000D01*
X210350022Y-88788853D01*
X210183576Y-88719909D01*
X210033778Y-88619817D01*
X209906383Y-88492422D01*
X209806291Y-88342624D01*
X209737347Y-88176178D01*
X209702200Y-87999482D01*
X209702200Y-87819318D01*
X209737347Y-87642622D01*
X209806291Y-87476176D01*
X209906383Y-87326378D01*
X210033778Y-87198983D01*
X210183576Y-87098891D01*
X210350022Y-87029947D01*
X210526718Y-86994800D01*
X210706882Y-86994800D01*
X210883578Y-87029947D01*
X210883578Y-87029947D01*
G37*
G36*
X192004042Y-85238918D02*
G01*
X192070227Y-85245437D01*
X192240066Y-85296957D01*
X192396591Y-85380622D01*
X192432329Y-85409952D01*
X192533786Y-85493214D01*
X192617048Y-85594671D01*
X192646378Y-85630409D01*
X192646379Y-85630411D01*
X192703794Y-85737825D01*
X192730043Y-85786934D01*
X192781563Y-85956773D01*
X192798959Y-86133400D01*
X192781563Y-86310027D01*
X192730043Y-86479866D01*
X192646378Y-86636391D01*
X192617048Y-86672129D01*
X192533786Y-86773586D01*
X192432329Y-86856848D01*
X192396591Y-86886178D01*
X192240066Y-86969843D01*
X192070227Y-87021363D01*
X192004043Y-87027881D01*
X191937860Y-87034400D01*
X191849340Y-87034400D01*
X191783158Y-87027882D01*
X191716973Y-87021363D01*
X191547134Y-86969843D01*
X191390609Y-86886178D01*
X191354871Y-86856848D01*
X191253414Y-86773586D01*
X191170152Y-86672129D01*
X191140822Y-86636391D01*
X191057157Y-86479866D01*
X191005637Y-86310027D01*
X190988241Y-86133400D01*
X191005637Y-85956773D01*
X191057157Y-85786934D01*
X191083407Y-85737825D01*
X191140821Y-85630411D01*
X191140822Y-85630409D01*
X191170152Y-85594671D01*
X191253414Y-85493214D01*
X191354871Y-85409952D01*
X191390609Y-85380622D01*
X191547134Y-85296957D01*
X191716973Y-85245437D01*
X191783158Y-85238918D01*
X191849340Y-85232400D01*
X191937860Y-85232400D01*
X192004042Y-85238918D01*
X192004042Y-85238918D01*
G37*
G36*
X116415042Y-84666718D02*
G01*
X116481227Y-84673237D01*
X116651066Y-84724757D01*
X116807591Y-84808422D01*
X116843329Y-84837752D01*
X116944786Y-84921014D01*
X117028048Y-85022471D01*
X117057378Y-85058209D01*
X117141043Y-85214734D01*
X117192563Y-85384573D01*
X117209959Y-85561200D01*
X117192563Y-85737827D01*
X117141043Y-85907666D01*
X117141042Y-85907668D01*
X117099211Y-85985928D01*
X117057378Y-86064191D01*
X117044554Y-86079817D01*
X116944786Y-86201386D01*
X116844119Y-86284000D01*
X116807591Y-86313978D01*
X116651066Y-86397643D01*
X116481227Y-86449163D01*
X116415043Y-86455681D01*
X116348860Y-86462200D01*
X116010340Y-86462200D01*
X115944157Y-86455681D01*
X115877973Y-86449163D01*
X115708134Y-86397643D01*
X115551609Y-86313978D01*
X115515081Y-86284000D01*
X115414414Y-86201386D01*
X115314646Y-86079817D01*
X115301822Y-86064191D01*
X115259989Y-85985928D01*
X115218158Y-85907668D01*
X115218157Y-85907666D01*
X115166637Y-85737827D01*
X115149241Y-85561200D01*
X115166637Y-85384573D01*
X115218157Y-85214734D01*
X115301822Y-85058209D01*
X115331152Y-85022471D01*
X115414414Y-84921014D01*
X115515871Y-84837752D01*
X115551609Y-84808422D01*
X115708134Y-84724757D01*
X115877973Y-84673237D01*
X115944158Y-84666718D01*
X116010340Y-84660200D01*
X116348860Y-84660200D01*
X116415042Y-84666718D01*
X116415042Y-84666718D01*
G37*
G36*
X188264100Y-86346600D02*
G01*
X186462100Y-86346600D01*
X186462100Y-84544600D01*
X188264100Y-84544600D01*
X188264100Y-86346600D01*
X188264100Y-86346600D01*
G37*
G36*
X195643578Y-84489947D02*
G01*
X195810024Y-84558891D01*
X195959822Y-84658983D01*
X196087217Y-84786378D01*
X196187309Y-84936176D01*
X196256253Y-85102622D01*
X196291400Y-85279318D01*
X196291400Y-85459482D01*
X196256253Y-85636178D01*
X196187309Y-85802624D01*
X196087217Y-85952422D01*
X195959822Y-86079817D01*
X195810024Y-86179909D01*
X195643578Y-86248853D01*
X195466882Y-86284000D01*
X195286718Y-86284000D01*
X195110022Y-86248853D01*
X194943576Y-86179909D01*
X194793778Y-86079817D01*
X194666383Y-85952422D01*
X194566291Y-85802624D01*
X194497347Y-85636178D01*
X194462200Y-85459482D01*
X194462200Y-85279318D01*
X194497347Y-85102622D01*
X194566291Y-84936176D01*
X194666383Y-84786378D01*
X194793778Y-84658983D01*
X194943576Y-84558891D01*
X195110022Y-84489947D01*
X195286718Y-84454800D01*
X195466882Y-84454800D01*
X195643578Y-84489947D01*
X195643578Y-84489947D01*
G37*
G36*
X210883578Y-84489947D02*
G01*
X211050024Y-84558891D01*
X211199822Y-84658983D01*
X211327217Y-84786378D01*
X211427309Y-84936176D01*
X211496253Y-85102622D01*
X211531400Y-85279318D01*
X211531400Y-85459482D01*
X211496253Y-85636178D01*
X211427309Y-85802624D01*
X211327217Y-85952422D01*
X211199822Y-86079817D01*
X211050024Y-86179909D01*
X210883578Y-86248853D01*
X210706882Y-86284000D01*
X210526718Y-86284000D01*
X210350022Y-86248853D01*
X210183576Y-86179909D01*
X210033778Y-86079817D01*
X209906383Y-85952422D01*
X209806291Y-85802624D01*
X209737347Y-85636178D01*
X209702200Y-85459482D01*
X209702200Y-85279318D01*
X209737347Y-85102622D01*
X209806291Y-84936176D01*
X209906383Y-84786378D01*
X210033778Y-84658983D01*
X210183576Y-84558891D01*
X210350022Y-84489947D01*
X210526718Y-84454800D01*
X210706882Y-84454800D01*
X210883578Y-84489947D01*
X210883578Y-84489947D01*
G37*
G36*
X116415042Y-82166718D02*
G01*
X116481227Y-82173237D01*
X116651066Y-82224757D01*
X116807591Y-82308422D01*
X116843329Y-82337752D01*
X116944786Y-82421014D01*
X117028048Y-82522471D01*
X117057378Y-82558209D01*
X117141043Y-82714734D01*
X117192563Y-82884573D01*
X117209959Y-83061200D01*
X117192563Y-83237827D01*
X117141043Y-83407666D01*
X117057378Y-83564191D01*
X117028048Y-83599929D01*
X116944786Y-83701386D01*
X116843329Y-83784648D01*
X116807591Y-83813978D01*
X116651066Y-83897643D01*
X116481227Y-83949163D01*
X116415042Y-83955682D01*
X116348860Y-83962200D01*
X116010340Y-83962200D01*
X115944158Y-83955682D01*
X115877973Y-83949163D01*
X115708134Y-83897643D01*
X115551609Y-83813978D01*
X115515871Y-83784648D01*
X115414414Y-83701386D01*
X115331152Y-83599929D01*
X115301822Y-83564191D01*
X115218157Y-83407666D01*
X115166637Y-83237827D01*
X115149241Y-83061200D01*
X115166637Y-82884573D01*
X115218157Y-82714734D01*
X115301822Y-82558209D01*
X115331152Y-82522471D01*
X115414414Y-82421014D01*
X115515871Y-82337752D01*
X115551609Y-82308422D01*
X115708134Y-82224757D01*
X115877973Y-82173237D01*
X115944158Y-82166718D01*
X116010340Y-82160200D01*
X116348860Y-82160200D01*
X116415042Y-82166718D01*
X116415042Y-82166718D01*
G37*
G36*
X210883578Y-81949947D02*
G01*
X211050024Y-82018891D01*
X211199822Y-82118983D01*
X211327217Y-82246378D01*
X211427309Y-82396176D01*
X211496253Y-82562622D01*
X211531400Y-82739318D01*
X211531400Y-82919482D01*
X211496253Y-83096178D01*
X211427309Y-83262624D01*
X211327217Y-83412422D01*
X211199822Y-83539817D01*
X211050024Y-83639909D01*
X210883578Y-83708853D01*
X210706882Y-83744000D01*
X210526718Y-83744000D01*
X210350022Y-83708853D01*
X210183576Y-83639909D01*
X210033778Y-83539817D01*
X209906383Y-83412422D01*
X209806291Y-83262624D01*
X209737347Y-83096178D01*
X209702200Y-82919482D01*
X209702200Y-82739318D01*
X209737347Y-82562622D01*
X209806291Y-82396176D01*
X209906383Y-82246378D01*
X210033778Y-82118983D01*
X210183576Y-82018891D01*
X210350022Y-81949947D01*
X210526718Y-81914800D01*
X210706882Y-81914800D01*
X210883578Y-81949947D01*
X210883578Y-81949947D01*
G37*
G36*
X195643578Y-81949947D02*
G01*
X195810024Y-82018891D01*
X195959822Y-82118983D01*
X196087217Y-82246378D01*
X196187309Y-82396176D01*
X196256253Y-82562622D01*
X196291400Y-82739318D01*
X196291400Y-82919482D01*
X196256253Y-83096178D01*
X196187309Y-83262624D01*
X196087217Y-83412422D01*
X195959822Y-83539817D01*
X195810024Y-83639909D01*
X195643578Y-83708853D01*
X195466882Y-83744000D01*
X195286718Y-83744000D01*
X195110022Y-83708853D01*
X194943576Y-83639909D01*
X194793778Y-83539817D01*
X194666383Y-83412422D01*
X194566291Y-83262624D01*
X194497347Y-83096178D01*
X194462200Y-82919482D01*
X194462200Y-82739318D01*
X194497347Y-82562622D01*
X194566291Y-82396176D01*
X194666383Y-82246378D01*
X194793778Y-82118983D01*
X194943576Y-82018891D01*
X195110022Y-81949947D01*
X195286718Y-81914800D01*
X195466882Y-81914800D01*
X195643578Y-81949947D01*
X195643578Y-81949947D01*
G37*
G36*
X116415042Y-79666718D02*
G01*
X116481227Y-79673237D01*
X116651066Y-79724757D01*
X116807591Y-79808422D01*
X116843329Y-79837752D01*
X116944786Y-79921014D01*
X117028048Y-80022471D01*
X117057378Y-80058209D01*
X117141043Y-80214734D01*
X117192563Y-80384573D01*
X117209959Y-80561200D01*
X117192563Y-80737827D01*
X117141043Y-80907666D01*
X117057378Y-81064191D01*
X117028066Y-81099908D01*
X116944786Y-81201386D01*
X116843329Y-81284648D01*
X116807591Y-81313978D01*
X116651066Y-81397643D01*
X116481227Y-81449163D01*
X116415043Y-81455681D01*
X116348860Y-81462200D01*
X116010340Y-81462200D01*
X115944157Y-81455681D01*
X115877973Y-81449163D01*
X115708134Y-81397643D01*
X115551609Y-81313978D01*
X115515871Y-81284648D01*
X115414414Y-81201386D01*
X115331134Y-81099908D01*
X115301822Y-81064191D01*
X115218157Y-80907666D01*
X115166637Y-80737827D01*
X115149241Y-80561200D01*
X115166637Y-80384573D01*
X115218157Y-80214734D01*
X115301822Y-80058209D01*
X115331152Y-80022471D01*
X115414414Y-79921014D01*
X115515871Y-79837752D01*
X115551609Y-79808422D01*
X115708134Y-79724757D01*
X115877973Y-79673237D01*
X115944158Y-79666718D01*
X116010340Y-79660200D01*
X116348860Y-79660200D01*
X116415042Y-79666718D01*
X116415042Y-79666718D01*
G37*
G36*
X210883578Y-79409947D02*
G01*
X211050024Y-79478891D01*
X211199822Y-79578983D01*
X211327217Y-79706378D01*
X211427309Y-79856176D01*
X211496253Y-80022622D01*
X211531400Y-80199318D01*
X211531400Y-80379482D01*
X211496253Y-80556178D01*
X211427309Y-80722624D01*
X211327217Y-80872422D01*
X211199822Y-80999817D01*
X211050024Y-81099909D01*
X210883578Y-81168853D01*
X210706882Y-81204000D01*
X210526718Y-81204000D01*
X210350022Y-81168853D01*
X210183576Y-81099909D01*
X210033778Y-80999817D01*
X209906383Y-80872422D01*
X209806291Y-80722624D01*
X209737347Y-80556178D01*
X209702200Y-80379482D01*
X209702200Y-80199318D01*
X209737347Y-80022622D01*
X209806291Y-79856176D01*
X209906383Y-79706378D01*
X210033778Y-79578983D01*
X210183576Y-79478891D01*
X210350022Y-79409947D01*
X210526718Y-79374800D01*
X210706882Y-79374800D01*
X210883578Y-79409947D01*
X210883578Y-79409947D01*
G37*
G36*
X195643578Y-79409947D02*
G01*
X195810024Y-79478891D01*
X195959822Y-79578983D01*
X196087217Y-79706378D01*
X196187309Y-79856176D01*
X196256253Y-80022622D01*
X196291400Y-80199318D01*
X196291400Y-80379482D01*
X196256253Y-80556178D01*
X196187309Y-80722624D01*
X196087217Y-80872422D01*
X195959822Y-80999817D01*
X195810024Y-81099909D01*
X195643578Y-81168853D01*
X195466882Y-81204000D01*
X195286718Y-81204000D01*
X195110022Y-81168853D01*
X194943576Y-81099909D01*
X194793778Y-80999817D01*
X194666383Y-80872422D01*
X194566291Y-80722624D01*
X194497347Y-80556178D01*
X194462200Y-80379482D01*
X194462200Y-80199318D01*
X194497347Y-80022622D01*
X194566291Y-79856176D01*
X194666383Y-79706378D01*
X194793778Y-79578983D01*
X194943576Y-79478891D01*
X195110022Y-79409947D01*
X195286718Y-79374800D01*
X195466882Y-79374800D01*
X195643578Y-79409947D01*
X195643578Y-79409947D01*
G37*
G36*
X116411575Y-77166377D02*
G01*
X116481227Y-77173237D01*
X116651066Y-77224757D01*
X116807591Y-77308422D01*
X116817039Y-77316176D01*
X116944786Y-77421014D01*
X117028048Y-77522471D01*
X117057378Y-77558209D01*
X117141043Y-77714734D01*
X117192563Y-77884573D01*
X117209959Y-78061200D01*
X117192563Y-78237827D01*
X117141043Y-78407666D01*
X117141042Y-78407668D01*
X117099211Y-78485928D01*
X117057378Y-78564191D01*
X117028048Y-78599929D01*
X116944786Y-78701386D01*
X116843329Y-78784648D01*
X116807591Y-78813978D01*
X116651066Y-78897643D01*
X116481227Y-78949163D01*
X116415043Y-78955681D01*
X116348860Y-78962200D01*
X116010340Y-78962200D01*
X115944157Y-78955681D01*
X115877973Y-78949163D01*
X115708134Y-78897643D01*
X115551609Y-78813978D01*
X115515871Y-78784648D01*
X115414414Y-78701386D01*
X115331152Y-78599929D01*
X115301822Y-78564191D01*
X115259989Y-78485928D01*
X115218158Y-78407668D01*
X115218157Y-78407666D01*
X115166637Y-78237827D01*
X115149241Y-78061200D01*
X115166637Y-77884573D01*
X115218157Y-77714734D01*
X115301822Y-77558209D01*
X115331152Y-77522471D01*
X115414414Y-77421014D01*
X115542161Y-77316176D01*
X115551609Y-77308422D01*
X115708134Y-77224757D01*
X115877973Y-77173237D01*
X115947625Y-77166377D01*
X116010340Y-77160200D01*
X116348860Y-77160200D01*
X116411575Y-77166377D01*
X116411575Y-77166377D01*
G37*
G36*
X210883578Y-76869947D02*
G01*
X211050024Y-76938891D01*
X211199822Y-77038983D01*
X211327217Y-77166378D01*
X211427309Y-77316176D01*
X211496253Y-77482622D01*
X211531400Y-77659318D01*
X211531400Y-77839482D01*
X211496253Y-78016178D01*
X211427309Y-78182624D01*
X211327217Y-78332422D01*
X211199822Y-78459817D01*
X211050024Y-78559909D01*
X210883578Y-78628853D01*
X210706882Y-78664000D01*
X210526718Y-78664000D01*
X210350022Y-78628853D01*
X210183576Y-78559909D01*
X210033778Y-78459817D01*
X209906383Y-78332422D01*
X209806291Y-78182624D01*
X209737347Y-78016178D01*
X209702200Y-77839482D01*
X209702200Y-77659318D01*
X209737347Y-77482622D01*
X209806291Y-77316176D01*
X209906383Y-77166378D01*
X210033778Y-77038983D01*
X210183576Y-76938891D01*
X210350022Y-76869947D01*
X210526718Y-76834800D01*
X210706882Y-76834800D01*
X210883578Y-76869947D01*
X210883578Y-76869947D01*
G37*
G36*
X195643578Y-76869947D02*
G01*
X195810024Y-76938891D01*
X195959822Y-77038983D01*
X196087217Y-77166378D01*
X196187309Y-77316176D01*
X196256253Y-77482622D01*
X196291400Y-77659318D01*
X196291400Y-77839482D01*
X196256253Y-78016178D01*
X196187309Y-78182624D01*
X196087217Y-78332422D01*
X195959822Y-78459817D01*
X195810024Y-78559909D01*
X195643578Y-78628853D01*
X195466882Y-78664000D01*
X195286718Y-78664000D01*
X195110022Y-78628853D01*
X194943576Y-78559909D01*
X194793778Y-78459817D01*
X194666383Y-78332422D01*
X194566291Y-78182624D01*
X194497347Y-78016178D01*
X194462200Y-77839482D01*
X194462200Y-77659318D01*
X194497347Y-77482622D01*
X194566291Y-77316176D01*
X194666383Y-77166378D01*
X194793778Y-77038983D01*
X194943576Y-76938891D01*
X195110022Y-76869947D01*
X195286718Y-76834800D01*
X195466882Y-76834800D01*
X195643578Y-76869947D01*
X195643578Y-76869947D01*
G37*
G36*
X116415043Y-74666719D02*
G01*
X116481227Y-74673237D01*
X116651066Y-74724757D01*
X116807591Y-74808422D01*
X116843329Y-74837752D01*
X116944786Y-74921014D01*
X117028048Y-75022471D01*
X117057378Y-75058209D01*
X117141043Y-75214734D01*
X117192563Y-75384573D01*
X117209959Y-75561200D01*
X117192563Y-75737827D01*
X117141043Y-75907666D01*
X117057378Y-76064191D01*
X117037139Y-76088852D01*
X116944786Y-76201386D01*
X116843329Y-76284648D01*
X116807591Y-76313978D01*
X116651066Y-76397643D01*
X116481227Y-76449163D01*
X116415043Y-76455681D01*
X116348860Y-76462200D01*
X116010340Y-76462200D01*
X115944157Y-76455681D01*
X115877973Y-76449163D01*
X115708134Y-76397643D01*
X115551609Y-76313978D01*
X115515871Y-76284648D01*
X115414414Y-76201386D01*
X115322061Y-76088852D01*
X115301822Y-76064191D01*
X115218157Y-75907666D01*
X115166637Y-75737827D01*
X115149241Y-75561200D01*
X115166637Y-75384573D01*
X115218157Y-75214734D01*
X115301822Y-75058209D01*
X115331152Y-75022471D01*
X115414414Y-74921014D01*
X115515871Y-74837752D01*
X115551609Y-74808422D01*
X115708134Y-74724757D01*
X115877973Y-74673237D01*
X115944157Y-74666719D01*
X116010340Y-74660200D01*
X116348860Y-74660200D01*
X116415043Y-74666719D01*
X116415043Y-74666719D01*
G37*
G36*
X195643578Y-74329947D02*
G01*
X195810024Y-74398891D01*
X195959822Y-74498983D01*
X196087217Y-74626378D01*
X196187309Y-74776176D01*
X196256253Y-74942622D01*
X196291400Y-75119318D01*
X196291400Y-75299482D01*
X196256253Y-75476178D01*
X196187309Y-75642624D01*
X196087217Y-75792422D01*
X195959822Y-75919817D01*
X195810024Y-76019909D01*
X195643578Y-76088853D01*
X195466882Y-76124000D01*
X195286718Y-76124000D01*
X195110022Y-76088853D01*
X194943576Y-76019909D01*
X194793778Y-75919817D01*
X194666383Y-75792422D01*
X194566291Y-75642624D01*
X194497347Y-75476178D01*
X194462200Y-75299482D01*
X194462200Y-75119318D01*
X194497347Y-74942622D01*
X194566291Y-74776176D01*
X194666383Y-74626378D01*
X194793778Y-74498983D01*
X194943576Y-74398891D01*
X195110022Y-74329947D01*
X195286718Y-74294800D01*
X195466882Y-74294800D01*
X195643578Y-74329947D01*
X195643578Y-74329947D01*
G37*
G36*
X210883578Y-74329947D02*
G01*
X211050024Y-74398891D01*
X211199822Y-74498983D01*
X211327217Y-74626378D01*
X211427309Y-74776176D01*
X211496253Y-74942622D01*
X211531400Y-75119318D01*
X211531400Y-75299482D01*
X211496253Y-75476178D01*
X211427309Y-75642624D01*
X211327217Y-75792422D01*
X211199822Y-75919817D01*
X211050024Y-76019909D01*
X210883578Y-76088853D01*
X210706882Y-76124000D01*
X210526718Y-76124000D01*
X210350022Y-76088853D01*
X210183576Y-76019909D01*
X210033778Y-75919817D01*
X209906383Y-75792422D01*
X209806291Y-75642624D01*
X209737347Y-75476178D01*
X209702200Y-75299482D01*
X209702200Y-75119318D01*
X209737347Y-74942622D01*
X209806291Y-74776176D01*
X209906383Y-74626378D01*
X210033778Y-74498983D01*
X210183576Y-74398891D01*
X210350022Y-74329947D01*
X210526718Y-74294800D01*
X210706882Y-74294800D01*
X210883578Y-74329947D01*
X210883578Y-74329947D01*
G37*
G36*
X116415043Y-72166719D02*
G01*
X116481227Y-72173237D01*
X116651066Y-72224757D01*
X116651068Y-72224758D01*
X116672429Y-72236176D01*
X116807591Y-72308422D01*
X116843329Y-72337752D01*
X116944786Y-72421014D01*
X117028048Y-72522471D01*
X117057378Y-72558209D01*
X117141043Y-72714734D01*
X117192563Y-72884573D01*
X117209959Y-73061200D01*
X117192563Y-73237827D01*
X117141043Y-73407666D01*
X117057378Y-73564191D01*
X117041121Y-73584000D01*
X116944786Y-73701386D01*
X116843329Y-73784648D01*
X116807591Y-73813978D01*
X116651066Y-73897643D01*
X116481227Y-73949163D01*
X116415042Y-73955682D01*
X116348860Y-73962200D01*
X116010340Y-73962200D01*
X115944158Y-73955682D01*
X115877973Y-73949163D01*
X115708134Y-73897643D01*
X115551609Y-73813978D01*
X115515871Y-73784648D01*
X115414414Y-73701386D01*
X115318079Y-73584000D01*
X115301822Y-73564191D01*
X115218157Y-73407666D01*
X115166637Y-73237827D01*
X115149241Y-73061200D01*
X115166637Y-72884573D01*
X115218157Y-72714734D01*
X115301822Y-72558209D01*
X115331152Y-72522471D01*
X115414414Y-72421014D01*
X115515871Y-72337752D01*
X115551609Y-72308422D01*
X115686771Y-72236176D01*
X115708132Y-72224758D01*
X115708134Y-72224757D01*
X115877973Y-72173237D01*
X115944157Y-72166719D01*
X116010340Y-72160200D01*
X116348860Y-72160200D01*
X116415043Y-72166719D01*
X116415043Y-72166719D01*
G37*
G36*
X210883578Y-71789947D02*
G01*
X211050024Y-71858891D01*
X211199822Y-71958983D01*
X211327217Y-72086378D01*
X211427309Y-72236176D01*
X211496253Y-72402622D01*
X211531400Y-72579318D01*
X211531400Y-72759482D01*
X211496253Y-72936178D01*
X211427309Y-73102624D01*
X211327217Y-73252422D01*
X211199822Y-73379817D01*
X211050024Y-73479909D01*
X210883578Y-73548853D01*
X210706882Y-73584000D01*
X210526718Y-73584000D01*
X210350022Y-73548853D01*
X210183576Y-73479909D01*
X210033778Y-73379817D01*
X209906383Y-73252422D01*
X209806291Y-73102624D01*
X209737347Y-72936178D01*
X209702200Y-72759482D01*
X209702200Y-72579318D01*
X209737347Y-72402622D01*
X209806291Y-72236176D01*
X209906383Y-72086378D01*
X210033778Y-71958983D01*
X210183576Y-71858891D01*
X210350022Y-71789947D01*
X210526718Y-71754800D01*
X210706882Y-71754800D01*
X210883578Y-71789947D01*
X210883578Y-71789947D01*
G37*
G36*
X195643578Y-71789947D02*
G01*
X195810024Y-71858891D01*
X195959822Y-71958983D01*
X196087217Y-72086378D01*
X196187309Y-72236176D01*
X196256253Y-72402622D01*
X196291400Y-72579318D01*
X196291400Y-72759482D01*
X196256253Y-72936178D01*
X196187309Y-73102624D01*
X196087217Y-73252422D01*
X195959822Y-73379817D01*
X195810024Y-73479909D01*
X195643578Y-73548853D01*
X195466882Y-73584000D01*
X195286718Y-73584000D01*
X195110022Y-73548853D01*
X194943576Y-73479909D01*
X194793778Y-73379817D01*
X194666383Y-73252422D01*
X194566291Y-73102624D01*
X194497347Y-72936178D01*
X194462200Y-72759482D01*
X194462200Y-72579318D01*
X194497347Y-72402622D01*
X194566291Y-72236176D01*
X194666383Y-72086378D01*
X194793778Y-71958983D01*
X194943576Y-71858891D01*
X195110022Y-71789947D01*
X195286718Y-71754800D01*
X195466882Y-71754800D01*
X195643578Y-71789947D01*
X195643578Y-71789947D01*
G37*
G36*
X207181521Y-66597840D02*
G01*
X207600567Y-66771415D01*
X207691271Y-66808986D01*
X208150034Y-67115521D01*
X208540179Y-67505666D01*
X208813412Y-67914589D01*
X208846715Y-67964431D01*
X209057860Y-68474179D01*
X209165500Y-69015324D01*
X209165500Y-69567076D01*
X209057860Y-70108221D01*
X208869639Y-70562625D01*
X208846714Y-70617971D01*
X208540179Y-71076734D01*
X208150034Y-71466879D01*
X207691271Y-71773414D01*
X207691270Y-71773415D01*
X207691269Y-71773415D01*
X207181521Y-71984560D01*
X206640376Y-72092200D01*
X206088624Y-72092200D01*
X205547479Y-71984560D01*
X205037731Y-71773415D01*
X205037730Y-71773415D01*
X205037729Y-71773414D01*
X204578966Y-71466879D01*
X204188821Y-71076734D01*
X203882286Y-70617971D01*
X203859361Y-70562625D01*
X203671140Y-70108221D01*
X203563500Y-69567076D01*
X203563500Y-69015324D01*
X203671140Y-68474179D01*
X203882285Y-67964431D01*
X203915588Y-67914589D01*
X204188821Y-67505666D01*
X204578966Y-67115521D01*
X205037729Y-66808986D01*
X205128433Y-66771415D01*
X205547479Y-66597840D01*
X206088624Y-66490200D01*
X206640376Y-66490200D01*
X207181521Y-66597840D01*
X207181521Y-66597840D01*
G37*
G36*
X123181521Y-66597840D02*
G01*
X123600567Y-66771415D01*
X123691271Y-66808986D01*
X124150034Y-67115521D01*
X124540179Y-67505666D01*
X124813412Y-67914589D01*
X124846715Y-67964431D01*
X125057860Y-68474179D01*
X125165500Y-69015324D01*
X125165500Y-69567076D01*
X125057860Y-70108221D01*
X124869639Y-70562625D01*
X124846714Y-70617971D01*
X124540179Y-71076734D01*
X124150034Y-71466879D01*
X123691271Y-71773414D01*
X123691270Y-71773415D01*
X123691269Y-71773415D01*
X123181521Y-71984560D01*
X122640376Y-72092200D01*
X122088624Y-72092200D01*
X121547479Y-71984560D01*
X121037731Y-71773415D01*
X121037730Y-71773415D01*
X121037729Y-71773414D01*
X120578966Y-71466879D01*
X120188821Y-71076734D01*
X119882286Y-70617971D01*
X119859361Y-70562625D01*
X119671140Y-70108221D01*
X119563500Y-69567076D01*
X119563500Y-69015324D01*
X119671140Y-68474179D01*
X119882285Y-67964431D01*
X119915588Y-67914589D01*
X120188821Y-67505666D01*
X120578966Y-67115521D01*
X121037729Y-66808986D01*
X121128433Y-66771415D01*
X121547479Y-66597840D01*
X122088624Y-66490200D01*
X122640376Y-66490200D01*
X123181521Y-66597840D01*
X123181521Y-66597840D01*
G37*
G36*
X117063200Y-69664189D02*
G01*
X117096252Y-69674215D01*
X117126703Y-69690492D01*
X117153399Y-69712401D01*
X117175308Y-69739097D01*
X117191585Y-69769548D01*
X117201611Y-69802600D01*
X117205600Y-69843103D01*
X117205600Y-71279297D01*
X117201611Y-71319800D01*
X117191585Y-71352852D01*
X117175308Y-71383303D01*
X117153399Y-71409999D01*
X117126703Y-71431908D01*
X117096252Y-71448185D01*
X117063200Y-71458211D01*
X117022697Y-71462200D01*
X115336503Y-71462200D01*
X115296000Y-71458211D01*
X115262948Y-71448185D01*
X115232497Y-71431908D01*
X115205801Y-71409999D01*
X115183892Y-71383303D01*
X115167615Y-71352852D01*
X115157589Y-71319800D01*
X115153600Y-71279297D01*
X115153600Y-69843103D01*
X115157589Y-69802600D01*
X115167615Y-69769548D01*
X115183892Y-69739097D01*
X115205801Y-69712401D01*
X115232497Y-69690492D01*
X115262948Y-69674215D01*
X115296000Y-69664189D01*
X115336503Y-69660200D01*
X117022697Y-69660200D01*
X117063200Y-69664189D01*
X117063200Y-69664189D01*
G37*
G36*
X210883578Y-69249947D02*
G01*
X211050024Y-69318891D01*
X211199822Y-69418983D01*
X211327217Y-69546378D01*
X211427309Y-69696176D01*
X211496253Y-69862622D01*
X211531400Y-70039318D01*
X211531400Y-70219482D01*
X211496253Y-70396178D01*
X211427309Y-70562624D01*
X211327217Y-70712422D01*
X211199822Y-70839817D01*
X211050024Y-70939909D01*
X210883578Y-71008853D01*
X210706882Y-71044000D01*
X210526718Y-71044000D01*
X210350022Y-71008853D01*
X210183576Y-70939909D01*
X210033778Y-70839817D01*
X209906383Y-70712422D01*
X209806291Y-70562624D01*
X209737347Y-70396178D01*
X209702200Y-70219482D01*
X209702200Y-70039318D01*
X209737347Y-69862622D01*
X209806291Y-69696176D01*
X209906383Y-69546378D01*
X210033778Y-69418983D01*
X210183576Y-69318891D01*
X210350022Y-69249947D01*
X210526718Y-69214800D01*
X210706882Y-69214800D01*
X210883578Y-69249947D01*
X210883578Y-69249947D01*
G37*
G36*
X195643578Y-69249947D02*
G01*
X195810024Y-69318891D01*
X195959822Y-69418983D01*
X196087217Y-69546378D01*
X196187309Y-69696176D01*
X196256253Y-69862622D01*
X196291400Y-70039318D01*
X196291400Y-70219482D01*
X196256253Y-70396178D01*
X196187309Y-70562624D01*
X196087217Y-70712422D01*
X195959822Y-70839817D01*
X195810024Y-70939909D01*
X195643578Y-71008853D01*
X195466882Y-71044000D01*
X195286718Y-71044000D01*
X195110022Y-71008853D01*
X194943576Y-70939909D01*
X194793778Y-70839817D01*
X194666383Y-70712422D01*
X194566291Y-70562624D01*
X194497347Y-70396178D01*
X194462200Y-70219482D01*
X194462200Y-70039318D01*
X194497347Y-69862622D01*
X194566291Y-69696176D01*
X194666383Y-69546378D01*
X194793778Y-69418983D01*
X194943576Y-69318891D01*
X195110022Y-69249947D01*
X195286718Y-69214800D01*
X195466882Y-69214800D01*
X195643578Y-69249947D01*
X195643578Y-69249947D01*
G37*
G36*
X188845143Y-67647419D02*
G01*
X188911327Y-67653937D01*
X189081166Y-67705457D01*
X189237691Y-67789122D01*
X189273429Y-67818452D01*
X189374886Y-67901714D01*
X189458148Y-68003171D01*
X189487478Y-68038909D01*
X189571143Y-68195434D01*
X189622663Y-68365273D01*
X189640059Y-68541900D01*
X189622663Y-68718527D01*
X189571143Y-68888366D01*
X189487478Y-69044891D01*
X189458148Y-69080629D01*
X189374886Y-69182086D01*
X189273429Y-69265348D01*
X189237691Y-69294678D01*
X189081166Y-69378343D01*
X188911327Y-69429863D01*
X188845143Y-69436381D01*
X188778960Y-69442900D01*
X188690440Y-69442900D01*
X188624257Y-69436381D01*
X188558073Y-69429863D01*
X188388234Y-69378343D01*
X188231709Y-69294678D01*
X188195971Y-69265348D01*
X188094514Y-69182086D01*
X188011252Y-69080629D01*
X187981922Y-69044891D01*
X187898257Y-68888366D01*
X187846737Y-68718527D01*
X187829341Y-68541900D01*
X187846737Y-68365273D01*
X187898257Y-68195434D01*
X187981922Y-68038909D01*
X188011252Y-68003171D01*
X188094514Y-67901714D01*
X188195971Y-67818452D01*
X188231709Y-67789122D01*
X188388234Y-67705457D01*
X188558073Y-67653937D01*
X188624257Y-67647419D01*
X188690440Y-67640900D01*
X188778960Y-67640900D01*
X188845143Y-67647419D01*
X188845143Y-67647419D01*
G37*
G36*
X186305143Y-67647419D02*
G01*
X186371327Y-67653937D01*
X186541166Y-67705457D01*
X186697691Y-67789122D01*
X186733429Y-67818452D01*
X186834886Y-67901714D01*
X186918148Y-68003171D01*
X186947478Y-68038909D01*
X187031143Y-68195434D01*
X187082663Y-68365273D01*
X187100059Y-68541900D01*
X187082663Y-68718527D01*
X187031143Y-68888366D01*
X186947478Y-69044891D01*
X186918148Y-69080629D01*
X186834886Y-69182086D01*
X186733429Y-69265348D01*
X186697691Y-69294678D01*
X186541166Y-69378343D01*
X186371327Y-69429863D01*
X186305143Y-69436381D01*
X186238960Y-69442900D01*
X186150440Y-69442900D01*
X186084257Y-69436381D01*
X186018073Y-69429863D01*
X185848234Y-69378343D01*
X185691709Y-69294678D01*
X185655971Y-69265348D01*
X185554514Y-69182086D01*
X185471252Y-69080629D01*
X185441922Y-69044891D01*
X185358257Y-68888366D01*
X185306737Y-68718527D01*
X185289341Y-68541900D01*
X185306737Y-68365273D01*
X185358257Y-68195434D01*
X185441922Y-68038909D01*
X185471252Y-68003171D01*
X185554514Y-67901714D01*
X185655971Y-67818452D01*
X185691709Y-67789122D01*
X185848234Y-67705457D01*
X186018073Y-67653937D01*
X186084257Y-67647419D01*
X186150440Y-67640900D01*
X186238960Y-67640900D01*
X186305143Y-67647419D01*
X186305143Y-67647419D01*
G37*
G36*
X192175700Y-69442900D02*
G01*
X190373700Y-69442900D01*
X190373700Y-67640900D01*
X192175700Y-67640900D01*
X192175700Y-69442900D01*
X192175700Y-69442900D01*
G37*
G36*
X199037559Y-67540360D02*
G01*
X199103383Y-67567625D01*
X199174232Y-67596972D01*
X199297235Y-67679160D01*
X199401840Y-67783765D01*
X199484028Y-67906768D01*
X199484029Y-67906770D01*
X199540640Y-68043441D01*
X199569500Y-68188532D01*
X199569500Y-68336468D01*
X199542108Y-68474178D01*
X199540640Y-68481559D01*
X199484028Y-68618232D01*
X199401840Y-68741235D01*
X199297235Y-68845840D01*
X199174232Y-68928028D01*
X199174231Y-68928029D01*
X199174230Y-68928029D01*
X199037559Y-68984640D01*
X198892468Y-69013500D01*
X198744532Y-69013500D01*
X198599441Y-68984640D01*
X198462770Y-68928029D01*
X198462769Y-68928029D01*
X198462768Y-68928028D01*
X198339765Y-68845840D01*
X198235160Y-68741235D01*
X198152972Y-68618232D01*
X198096360Y-68481559D01*
X198094892Y-68474178D01*
X198067500Y-68336468D01*
X198067500Y-68188532D01*
X198096360Y-68043441D01*
X198152971Y-67906770D01*
X198152972Y-67906768D01*
X198235160Y-67783765D01*
X198339765Y-67679160D01*
X198462768Y-67596972D01*
X198533618Y-67567625D01*
X198599441Y-67540360D01*
X198744532Y-67511500D01*
X198892468Y-67511500D01*
X199037559Y-67540360D01*
X199037559Y-67540360D01*
G37*
G36*
X201577559Y-67540360D02*
G01*
X201643383Y-67567625D01*
X201714232Y-67596972D01*
X201837235Y-67679160D01*
X201941840Y-67783765D01*
X202024028Y-67906768D01*
X202024029Y-67906770D01*
X202080640Y-68043441D01*
X202109500Y-68188532D01*
X202109500Y-68336468D01*
X202082108Y-68474178D01*
X202080640Y-68481559D01*
X202024028Y-68618232D01*
X201941840Y-68741235D01*
X201837235Y-68845840D01*
X201714232Y-68928028D01*
X201714231Y-68928029D01*
X201714230Y-68928029D01*
X201577559Y-68984640D01*
X201432468Y-69013500D01*
X201284532Y-69013500D01*
X201139441Y-68984640D01*
X201002770Y-68928029D01*
X201002769Y-68928029D01*
X201002768Y-68928028D01*
X200879765Y-68845840D01*
X200775160Y-68741235D01*
X200692972Y-68618232D01*
X200636360Y-68481559D01*
X200634892Y-68474178D01*
X200607500Y-68336468D01*
X200607500Y-68188532D01*
X200636360Y-68043441D01*
X200692971Y-67906770D01*
X200692972Y-67906768D01*
X200775160Y-67783765D01*
X200879765Y-67679160D01*
X201002768Y-67596972D01*
X201073618Y-67567625D01*
X201139441Y-67540360D01*
X201284532Y-67511500D01*
X201432468Y-67511500D01*
X201577559Y-67540360D01*
X201577559Y-67540360D01*
G37*
G36*
X148657943Y-66948919D02*
G01*
X148724127Y-66955437D01*
X148893966Y-67006957D01*
X149050491Y-67090622D01*
X149080830Y-67115521D01*
X149187686Y-67203214D01*
X149270948Y-67304671D01*
X149300278Y-67340409D01*
X149383943Y-67496934D01*
X149435463Y-67666773D01*
X149452859Y-67843400D01*
X149435463Y-68020027D01*
X149383943Y-68189866D01*
X149300278Y-68346391D01*
X149291911Y-68356586D01*
X149187686Y-68483586D01*
X149087994Y-68565400D01*
X149050491Y-68596178D01*
X148893966Y-68679843D01*
X148724127Y-68731363D01*
X148657942Y-68737882D01*
X148591760Y-68744400D01*
X148503240Y-68744400D01*
X148437058Y-68737882D01*
X148370873Y-68731363D01*
X148201034Y-68679843D01*
X148044509Y-68596178D01*
X148007006Y-68565400D01*
X147907314Y-68483586D01*
X147803089Y-68356586D01*
X147794722Y-68346391D01*
X147711057Y-68189866D01*
X147659537Y-68020027D01*
X147642141Y-67843400D01*
X147659537Y-67666773D01*
X147711057Y-67496934D01*
X147794722Y-67340409D01*
X147824052Y-67304671D01*
X147907314Y-67203214D01*
X148014170Y-67115521D01*
X148044509Y-67090622D01*
X148201034Y-67006957D01*
X148370873Y-66955437D01*
X148437057Y-66948919D01*
X148503240Y-66942400D01*
X148591760Y-66942400D01*
X148657943Y-66948919D01*
X148657943Y-66948919D01*
G37*
G36*
X146908500Y-68744400D02*
G01*
X145106500Y-68744400D01*
X145106500Y-66942400D01*
X146908500Y-66942400D01*
X146908500Y-68744400D01*
X146908500Y-68744400D01*
G37*
G36*
X133879943Y-66821919D02*
G01*
X133946127Y-66828437D01*
X134115966Y-66879957D01*
X134272491Y-66963622D01*
X134276898Y-66967239D01*
X134409686Y-67076214D01*
X134492948Y-67177671D01*
X134522278Y-67213409D01*
X134605943Y-67369934D01*
X134657463Y-67539773D01*
X134674859Y-67716400D01*
X134657463Y-67893027D01*
X134605943Y-68062866D01*
X134522278Y-68219391D01*
X134498764Y-68248043D01*
X134409686Y-68356586D01*
X134308229Y-68439848D01*
X134272491Y-68469178D01*
X134115966Y-68552843D01*
X133946127Y-68604363D01*
X133879942Y-68610882D01*
X133813760Y-68617400D01*
X133725240Y-68617400D01*
X133659058Y-68610882D01*
X133592873Y-68604363D01*
X133423034Y-68552843D01*
X133266509Y-68469178D01*
X133230771Y-68439848D01*
X133129314Y-68356586D01*
X133040236Y-68248043D01*
X133016722Y-68219391D01*
X132933057Y-68062866D01*
X132881537Y-67893027D01*
X132864141Y-67716400D01*
X132881537Y-67539773D01*
X132933057Y-67369934D01*
X133016722Y-67213409D01*
X133046052Y-67177671D01*
X133129314Y-67076214D01*
X133262102Y-66967239D01*
X133266509Y-66963622D01*
X133423034Y-66879957D01*
X133592873Y-66828437D01*
X133659057Y-66821919D01*
X133725240Y-66815400D01*
X133813760Y-66815400D01*
X133879943Y-66821919D01*
X133879943Y-66821919D01*
G37*
G36*
X132130500Y-68617400D02*
G01*
X130328500Y-68617400D01*
X130328500Y-66815400D01*
X132130500Y-66815400D01*
X132130500Y-68617400D01*
X132130500Y-68617400D01*
G37*
G36*
X210901487Y-66650907D02*
G01*
X210901490Y-66650908D01*
X210901489Y-66650908D01*
X211079109Y-66724480D01*
X211079110Y-66724481D01*
X211238961Y-66831289D01*
X211374911Y-66967239D01*
X211457351Y-67090621D01*
X211481720Y-67127091D01*
X211517873Y-67214373D01*
X211555293Y-67304713D01*
X211592800Y-67493271D01*
X211592800Y-67685529D01*
X211555293Y-67874087D01*
X211555292Y-67874089D01*
X211481720Y-68051709D01*
X211474265Y-68062866D01*
X211374911Y-68211561D01*
X211238961Y-68347511D01*
X211105691Y-68436558D01*
X211079109Y-68454320D01*
X210941727Y-68511225D01*
X210901487Y-68527893D01*
X210712929Y-68565400D01*
X210520671Y-68565400D01*
X210332113Y-68527893D01*
X210291873Y-68511225D01*
X210154491Y-68454320D01*
X210127909Y-68436558D01*
X209994639Y-68347511D01*
X209858689Y-68211561D01*
X209759335Y-68062866D01*
X209751880Y-68051709D01*
X209678308Y-67874089D01*
X209678307Y-67874087D01*
X209640800Y-67685529D01*
X209640800Y-67493271D01*
X209678307Y-67304713D01*
X209715727Y-67214373D01*
X209751880Y-67127091D01*
X209776249Y-67090621D01*
X209858689Y-66967239D01*
X209994639Y-66831289D01*
X210154490Y-66724481D01*
X210154491Y-66724480D01*
X210332111Y-66650908D01*
X210332110Y-66650908D01*
X210332113Y-66650907D01*
X210520671Y-66613400D01*
X210712929Y-66613400D01*
X210901487Y-66650907D01*
X210901487Y-66650907D01*
G37*
G36*
X195661487Y-66650907D02*
G01*
X195661490Y-66650908D01*
X195661489Y-66650908D01*
X195839109Y-66724480D01*
X195839110Y-66724481D01*
X195998961Y-66831289D01*
X196134911Y-66967239D01*
X196217351Y-67090621D01*
X196241720Y-67127091D01*
X196277873Y-67214373D01*
X196315293Y-67304713D01*
X196352800Y-67493271D01*
X196352800Y-67685529D01*
X196315293Y-67874087D01*
X196315292Y-67874089D01*
X196241720Y-68051709D01*
X196234265Y-68062866D01*
X196134911Y-68211561D01*
X195998961Y-68347511D01*
X195865691Y-68436558D01*
X195839109Y-68454320D01*
X195701727Y-68511225D01*
X195661487Y-68527893D01*
X195472929Y-68565400D01*
X195280671Y-68565400D01*
X195092113Y-68527893D01*
X195051873Y-68511225D01*
X194914491Y-68454320D01*
X194887909Y-68436558D01*
X194754639Y-68347511D01*
X194618689Y-68211561D01*
X194519335Y-68062866D01*
X194511880Y-68051709D01*
X194438308Y-67874089D01*
X194438307Y-67874087D01*
X194400800Y-67685529D01*
X194400800Y-67493271D01*
X194438307Y-67304713D01*
X194475727Y-67214373D01*
X194511880Y-67127091D01*
X194536249Y-67090621D01*
X194618689Y-66967239D01*
X194754639Y-66831289D01*
X194914490Y-66724481D01*
X194914491Y-66724480D01*
X195092111Y-66650908D01*
X195092110Y-66650908D01*
X195092113Y-66650907D01*
X195280671Y-66613400D01*
X195472929Y-66613400D01*
X195661487Y-66650907D01*
X195661487Y-66650907D01*
G37*
G36*
X161505200Y-68312600D02*
G01*
X159703200Y-68312600D01*
X159703200Y-66510600D01*
X161505200Y-66510600D01*
X161505200Y-68312600D01*
X161505200Y-68312600D01*
G37*
G36*
X163254642Y-66517118D02*
G01*
X163320827Y-66523637D01*
X163490666Y-66575157D01*
X163490668Y-66575158D01*
X163562213Y-66613400D01*
X163647191Y-66658822D01*
X163682929Y-66688152D01*
X163784386Y-66771414D01*
X163867648Y-66872871D01*
X163896978Y-66908609D01*
X163980643Y-67065134D01*
X164032163Y-67234973D01*
X164049559Y-67411600D01*
X164032163Y-67588227D01*
X163996601Y-67705458D01*
X163980642Y-67758068D01*
X163966905Y-67783767D01*
X163896978Y-67914591D01*
X163867648Y-67950329D01*
X163784386Y-68051786D01*
X163682929Y-68135048D01*
X163647191Y-68164378D01*
X163599507Y-68189866D01*
X163529208Y-68227442D01*
X163490666Y-68248043D01*
X163320827Y-68299563D01*
X163254643Y-68306081D01*
X163188460Y-68312600D01*
X163099940Y-68312600D01*
X163033757Y-68306081D01*
X162967573Y-68299563D01*
X162797734Y-68248043D01*
X162759193Y-68227442D01*
X162688893Y-68189866D01*
X162641209Y-68164378D01*
X162605471Y-68135048D01*
X162504014Y-68051786D01*
X162420752Y-67950329D01*
X162391422Y-67914591D01*
X162321495Y-67783767D01*
X162307758Y-67758068D01*
X162291799Y-67705458D01*
X162256237Y-67588227D01*
X162238841Y-67411600D01*
X162256237Y-67234973D01*
X162307757Y-67065134D01*
X162391422Y-66908609D01*
X162420752Y-66872871D01*
X162504014Y-66771414D01*
X162605471Y-66688152D01*
X162641209Y-66658822D01*
X162726187Y-66613400D01*
X162797732Y-66575158D01*
X162797734Y-66575157D01*
X162967573Y-66523637D01*
X163033758Y-66517118D01*
X163099940Y-66510600D01*
X163188460Y-66510600D01*
X163254642Y-66517118D01*
X163254642Y-66517118D01*
G37*
G36*
X175731200Y-68292000D02*
G01*
X173929200Y-68292000D01*
X173929200Y-66490000D01*
X175731200Y-66490000D01*
X175731200Y-68292000D01*
X175731200Y-68292000D01*
G37*
G36*
X177480643Y-66496519D02*
G01*
X177546827Y-66503037D01*
X177716666Y-66554557D01*
X177716668Y-66554558D01*
X177794929Y-66596390D01*
X177873191Y-66638222D01*
X177898291Y-66658821D01*
X178010386Y-66750814D01*
X178093648Y-66852271D01*
X178122978Y-66888009D01*
X178206643Y-67044534D01*
X178258163Y-67214373D01*
X178275559Y-67391000D01*
X178258163Y-67567627D01*
X178213033Y-67716400D01*
X178206642Y-67737468D01*
X178181894Y-67783767D01*
X178122978Y-67893991D01*
X178106072Y-67914591D01*
X178010386Y-68031186D01*
X177908929Y-68114448D01*
X177873191Y-68143778D01*
X177716666Y-68227443D01*
X177546827Y-68278963D01*
X177480643Y-68285481D01*
X177414460Y-68292000D01*
X177325940Y-68292000D01*
X177259757Y-68285481D01*
X177193573Y-68278963D01*
X177023734Y-68227443D01*
X176867209Y-68143778D01*
X176831471Y-68114448D01*
X176730014Y-68031186D01*
X176634328Y-67914591D01*
X176617422Y-67893991D01*
X176558506Y-67783767D01*
X176533758Y-67737468D01*
X176527367Y-67716400D01*
X176482237Y-67567627D01*
X176464841Y-67391000D01*
X176482237Y-67214373D01*
X176533757Y-67044534D01*
X176617422Y-66888009D01*
X176646752Y-66852271D01*
X176730014Y-66750814D01*
X176842109Y-66658821D01*
X176867209Y-66638222D01*
X176945471Y-66596390D01*
X177023732Y-66554558D01*
X177023734Y-66554557D01*
X177193573Y-66503037D01*
X177259757Y-66496519D01*
X177325940Y-66490000D01*
X177414460Y-66490000D01*
X177480643Y-66496519D01*
X177480643Y-66496519D01*
G37*
M02*
